<?xml version="1.0" encoding="iso-8859-1"?>
<!-- Generator: Adobe Illustrator 19.0.0, SVG Export Plug-In . SVG Version: 6.00 Build 0)  -->
<svg version="1.1" id="Layer_1" xmlns="http://www.w3.org/2000/svg" xmlns:xlink="http://www.w3.org/1999/xlink" x="0px" y="0px"
	 viewBox="0 0 511.999 511.999" style="enable-background:new 0 0 511.999 511.999;" xml:space="preserve">
<g>
	<g>
		<path style="fill:#34485C;" d="M489.931,44.138c0,24.373-19.765,44.138-44.138,44.138c-24.373,0-44.138-19.765-44.138-44.138
			S421.42,0,445.793,0C470.166,0,489.931,19.765,489.931,44.138"/>
		<path style="fill:#34485C;" d="M350.147,151.257l-48.87,141.63c-3.24,9.393-12.579,15.272-22.449,14.133l-89.529-10.284
			c-8.766-1.095-16.993,4.414-19.315,12.932l-58.73,170.178c-2.18,7.998-0.468,16.87,5.411,22.713
			c17.373,17.276,41.498,8.925,47.289-9.622l49.646-121.697c2.622-8.404,11.008-13.603,19.694-12.235l133.429,18.22
			c10.037,1.368,19.641-4.555,22.916-14.142l60.646-177.434c9.869-28.866-6.638-60.072-36.043-68.167
			C387.311,110.068,359.257,124.854,350.147,151.257"/>
	</g>
	<polygon style="fill:#74B73E;" points="260.413,114.758 180.965,35.309 180.965,79.447 22.069,79.447 22.069,150.068 
		180.965,150.068 180.965,194.206 	"/>
</g>
<g>
</g>
<g>
</g>
<g>
</g>
<g>
</g>
<g>
</g>
<g>
</g>
<g>
</g>
<g>
</g>
<g>
</g>
<g>
</g>
<g>
</g>
<g>
</g>
<g>
</g>
<g>
</g>
<g>
</g>
</svg>
