<?xml version="1.0" encoding="iso-8859-1"?>
<!-- Generator: Adobe Illustrator 19.0.0, SVG Export Plug-In . SVG Version: 6.00 Build 0)  -->
<svg version="1.1" id="Layer_1" xmlns="http://www.w3.org/2000/svg" xmlns:xlink="http://www.w3.org/1999/xlink" x="0px" y="0px"
	 viewBox="0 0 511.997 511.997" style="enable-background:new 0 0 511.997 511.997;" xml:space="preserve">
<g>
	<g>
		<path style="fill:#FC5923;" d="M247.177,123.586c0,68.255-55.331,123.586-123.586,123.586S0.004,191.841,0.004,123.586
			S55.335,0,123.59,0S247.177,55.331,247.177,123.586"/>
		<path style="fill:#FC5923;" d="M432.551,61.793c0,24.373-19.765,44.138-44.138,44.138s-44.138-19.765-44.138-44.138
			s19.765-44.138,44.138-44.138S432.551,37.42,432.551,61.793"/>
	</g>
	<polygon style="fill:#FECA09;" points="450.211,487.032 425.247,511.996 213.385,300.134 238.349,275.17 	"/>
	<g>
		<path style="fill:#FC5923;" d="M241.305,328.062l-109.391-13.674c-8.757-1.095-16.984,4.423-19.315,12.932L71.595,477.699
			c-4.237,15.51,5.87,31.285,21.725,33.924c13.374,2.233,26.342-5.738,30.385-18.679l32.512-104.051
			c2.631-8.395,11.008-13.603,19.703-12.235l135.362,21.38L241.305,328.062z"/>
		<path style="fill:#FC5923;" d="M340.865,377.687l54.069-175.236c8.845-28.663-7.759-58.968-36.687-66.931l0,0
			c-27.524-7.574-56.117,7.945-64.768,35.151l-38.515,121.114L340.865,377.687z"/>
	</g>
	<path style="fill:#FECA09;" d="M394.939,202.449l-2.066,6.691L511.993,93.967l-0.009-49.832l-120.17,119.252
		C397.569,175.11,399.105,188.952,394.939,202.449"/>
</g>
<g>
</g>
<g>
</g>
<g>
</g>
<g>
</g>
<g>
</g>
<g>
</g>
<g>
</g>
<g>
</g>
<g>
</g>
<g>
</g>
<g>
</g>
<g>
</g>
<g>
</g>
<g>
</g>
<g>
</g>
</svg>
