<?xml version="1.0" encoding="iso-8859-1"?>
<!-- Generator: Adobe Illustrator 19.0.0, SVG Export Plug-In . SVG Version: 6.00 Build 0)  -->
<svg version="1.1" id="Layer_1" xmlns="http://www.w3.org/2000/svg" xmlns:xlink="http://www.w3.org/1999/xlink" x="0px" y="0px"
	 viewBox="0 0 512 512" style="enable-background:new 0 0 512 512;" xml:space="preserve">
<g>
	<path style="fill:#A4A4A4;" d="M512,256c0,141.383-114.617,256-256,256S0,397.383,0,256S114.617,0,256,0S512,114.617,512,256"/>
	<g>
		<path style="fill:#535353;" d="M125.785,238.346c14.159,0,26.359-9.101,31.4-22.334c0.3-0.777,0.609-1.554,0.918-2.33
			c5.182-12.676,2.754-27.154-6.93-36.838l-63.426-63.426c-29.096,34.278-47.89,77.506-51.668,124.928H125.785z"/>
		<path style="fill:#535353;" d="M211.742,157.895c1.942-0.892,3.911-1.73,5.914-2.507c12.721-4.952,20.692-17.708,20.692-31.356
			V36.083c-47.775,3.796-91.286,22.855-125.687,52.321l62.446,62.438C184.73,160.472,199.383,163.597,211.742,157.895"/>
		<path style="fill:#535353;" d="M295.189,157.074c1.404,0.538,2.816,1.103,4.228,1.686c12.288,5.049,26.403,2.057,35.814-7.318
			c17.231-17.17,43.997-43.838,63.656-63.426C364.565,58.77,321.222,39.87,273.65,36.083v89.838
			C273.65,139.78,282.274,152.068,295.189,157.074"/>
		<path style="fill:#535353;" d="M152.346,333.983c9.984-9.984,12.111-24.964,6.488-37.923c-0.177-0.406-0.353-0.821-0.53-1.236
			c-5.305-12.65-17.231-21.195-30.941-21.186c-24.788,0-63.223,0.009-91.286,0.009c3.778,47.422,22.572,90.659,51.668,124.937
			L152.346,333.983z"/>
		<path style="fill:#535353;" d="M360.56,176.043c-9.437,9.401-12.703,23.658-7.424,35.884c0.768,1.783,1.492,3.593,2.163,5.42
			c4.696,12.8,17.276,21.001,30.914,21.001h89.706c-3.787-47.634-22.74-91.03-52.056-125.378L360.56,176.043z"/>
		<path style="fill:#535353;" d="M383.153,273.654c-13.515,0-25.556,8.307-30.623,20.842c-0.406,1.015-0.83,2.039-1.262,3.063
			c-5.235,12.438-2.322,26.827,7.239,36.352l65.359,65.121c29.308-34.348,48.26-77.753,52.056-125.378H383.153z"/>
		<path style="fill:#535353;" d="M238.345,382.395c0-13.374-8.007-25.441-20.33-30.649c-0.847-0.362-1.695-0.724-2.534-1.086
			c-12.623-5.526-27.366-2.516-37.102,7.221l-65.713,65.721c34.392,29.458,77.903,48.516,125.678,52.321V382.395z"/>
		<path style="fill:#535353;" d="M332.608,357.948c-9.287-9.26-23.181-12.253-35.399-7.503c-0.724,0.283-1.448,0.556-2.163,0.83
			c-12.915,4.864-21.389,17.293-21.389,31.091v93.555c47.563-3.787,90.906-22.687,125.237-51.933L332.608,357.948z"/>
		<path style="fill:#535353;" d="M264.828,317.793c0,4.873-3.955,8.828-8.828,8.828s-8.828-3.955-8.828-8.828
			c0-4.873,3.955-8.828,8.828-8.828S264.828,312.92,264.828,317.793"/>
		<path style="fill:#535353;" d="M326.621,256c0,4.873-3.955,8.828-8.828,8.828c-4.873,0-8.828-3.955-8.828-8.828
			s3.955-8.828,8.828-8.828C322.666,247.172,326.621,251.127,326.621,256"/>
		<path style="fill:#535353;" d="M264.828,194.207c0,4.873-3.955,8.828-8.828,8.828s-8.828-3.955-8.828-8.828
			s3.955-8.828,8.828-8.828S264.828,189.334,264.828,194.207"/>
		<path style="fill:#535353;" d="M203.034,256c0,4.873-3.955,8.828-8.828,8.828s-8.828-3.955-8.828-8.828s3.955-8.828,8.828-8.828
			S203.034,251.127,203.034,256"/>
	</g>
</g>
<g>
</g>
<g>
</g>
<g>
</g>
<g>
</g>
<g>
</g>
<g>
</g>
<g>
</g>
<g>
</g>
<g>
</g>
<g>
</g>
<g>
</g>
<g>
</g>
<g>
</g>
<g>
</g>
<g>
</g>
</svg>
