<?xml version="1.0" encoding="iso-8859-1"?>
<!-- Generator: Adobe Illustrator 19.0.0, SVG Export Plug-In . SVG Version: 6.00 Build 0)  -->
<svg version="1.1" id="Layer_1" xmlns="http://www.w3.org/2000/svg" xmlns:xlink="http://www.w3.org/1999/xlink" x="0px" y="0px"
	 viewBox="0 0 512 512" style="enable-background:new 0 0 512 512;" xml:space="preserve">
<g>
	<path style="fill:#A4A4A4;" d="M512,256c0,141.383-114.617,256-256,256S0,397.383,0,256S114.617,0,256,0S512,114.617,512,256"/>
	<g>
		<path style="fill:#535353;" d="M282.483,317.793c0,14.627-11.855,26.483-26.483,26.483c-14.627,0-26.483-11.855-26.483-26.483
			c0-14.627,11.855-26.483,26.483-26.483C270.627,291.31,282.483,303.166,282.483,317.793"/>
		<path style="fill:#535353;" d="M344.276,256c0,14.627-11.855,26.483-26.483,26.483S291.31,270.627,291.31,256
			c0-14.627,11.855-26.483,26.483-26.483S344.276,241.373,344.276,256"/>
		<path style="fill:#535353;" d="M282.483,194.207c0,14.627-11.855,26.483-26.483,26.483c-14.627,0-26.483-11.855-26.483-26.483
			s11.855-26.483,26.483-26.483C270.627,167.724,282.483,179.58,282.483,194.207"/>
		<path style="fill:#535353;" d="M220.69,256c0,14.627-11.855,26.483-26.483,26.483S167.724,270.627,167.724,256
			c0-14.627,11.855-26.483,26.483-26.483S220.69,241.373,220.69,256"/>
		<path style="fill:#535353;" d="M46.571,229.365c28.963,8.757,58.801,11.034,87.552,6.991
			c3.116-19.456,10.726-37.367,21.804-52.674c-17.382-23.066-40.086-42.531-66.851-56.938l-8.422-4.537
			c-22.775,29.775-38.118,65.492-43.326,104.386L46.571,229.365z"/>
		<path style="fill:#535353;" d="M89.077,385.254c26.668-14.283,49.373-33.766,66.842-56.956
			c-11.079-15.298-18.688-33.209-21.804-52.665c-28.601-4.025-58.43-1.739-87.543,7l-9.242,2.772
			c5.199,38.894,20.551,74.611,43.326,104.386L89.077,385.254z"/>
		<path style="fill:#535353;" d="M275.648,134.122c19.412,3.107,37.279,10.69,52.559,21.725
			c23.993-17.991,43.511-40.704,57.044-66.772l4.537-8.422c-29.775-22.775-65.483-38.118-104.377-43.326l-2.772,9.242
			C273.874,75.533,271.597,105.37,275.648,134.122"/>
		<path style="fill:#535353;" d="M126.746,89.077c14.283,26.668,33.766,49.373,56.956,66.842
			c15.298-11.079,33.209-18.688,52.665-21.804c4.025-28.601,1.739-58.43-7-87.543l-2.772-9.242
			C187.7,42.53,151.984,57.881,122.208,80.647L126.746,89.077z"/>
		<path style="fill:#535353;" d="M229.365,465.429c8.872-27.86,11.14-57.732,6.859-87.57c-19.412-3.134-37.27-10.734-52.542-21.786
			c-23.066,17.39-42.531,40.086-56.938,66.851l-4.537,8.421c29.775,22.775,65.492,38.126,104.386,43.326L229.365,465.429z"/>
		<path style="fill:#535353;" d="M385.254,422.923c-13.427-25.971-32.936-48.684-57.062-66.754
			c-15.245,11.008-33.068,18.573-52.427,21.689c-4.255,29.696-1.986,59.569,6.868,87.57l2.772,9.242
			c38.894-5.199,74.611-20.551,104.386-43.317L385.254,422.923z"/>
		<path style="fill:#535353;" d="M422.923,126.746c-25.971,13.427-48.693,32.936-66.754,57.062
			c11.017,15.254,18.688,33.086,21.831,52.445c29.643,4.228,59.463,1.96,87.428-6.886l9.242-2.772
			c-5.199-38.894-20.551-74.611-43.326-104.386L422.923,126.746z"/>
		<path style="fill:#535353;" d="M465.429,282.635c-27.816-8.863-57.635-11.123-87.437-6.868
			c-3.143,19.35-10.814,37.182-21.839,52.436c17.991,23.993,40.713,43.511,66.772,57.053l8.421,4.537
			c22.775-29.775,38.118-65.492,43.326-104.386L465.429,282.635z"/>
	</g>
</g>
<g>
</g>
<g>
</g>
<g>
</g>
<g>
</g>
<g>
</g>
<g>
</g>
<g>
</g>
<g>
</g>
<g>
</g>
<g>
</g>
<g>
</g>
<g>
</g>
<g>
</g>
<g>
</g>
<g>
</g>
</svg>
