<?xml version="1.0" encoding="iso-8859-1"?>
<!-- Generator: Adobe Illustrator 19.0.0, SVG Export Plug-In . SVG Version: 6.00 Build 0)  -->
<svg version="1.1" id="Layer_1" xmlns="http://www.w3.org/2000/svg" xmlns:xlink="http://www.w3.org/1999/xlink" x="0px" y="0px"
	 viewBox="0 0 512 512" style="enable-background:new 0 0 512 512;" xml:space="preserve">
<g>
	<path style="fill:#A4A4A4;" d="M379.586,255.78c-0.026-11.52,6.568-22.016,17.302-26.191l56.294-21.91
		c-4.273-17.434-10.787-33.995-19.244-49.346l-56.294,21.91c-10.231,3.981-22.14,1.695-29.475-6.471
		c-1.907-2.127-3.893-4.184-5.941-6.171c-7.918-7.671-9.763-19.712-5.323-29.811l24.346-55.358
		c-14.998-9.128-31.285-16.313-48.481-21.327l-24.32,55.305c-4.476,10.178-14.689,16.79-25.794,16.181
		c-2.198-0.115-4.423-0.177-6.656-0.177h-0.194c-11.538,0.026-22.034-6.559-26.218-17.302l-21.91-56.294
		c-17.434,4.273-33.995,10.787-49.346,19.244l21.954,56.399c3.981,10.24,1.66,22.157-6.541,29.484
		c-2.119,1.898-4.175,3.875-6.17,5.914c-7.671,7.865-19.677,9.675-29.74,5.252L82.432,150.75
		c-9.128,14.998-16.313,31.285-21.327,48.481l55.305,24.32c10.178,4.476,16.79,14.689,16.19,25.794
		c-0.124,2.198-0.185,4.423-0.185,6.656v0.221c0.026,11.52-6.568,22.007-17.302,26.191l-56.294,21.91
		c4.281,17.426,10.787,33.986,19.244,49.346l56.294-21.91c10.231-3.981,22.14-1.695,29.475,6.471
		c1.907,2.119,3.893,4.175,5.941,6.17c7.918,7.671,9.763,19.712,5.323,29.802l-24.346,55.367
		c14.998,9.128,31.285,16.313,48.481,21.327l24.32-55.305c4.476-10.178,14.689-16.79,25.794-16.19
		c2.198,0.124,4.423,0.185,6.656,0.185h0.221c11.52-0.026,22.016,6.568,26.191,17.302l21.91,56.294
		c17.435-4.281,33.995-10.787,49.346-19.244l-21.91-56.302c-3.981-10.222-1.695-22.131,6.471-29.466
		c2.127-1.907,4.184-3.893,6.171-5.941c7.671-7.918,19.712-9.763,29.811-5.323l55.358,24.346
		c9.128-14.998,16.313-31.285,21.327-48.481l-55.305-24.32c-10.178-4.476-16.79-14.698-16.19-25.794
		c0.124-2.207,0.185-4.423,0.185-6.656V255.78z"/>
	<g>
		<path style="fill:#535353;" d="M256,459.034c-111.951,0-203.034-91.083-203.034-203.034S144.049,52.966,256,52.966
			S459.034,144.049,459.034,256S367.951,459.034,256,459.034 M256,0C114.617,0,0,114.617,0,256s114.617,256,256,256
			s256-114.617,256-256S397.383,0,256,0"/>
		<path style="fill:#535353;" d="M282.483,317.793c0,14.627-11.855,26.483-26.483,26.483c-14.627,0-26.483-11.855-26.483-26.483
			c0-14.627,11.855-26.483,26.483-26.483C270.627,291.31,282.483,303.166,282.483,317.793"/>
		<path style="fill:#535353;" d="M344.276,256c0,14.627-11.855,26.483-26.483,26.483S291.31,270.627,291.31,256
			c0-14.627,11.855-26.483,26.483-26.483S344.276,241.373,344.276,256"/>
		<path style="fill:#535353;" d="M282.483,194.207c0,14.627-11.855,26.483-26.483,26.483c-14.627,0-26.483-11.855-26.483-26.483
			s11.855-26.483,26.483-26.483C270.627,167.724,282.483,179.58,282.483,194.207"/>
		<path style="fill:#535353;" d="M220.69,256c0,14.627-11.855,26.483-26.483,26.483S167.724,270.627,167.724,256
			c0-14.627,11.855-26.483,26.483-26.483S220.69,241.373,220.69,256"/>
	</g>
</g>
<g>
</g>
<g>
</g>
<g>
</g>
<g>
</g>
<g>
</g>
<g>
</g>
<g>
</g>
<g>
</g>
<g>
</g>
<g>
</g>
<g>
</g>
<g>
</g>
<g>
</g>
<g>
</g>
<g>
</g>
</svg>
