<?xml version="1.0" encoding="iso-8859-1"?>
<!-- Generator: Adobe Illustrator 19.0.0, SVG Export Plug-In . SVG Version: 6.00 Build 0)  -->
<svg version="1.1" id="Layer_1" xmlns="http://www.w3.org/2000/svg" xmlns:xlink="http://www.w3.org/1999/xlink" x="0px" y="0px"
	 viewBox="0 0 512 512" style="enable-background:new 0 0 512 512;" xml:space="preserve">
<g>
	<path style="fill:#535353;" d="M256,459.034c-111.951,0-203.034-91.083-203.034-203.034S144.049,52.966,256,52.966
		S459.034,144.049,459.034,256S367.951,459.034,256,459.034 M256,0C114.617,0,0,114.617,0,256s114.617,256,256,256
		s256-114.617,256-256S397.383,0,256,0"/>
	<path style="fill:#A4A4A4;" d="M372.504,215.08c-1.536-4.378-3.319-8.642-5.323-12.782c23.075-15.669,42.461-36.14,56.982-59.948
		c-14.592-21.53-33.209-40.121-54.766-54.687c-23.808,14.53-44.288,33.942-59.957,57.035c-4.105-1.977-8.316-3.734-12.659-5.252
		c5.244-27.418,4.476-55.623-2.092-82.741c-12.535-2.428-25.459-3.743-38.691-3.743s-26.156,1.315-38.682,3.743
		c-6.577,27.118-7.336,55.322-2.101,82.741c-4.378,1.536-8.642,3.31-12.782,5.314c-15.678-23.084-36.149-42.487-59.957-57.009
		c-21.539,14.583-40.148,33.183-54.731,54.722c14.53,23.808,33.933,44.279,57.017,59.957c-1.977,4.105-3.743,8.316-5.27,12.65
		c-27.418-5.244-55.631-4.484-82.759,2.083c-2.445,12.579-3.769,25.556-3.769,38.833c0,13.18,1.306,26.059,3.716,38.541
		c27.11,6.577,55.305,7.345,82.714,2.11c1.527,4.387,3.31,8.642,5.297,12.791c-23.093,15.678-42.496,36.149-57.026,59.966
		c14.566,21.548,33.156,40.165,54.687,54.758c23.808-14.521,44.27-33.907,59.948-56.982c4.184,2.022,8.483,3.822,12.915,5.376
		c-5.235,27.419-4.476,55.623,2.101,82.741c12.526,2.428,25.45,3.734,38.682,3.734s26.156-1.306,38.691-3.734
		c6.568-27.118,7.336-55.322,2.092-82.741c4.387-1.536,8.642-3.31,12.791-5.314c15.669,23.084,36.14,42.487,59.957,57.009
		c21.539-14.583,40.139-33.183,54.722-54.722c-14.53-23.808-33.924-44.288-57.009-59.957c2.022-4.184,3.814-8.492,5.358-12.924
		c27.41,5.235,55.605,4.467,82.714-2.11c2.41-12.482,3.716-25.362,3.716-38.541c0-13.277-1.315-26.253-3.769-38.833
		C428.144,210.595,399.931,209.836,372.504,215.08"/>
	<g>
		<path style="fill:#535353;" d="M282.483,317.793c0,14.627-11.855,26.483-26.483,26.483c-14.627,0-26.483-11.855-26.483-26.483
			c0-14.627,11.855-26.483,26.483-26.483C270.627,291.31,282.483,303.166,282.483,317.793"/>
		<path style="fill:#535353;" d="M344.276,256c0,14.627-11.855,26.483-26.483,26.483S291.31,270.627,291.31,256
			c0-14.627,11.855-26.483,26.483-26.483S344.276,241.373,344.276,256"/>
		<path style="fill:#535353;" d="M282.483,194.207c0,14.627-11.855,26.483-26.483,26.483c-14.627,0-26.483-11.855-26.483-26.483
			s11.855-26.483,26.483-26.483C270.627,167.724,282.483,179.58,282.483,194.207"/>
		<path style="fill:#535353;" d="M220.69,256c0,14.627-11.855,26.483-26.483,26.483S167.724,270.627,167.724,256
			c0-14.627,11.855-26.483,26.483-26.483S220.69,241.373,220.69,256"/>
	</g>
</g>
<g>
</g>
<g>
</g>
<g>
</g>
<g>
</g>
<g>
</g>
<g>
</g>
<g>
</g>
<g>
</g>
<g>
</g>
<g>
</g>
<g>
</g>
<g>
</g>
<g>
</g>
<g>
</g>
<g>
</g>
</svg>
