<?xml version="1.0" encoding="iso-8859-1"?>
<!-- Generator: Adobe Illustrator 19.0.0, SVG Export Plug-In . SVG Version: 6.00 Build 0)  -->
<svg version="1.1" id="Layer_1" xmlns="http://www.w3.org/2000/svg" xmlns:xlink="http://www.w3.org/1999/xlink" x="0px" y="0px"
	 viewBox="0 0 512 512" style="enable-background:new 0 0 512 512;" xml:space="preserve">
<g>
	<path style="fill:#A4A4A4;" d="M512,256c0,141.383-114.617,256-256,256S0,397.383,0,256S114.617,0,256,0S512,114.617,512,256"/>
	<g>
		<path style="fill:#535353;" d="M282.483,317.793c0,14.627-11.855,26.483-26.483,26.483c-14.627,0-26.483-11.855-26.483-26.483
			c0-14.627,11.855-26.483,26.483-26.483C270.627,291.31,282.483,303.166,282.483,317.793"/>
		<path style="fill:#535353;" d="M344.276,256c0,14.627-11.855,26.483-26.483,26.483S291.31,270.627,291.31,256
			c0-14.627,11.855-26.483,26.483-26.483S344.276,241.373,344.276,256"/>
		<path style="fill:#535353;" d="M282.483,194.207c0,14.627-11.855,26.483-26.483,26.483c-14.627,0-26.483-11.855-26.483-26.483
			s11.855-26.483,26.483-26.483C270.627,167.724,282.483,179.58,282.483,194.207"/>
		<path style="fill:#535353;" d="M220.69,256c0,14.627-11.855,26.483-26.483,26.483S167.724,270.627,167.724,256
			c0-14.627,11.855-26.483,26.483-26.483S220.69,241.373,220.69,256"/>
		<path style="fill:#535353;" d="M113.268,229.517h22.06c10.266-46.98,47.21-83.924,94.19-94.19v-22.06
			c0-25.521-5.279-50.67-15.36-73.922C125.971,56.338,56.339,125.97,39.337,214.157C62.597,224.238,87.747,229.517,113.268,229.517"
			/>
		<path style="fill:#535353;" d="M282.483,113.268v22.06c46.972,10.266,83.924,47.21,94.19,94.19h22.06
			c25.521,0,50.67-5.279,73.922-15.369C455.662,125.971,386.03,56.339,297.843,39.337
			C287.762,62.597,282.483,87.747,282.483,113.268"/>
		<path style="fill:#535353;" d="M229.517,398.732v-22.06c-46.972-10.266-83.924-47.21-94.19-94.19h-22.06
			c-25.521,0-50.67,5.279-73.922,15.36c16.993,88.188,86.625,157.82,174.813,174.822
			C224.238,449.403,229.517,424.253,229.517,398.732"/>
		<path style="fill:#535353;" d="M398.732,282.483h-22.06c-10.266,46.98-47.21,83.924-94.19,94.19v22.06
			c0,25.521,5.279,50.67,15.36,73.922c88.188-16.993,157.82-86.625,174.822-174.813
			C449.403,287.762,424.253,282.483,398.732,282.483"/>
	</g>
</g>
<g>
</g>
<g>
</g>
<g>
</g>
<g>
</g>
<g>
</g>
<g>
</g>
<g>
</g>
<g>
</g>
<g>
</g>
<g>
</g>
<g>
</g>
<g>
</g>
<g>
</g>
<g>
</g>
<g>
</g>
</svg>
