<?xml version="1.0" encoding="iso-8859-1"?>
<!-- Generator: Adobe Illustrator 19.0.0, SVG Export Plug-In . SVG Version: 6.00 Build 0)  -->
<svg version="1.1" id="Layer_1" xmlns="http://www.w3.org/2000/svg" xmlns:xlink="http://www.w3.org/1999/xlink" x="0px" y="0px"
	 viewBox="0 0 512 512" style="enable-background:new 0 0 512 512;" xml:space="preserve">
<g>
	<path style="fill:#535353;" d="M256,459.034c-111.951,0-203.034-91.083-203.034-203.034S144.049,52.966,256,52.966
		S459.034,144.049,459.034,256S367.951,459.034,256,459.034 M256,0C114.617,0,0,114.617,0,256s114.617,256,256,256
		s256-114.617,256-256S397.383,0,256,0"/>
	<path style="fill:#A4A4A4;" d="M374.742,222.017c-2.613-9.137-6.197-17.858-10.726-25.997l23.067-46.133l37.155-7.433
		c-14.574-21.522-33.165-40.121-54.696-54.687l-7.424,37.146l-46.133,23.066c-8.139-4.529-16.861-8.113-26.006-10.726
		l-16.322-48.975l21.045-31.567c-12.535-2.428-25.468-3.743-38.7-3.743c-13.233,0-26.165,1.315-38.7,3.743l21.045,31.567
		l-16.331,48.975c-9.137,2.613-17.858,6.197-25.997,10.726l-46.133-23.066l-7.433-37.146
		c-21.522,14.566-40.113,33.165-54.687,54.687l37.155,7.433l23.066,46.133c-4.537,8.139-8.121,16.861-10.726,25.997l-48.984,16.331
		L56.71,217.303c-2.428,12.535-3.743,25.459-3.743,38.7c0,13.233,1.315,26.156,3.743,38.7l31.567-21.045l48.984,16.322
		c2.604,9.145,6.188,17.858,10.726,26.006l-23.066,46.124l-37.155,7.433c14.574,21.53,33.165,40.121,54.687,54.696l7.433-37.155
		l46.133-23.066c8.139,4.529,16.861,8.113,25.997,10.726l16.331,48.984l-21.045,31.567c12.535,2.428,25.468,3.743,38.7,3.743
		c13.233,0,26.165-1.315,38.7-3.743l-21.045-31.567l16.322-48.984c9.145-2.613,17.867-6.197,26.006-10.726l46.133,23.066
		l7.424,37.155c21.53-14.574,40.121-33.165,54.696-54.696l-37.155-7.433l-23.067-46.124c4.529-8.148,8.113-16.861,10.726-26.006
		l48.984-16.322l31.567,21.045c2.428-12.544,3.743-25.468,3.743-38.7c0-13.241-1.315-26.165-3.743-38.7l-31.567,21.045
		L374.742,222.017z"/>
	<g>
		<path style="fill:#535353;" d="M282.483,317.793c0,14.627-11.855,26.483-26.483,26.483c-14.627,0-26.483-11.855-26.483-26.483
			c0-14.627,11.855-26.483,26.483-26.483C270.627,291.31,282.483,303.166,282.483,317.793"/>
		<path style="fill:#535353;" d="M344.276,256c0,14.627-11.855,26.483-26.483,26.483S291.31,270.627,291.31,256
			c0-14.627,11.855-26.483,26.483-26.483S344.276,241.373,344.276,256"/>
		<path style="fill:#535353;" d="M282.483,194.207c0,14.627-11.855,26.483-26.483,26.483c-14.627,0-26.483-11.855-26.483-26.483
			s11.855-26.483,26.483-26.483C270.627,167.724,282.483,179.58,282.483,194.207"/>
		<path style="fill:#535353;" d="M220.69,256c0,14.627-11.855,26.483-26.483,26.483S167.724,270.627,167.724,256
			c0-14.627,11.855-26.483,26.483-26.483S220.69,241.373,220.69,256"/>
	</g>
</g>
<g>
</g>
<g>
</g>
<g>
</g>
<g>
</g>
<g>
</g>
<g>
</g>
<g>
</g>
<g>
</g>
<g>
</g>
<g>
</g>
<g>
</g>
<g>
</g>
<g>
</g>
<g>
</g>
<g>
</g>
</svg>
