<?xml version="1.0" encoding="iso-8859-1"?>
<!-- Generator: Adobe Illustrator 19.0.0, SVG Export Plug-In . SVG Version: 6.00 Build 0)  -->
<svg version="1.1" id="Layer_1" xmlns="http://www.w3.org/2000/svg" xmlns:xlink="http://www.w3.org/1999/xlink" x="0px" y="0px"
	 viewBox="0 0 512 512" style="enable-background:new 0 0 512 512;" xml:space="preserve">
<g>
	<path style="fill:#A4A4A4;" d="M512,256c0,141.383-114.617,256-256,256S0,397.383,0,256S114.617,0,256,0S512,114.617,512,256"/>
	<g>
		<path style="fill:#535353;" d="M282.483,317.793c0,14.627-11.855,26.483-26.483,26.483c-14.627,0-26.483-11.855-26.483-26.483
			c0-14.627,11.855-26.483,26.483-26.483C270.627,291.31,282.483,303.166,282.483,317.793"/>
		<path style="fill:#535353;" d="M344.276,256c0,14.627-11.855,26.483-26.483,26.483S291.31,270.627,291.31,256
			c0-14.627,11.855-26.483,26.483-26.483S344.276,241.373,344.276,256"/>
		<path style="fill:#535353;" d="M282.483,194.207c0,14.627-11.855,26.483-26.483,26.483c-14.627,0-26.483-11.855-26.483-26.483
			s11.855-26.483,26.483-26.483C270.627,167.724,282.483,179.58,282.483,194.207"/>
		<path style="fill:#535353;" d="M220.69,256c0,14.627-11.855,26.483-26.483,26.483S167.724,270.627,167.724,256
			c0-14.627,11.855-26.483,26.483-26.483S220.69,241.373,220.69,256"/>
		<path style="fill:#535353;" d="M229.517,111.09V78.516c0-22.828-22.449-38.894-44.076-31.576
			c-9.649,3.266-19.006,7.186-28.01,11.697c-20.127,10.099-24.108,37.235-8.174,53.169l23.005,23.005
			c9.551,9.551,23.879,12.314,36.343,7.115c0.141-0.062,0.274-0.115,0.406-0.168C221.431,136.628,229.517,124.525,229.517,111.09"/>
		<path style="fill:#535353;" d="M141.755,209.012c0.053-0.132,0.115-0.265,0.168-0.406c5.199-12.456,2.436-26.792-7.115-36.343
			l-23.005-23.005c-15.925-15.934-43.07-11.953-53.169,8.174c-4.511,9.004-8.43,18.361-11.697,28.01
			c-7.309,21.628,8.748,44.076,31.576,44.076h32.574C124.524,229.518,136.626,221.432,141.755,209.012"/>
		<path style="fill:#535353;" d="M141.922,303.391c-0.053-0.132-0.115-0.265-0.168-0.406c-5.129-12.412-17.231-20.498-30.667-20.498
			H78.513c-22.828,0-38.886,22.449-31.576,44.067c3.266,9.657,7.186,19.006,11.697,28.01c10.099,20.136,37.244,24.108,53.169,8.183
			l23.005-23.005C144.358,330.191,147.121,315.855,141.922,303.391"/>
		<path style="fill:#535353;" d="M354.564,58.637c-9.004-4.511-18.353-8.43-28.01-11.697c-21.619-7.318-44.076,8.748-44.076,31.576
			v32.574c0,13.436,8.095,25.529,20.507,30.667c0.141,0.053,0.274,0.106,0.406,0.168c12.465,5.199,26.801,2.428,36.352-7.115
			l23.005-23.005C378.673,95.872,374.7,68.736,354.564,58.637"/>
		<path style="fill:#535353;" d="M370.078,208.609c0.053,0.132,0.115,0.265,0.168,0.406c5.129,12.412,17.231,20.506,30.667,20.506
			h32.574c22.828,0,38.885-22.457,31.576-44.076c-3.266-9.657-7.186-19.006-11.697-28.01c-10.099-20.136-37.244-24.108-53.169-8.183
			l-23.005,23.005C367.642,181.809,364.879,196.145,370.078,208.609"/>
		<path style="fill:#535353;" d="M209.011,370.245c-0.132-0.053-0.265-0.115-0.406-0.168c-12.465-5.199-26.792-2.436-36.343,7.115
			l-23.005,23.005c-15.934,15.925-11.953,43.07,8.174,53.169c9.004,4.511,18.361,8.43,28.01,11.697
			c21.628,7.309,44.076-8.748,44.076-31.576v-32.574C229.517,387.476,221.431,375.374,209.011,370.245"/>
		<path style="fill:#535353;" d="M370.245,302.988c-0.053,0.132-0.115,0.265-0.168,0.406c-5.199,12.456-2.436,26.792,7.115,36.343
			l23.005,23.005c15.925,15.934,43.07,11.953,53.169-8.183c4.511-8.995,8.43-18.353,11.697-28.001
			c7.309-21.628-8.748-44.076-31.576-44.076h-32.574C387.476,282.482,375.374,290.568,370.245,302.988"/>
		<path style="fill:#535353;" d="M303.392,370.078c-0.132,0.053-0.265,0.115-0.406,0.168c-12.412,5.129-20.507,17.231-20.507,30.667
			v32.574c0,22.828,22.457,38.885,44.076,31.576c9.657-3.266,19.006-7.186,28.01-11.697c20.136-10.099,24.108-37.244,8.183-53.169
			l-23.005-23.005C330.192,367.642,315.856,364.879,303.392,370.078"/>
	</g>
</g>
<g>
</g>
<g>
</g>
<g>
</g>
<g>
</g>
<g>
</g>
<g>
</g>
<g>
</g>
<g>
</g>
<g>
</g>
<g>
</g>
<g>
</g>
<g>
</g>
<g>
</g>
<g>
</g>
<g>
</g>
</svg>
