<?xml version="1.0" encoding="iso-8859-1"?>
<!-- Generator: Adobe Illustrator 19.0.0, SVG Export Plug-In . SVG Version: 6.00 Build 0)  -->
<svg version="1.1" id="Layer_1" xmlns="http://www.w3.org/2000/svg" xmlns:xlink="http://www.w3.org/1999/xlink" x="0px" y="0px"
	 viewBox="0 0 512 512" style="enable-background:new 0 0 512 512;" xml:space="preserve">
<g>
	<path style="fill:#A4A4A4;" d="M512,256c0,141.383-114.617,256-256,256S0,397.383,0,256S114.617,0,256,0S512,114.617,512,256"/>
	<path style="fill:#535353;" d="M379.586,256c0,68.255-55.331,123.586-123.586,123.586S132.414,324.255,132.414,256
		S187.745,132.414,256,132.414S379.586,187.745,379.586,256"/>
	<g>
		<path style="fill:#A4A4A4;" d="M264.828,203.034h-17.655c-4.873,0-8.828-3.955-8.828-8.828v-17.655
			c0-4.873,3.955-8.828,8.828-8.828h17.655c4.873,0,8.828,3.955,8.828,8.828v17.655C273.655,199.08,269.7,203.034,264.828,203.034"
			/>
		<path style="fill:#A4A4A4;" d="M264.828,344.276h-17.655c-4.873,0-8.828-3.955-8.828-8.828v-17.655
			c0-4.873,3.955-8.828,8.828-8.828h17.655c4.873,0,8.828,3.955,8.828,8.828v17.655C273.655,340.321,269.7,344.276,264.828,344.276"
			/>
		<path style="fill:#A4A4A4;" d="M335.448,273.655h-17.655c-4.873,0-8.828-3.955-8.828-8.828v-17.655
			c0-4.873,3.955-8.828,8.828-8.828h17.655c4.873,0,8.828,3.955,8.828,8.828v17.655C344.276,269.7,340.321,273.655,335.448,273.655"
			/>
		<path style="fill:#A4A4A4;" d="M194.207,273.655h-17.655c-4.873,0-8.828-3.955-8.828-8.828v-17.655
			c0-4.873,3.955-8.828,8.828-8.828h17.655c4.873,0,8.828,3.955,8.828,8.828v17.655C203.034,269.7,199.08,273.655,194.207,273.655"
			/>
	</g>
	<g>
		<path style="fill:#535353;" d="M159.238,18.98c-8.395,3.425-16.578,7.256-24.497,11.529c1.474,2.816,4.334,4.802,7.742,4.802
			c55.764,0,104.686,45.383,104.686,97.103c0,4.882,3.955,8.828,8.828,8.828c4.882,0,8.828-3.946,8.828-8.828
			C264.825,76.598,217.129,27.181,159.238,18.98"/>
		<path style="fill:#535353;" d="M493.02,159.239c-3.434-8.395-7.256-16.578-11.529-24.497c-2.816,1.474-4.802,4.334-4.802,7.742
			c0,55.764-45.383,104.686-97.103,104.686c-4.882,0-8.828,3.955-8.828,8.828c0,4.882,3.946,8.828,8.828,8.828
			C435.402,264.826,484.819,217.13,493.02,159.239"/>
		<path style="fill:#535353;" d="M369.517,476.69c-55.764,0-104.686-45.383-104.686-97.103c0-4.882-3.955-8.828-8.828-8.828
			c-4.882,0-8.828,3.946-8.828,8.828c0,55.817,47.695,105.234,105.587,113.434c8.386-3.434,16.578-7.256,24.497-11.529
			C375.785,478.676,372.925,476.69,369.517,476.69"/>
		<path style="fill:#535353;" d="M132.414,247.172c-55.817,0-105.234,47.695-113.434,105.587
			c3.434,8.395,7.256,16.578,11.529,24.497c2.816-1.474,4.802-4.334,4.802-7.742c0-55.764,45.383-104.686,97.103-104.686
			c4.882,0,8.828-3.946,8.828-8.828S137.295,247.172,132.414,247.172"/>
		<path style="fill:#535353;" d="M380.877,32.538c-0.75,1.298-1.289,2.719-1.289,4.326V70.62h-26.483
			c-4.882,0-8.828,3.946-8.828,8.828v26.483h-17.655c-4.882,0-8.828,3.946-8.828,8.828c0,4.882,3.946,8.828,8.828,8.828h26.483
			c4.873,0,8.828-3.946,8.828-8.828V88.275h26.483c4.873,0,8.828-3.946,8.828-8.828V42.513
			C391.92,38.982,386.465,35.663,380.877,32.538"/>
	</g>
</g>
<g>
</g>
<g>
</g>
<g>
</g>
<g>
</g>
<g>
</g>
<g>
</g>
<g>
</g>
<g>
</g>
<g>
</g>
<g>
</g>
<g>
</g>
<g>
</g>
<g>
</g>
<g>
</g>
<g>
</g>
</svg>
