<?xml version="1.0" encoding="iso-8859-1"?>
<!-- Generator: Adobe Illustrator 19.0.0, SVG Export Plug-In . SVG Version: 6.00 Build 0)  -->
<svg version="1.1" id="Layer_1" xmlns="http://www.w3.org/2000/svg" xmlns:xlink="http://www.w3.org/1999/xlink" x="0px" y="0px"
	 viewBox="0 0 512.002 512.002" style="enable-background:new 0 0 512.002 512.002;" xml:space="preserve">
<g>
	<g>
		<path style="fill:#FC5923;" d="M443.11,205.721c-2.26,0-4.52-0.865-6.241-2.586c-3.452-3.452-3.452-9.031,0-12.482l60.063-60.063
			c3.452-3.452,9.039-3.452,12.482,0c3.452,3.443,3.452,9.031,0,12.482l-60.063,60.063
			C447.629,204.856,445.369,205.721,443.11,205.721"/>
		<path style="fill:#FC5923;" d="M167.726,339.863c0,24.373-19.765,44.138-44.138,44.138S79.45,364.236,79.45,339.863
			c0-24.373,19.765-44.138,44.138-44.138S167.726,315.49,167.726,339.863"/>
		<path style="fill:#FC5923;" d="M450.209,339.863c0,24.373-19.765,44.138-44.138,44.138c-24.373,0-44.138-19.765-44.138-44.138
			c0-24.373,19.765-44.138,44.138-44.138C430.444,295.725,450.209,315.49,450.209,339.863"/>
	</g>
	<path style="fill:#FECA09;" d="M478.95,207.521c-24.108-1.518-46.53-12.712-59.065-33.359l-2.401-3.972
		c-12.57-20.71-35.037-33.359-59.26-33.359H242.988c-19.8,0-38.647,8.466-51.8,23.261l-12.2,13.718
		c-24.329,27.374-57.785,44.977-94.129,49.514l-53.928,6.744C13.259,232.274,0,247.298,0,265.103v39.45
		c0,19.5,15.81,35.31,35.31,35.31h44.138c0-24.373,19.765-44.138,44.138-44.138c24.382,0,44.138,19.765,44.138,44.138h194.207
		c0-24.373,19.765-44.138,44.138-44.138c24.382,0,44.138,19.765,44.138,44.138h26.483c19.5,0,35.31-15.81,35.31-35.31v-61.793
		C512,224.02,497.399,208.686,478.95,207.521"/>
</g>
<g>
</g>
<g>
</g>
<g>
</g>
<g>
</g>
<g>
</g>
<g>
</g>
<g>
</g>
<g>
</g>
<g>
</g>
<g>
</g>
<g>
</g>
<g>
</g>
<g>
</g>
<g>
</g>
<g>
</g>
</svg>
