<?xml version="1.0" encoding="iso-8859-1"?>
<!-- Generator: Adobe Illustrator 19.0.0, SVG Export Plug-In . SVG Version: 6.00 Build 0)  -->
<svg version="1.1" id="Layer_1" xmlns="http://www.w3.org/2000/svg" xmlns:xlink="http://www.w3.org/1999/xlink" x="0px" y="0px"
	 viewBox="0 0 512 512" style="enable-background:new 0 0 512 512;" xml:space="preserve">
<g>
	<path style="fill:#C6421E;" d="M498.455,197.52L392.714,303.261c-18.059,18.068-47.347,18.068-65.406,0l-53.005-52.996
		c-18.059-18.068-18.059-47.347,0-65.406l105.75-105.741c18.059-18.059,47.338-18.059,65.397,0l53.005,53.005
		C516.514,150.182,516.514,179.461,498.455,197.52"/>
	<path style="fill:#992C13;" d="M452.948,177.101l-7.871,7.871c-6.934,6.934-18.163,6.934-25.088,0l-27.657-27.648
		c-6.925-6.925-6.925-18.163,0-25.088l7.871-7.88c6.934-6.925,18.163-6.925,25.097,0l27.648,27.657
		C459.873,158.938,459.873,170.176,452.948,177.101"/>
	<path style="fill:#CDD1D3;" d="M221.47,320.396l6.595,32.959l-32.968-6.587l-50.54,50.54l4.391,21.973l-21.973-4.391l-4.165,4.165
		c-17.408,17.408-29.757,39.216-35.719,63.089c-1.84,7.359,4.825,14.032,12.184,12.193c23.882-5.97,45.681-18.319,63.089-35.727
		l37.133-37.124l-4.4-21.981l21.981,4.4L320.451,296.41l-39.554-39.554L221.47,320.396z"/>
	<g>
		<path style="fill:#25AD87;" d="M8.678,303.727c-4.799,0-8.678-3.879-8.678-8.678C0,139.331,118.168,17.354,269.017,17.354
			c4.799,0,8.678,3.879,8.678,8.678s-3.879,8.678-8.678,8.678c-141.121,0-251.661,114.358-251.661,260.339
			C17.356,299.848,13.477,303.727,8.678,303.727"/>
		<path style="fill:#25AD87;" d="M52.068,303.727c-4.799,0-8.678-3.879-8.678-8.678c0-131.393,99.111-234.305,225.627-234.305
			c4.799,0,8.678,3.879,8.678,8.678c0,4.799-3.879,8.678-8.678,8.678c-116.788,0-208.271,95.293-208.271,216.949
			C60.746,299.848,56.867,303.727,52.068,303.727"/>
		<path style="fill:#25AD87;" d="M95.458,303.727c-4.799,0-8.678-3.879-8.678-8.678c0-105.272,81.755-190.915,182.237-190.915
			c4.799,0,8.678,3.879,8.678,8.678s-3.879,8.678-8.678,8.678c-90.919,0-164.881,77.859-164.881,173.559
			C104.136,299.848,100.257,303.727,95.458,303.727"/>
	</g>
</g>
<g>
</g>
<g>
</g>
<g>
</g>
<g>
</g>
<g>
</g>
<g>
</g>
<g>
</g>
<g>
</g>
<g>
</g>
<g>
</g>
<g>
</g>
<g>
</g>
<g>
</g>
<g>
</g>
<g>
</g>
</svg>
