<?xml version="1.0" encoding="iso-8859-1"?>
<!-- Generator: Adobe Illustrator 19.0.0, SVG Export Plug-In . SVG Version: 6.00 Build 0)  -->
<svg version="1.1" id="Layer_1" xmlns="http://www.w3.org/2000/svg" xmlns:xlink="http://www.w3.org/1999/xlink" x="0px" y="0px"
	 viewBox="0 0 512 512" style="enable-background:new 0 0 512 512;" xml:space="preserve">
<g>
	<path style="fill:#4897F7;" d="M478.95,203.106c-24.108-1.518-46.53-12.712-59.065-33.359l-2.401-3.972
		c-12.57-20.71-35.037-33.359-59.26-33.359H242.988c-19.8,0-38.647,8.466-51.8,23.261l-12.2,13.718
		c-24.329,27.374-57.785,44.977-94.129,49.514l-53.928,6.744C13.259,227.858,0,242.883,0,260.688v39.45
		c0,19.5,15.81,35.31,35.31,35.31h44.138c0-24.373,19.765-44.138,44.138-44.138c24.382,0,44.138,19.765,44.138,44.138h194.207
		c0-24.373,19.765-44.138,44.138-44.138c24.382,0,44.138,19.765,44.138,44.138h26.483c19.5,0,35.31-15.81,35.31-35.31v-61.793
		C512,219.604,497.399,204.271,478.95,203.106"/>
	<g>
		<path style="fill:#C6421E;" d="M326.622,282.482h-79.448c-19.474,0-35.31-15.837-35.31-35.31s15.837-35.31,35.31-35.31h97.103
			c4.873,0,8.828,3.955,8.828,8.828c0,4.873-3.955,8.828-8.828,8.828h-97.103c-9.737,0-17.655,7.918-17.655,17.655
			s7.918,17.655,17.655,17.655h79.448c4.873,0,8.828,3.955,8.828,8.828C335.45,278.528,331.495,282.482,326.622,282.482"/>
		<path style="fill:#C6421E;" d="M308.967,300.137c-2.26,0-4.52-0.865-6.241-2.586c-3.452-3.452-3.452-9.031,0-12.482l11.414-11.414
			l-11.414-11.414c-3.452-3.452-3.452-9.031,0-12.482c3.452-3.452,9.031-3.452,12.482,0l17.655,17.655
			c3.452,3.452,3.452,9.031,0,12.482l-17.655,17.655C313.487,299.272,311.227,300.137,308.967,300.137"/>
	</g>
	<g>
		<path style="fill:#397ABC;" d="M167.726,335.448c0,24.373-19.765,44.138-44.138,44.138S79.45,359.821,79.45,335.448
			s19.765-44.138,44.138-44.138S167.726,311.075,167.726,335.448"/>
		<path style="fill:#397ABC;" d="M450.209,335.448c0,24.373-19.765,44.138-44.138,44.138c-24.373,0-44.138-19.765-44.138-44.138
			s19.765-44.138,44.138-44.138C430.444,291.31,450.209,311.075,450.209,335.448"/>
	</g>
</g>
<g>
</g>
<g>
</g>
<g>
</g>
<g>
</g>
<g>
</g>
<g>
</g>
<g>
</g>
<g>
</g>
<g>
</g>
<g>
</g>
<g>
</g>
<g>
</g>
<g>
</g>
<g>
</g>
<g>
</g>
</svg>
