<?xml version="1.0" encoding="iso-8859-1"?>
<!-- Generator: Adobe Illustrator 19.0.0, SVG Export Plug-In . SVG Version: 6.00 Build 0)  -->
<svg version="1.1" id="Layer_1" xmlns="http://www.w3.org/2000/svg" xmlns:xlink="http://www.w3.org/1999/xlink" x="0px" y="0px"
	 viewBox="0 0 512 512" style="enable-background:new 0 0 512 512;" xml:space="preserve">
<g>
	<g>
		<path style="fill:#A4A4A4;" d="M108.475,512c-4.799,0-8.678-3.879-8.678-8.678v-43.39c0-4.799,3.879-8.678,8.678-8.678
			s8.678,3.879,8.678,8.678v43.39C117.153,508.121,113.273,512,108.475,512"/>
		<path style="fill:#A4A4A4;" d="M177.898,512c-4.799,0-8.678-3.879-8.678-8.678v-43.39c0-4.799,3.879-8.678,8.678-8.678
			c4.799,0,8.678,3.879,8.678,8.678v43.39C186.576,508.121,182.697,512,177.898,512"/>
	</g>
	<polygon style="fill:#535353;" points="73.758,459.932 212.606,459.932 212.606,373.153 73.758,373.153 	"/>
	<polygon style="fill:#A4A4A4;" points="238.644,338.441 238.644,312.407 47.729,312.407 47.729,338.441 13.017,338.441 
		13.017,373.153 273.356,373.153 273.356,338.441 	"/>
	<polygon style="fill:#535353;" points="73.758,312.407 212.606,312.407 212.606,260.339 73.758,260.339 	"/>
	<polygon style="fill:#FEC44C;" points="91.114,260.339 195.25,260.339 195.25,69.424 91.114,69.424 	"/>
	<path style="fill:#B68D38;" d="M195.254,69.424c0-19.187-7.767-34.712-17.356-34.712h-17.33l-0.026-26.06
		c0-4.782-3.879-8.652-8.652-8.652h-17.399c-4.782,0-8.661,3.879-8.661,8.661v26.051h-17.356c-9.589,0-17.356,15.525-17.356,34.712"
		/>
	<path style="fill:#FEC44C;" d="M498.983,190.915c0-56.32-48.77-101.237-106.375-94.85c-43.503,4.825-78.909,40.101-83.89,83.586
		c-3.107,27.067,5.146,52.172,20.584,71.22c14.145,17.46,22.155,39.068,22.155,61.535h104.136v-0.009
		c0-22.172,7.506-43.763,21.625-60.867C490.808,235.051,498.983,213.947,498.983,190.915"/>
	<g>
		<path style="fill:#B68D38;" d="M403.525,321.085c-4.799,0-8.678-3.879-8.678-8.678V156.203c0-4.799,3.879-8.678,8.678-8.678
			s8.678,3.879,8.678,8.678v156.203C412.203,317.206,408.324,321.085,403.525,321.085"/>
		<path style="fill:#B68D38;" d="M455.593,164.881H351.458c-4.799,0-8.678-3.879-8.678-8.678c0-4.799,3.879-8.678,8.678-8.678
			h104.136c4.799,0,8.678,3.879,8.678,8.678C464.271,161.002,460.392,164.881,455.593,164.881"/>
		<path style="fill:#B68D38;" d="M446.915,199.593h-86.78c-4.799,0-8.678-3.879-8.678-8.678c0-4.799,3.879-8.678,8.678-8.678h86.78
			c4.799,0,8.678,3.879,8.678,8.678C455.593,195.714,451.714,199.593,446.915,199.593"/>
		<path style="fill:#B68D38;" d="M429.559,234.305h-52.068c-4.799,0-8.678-3.879-8.678-8.678c0-4.799,3.879-8.678,8.678-8.678
			h52.068c4.799,0,8.678,3.879,8.678,8.678C438.237,230.426,434.358,234.305,429.559,234.305"/>
	</g>
	<polygon style="fill:#A4A4A4;" points="351.453,433.898 455.589,433.898 455.589,312.407 351.453,312.407 	"/>
	<path style="fill:#535353;" d="M351.458,433.898c7.159,20.211,29.41,34.712,52.068,34.712s44.908-14.501,52.068-34.712H351.458z"/>
</g>
<g>
</g>
<g>
</g>
<g>
</g>
<g>
</g>
<g>
</g>
<g>
</g>
<g>
</g>
<g>
</g>
<g>
</g>
<g>
</g>
<g>
</g>
<g>
</g>
<g>
</g>
<g>
</g>
<g>
</g>
</svg>
