<?xml version="1.0" encoding="iso-8859-1"?>
<!-- Generator: Adobe Illustrator 19.0.0, SVG Export Plug-In . SVG Version: 6.00 Build 0)  -->
<svg version="1.1" id="Layer_1" xmlns="http://www.w3.org/2000/svg" xmlns:xlink="http://www.w3.org/1999/xlink" x="0px" y="0px"
	 viewBox="0 0 512 512" style="enable-background:new 0 0 512 512;" xml:space="preserve">
<g>
	<g>
		<path style="fill:#992C13;" d="M135.771,229.484c-2.207,0-4.423-0.821-6.135-2.481L29.178,129.935
			c-3.505-3.39-3.602-8.978-0.221-12.482c3.39-3.513,8.978-3.602,12.482-0.212l100.467,97.068c3.505,3.39,3.602,8.978,0.212,12.482
			C140.388,228.584,138.084,229.484,135.771,229.484"/>
		<path style="fill:#992C13;" d="M167.723,353.105c0,24.373-19.765,44.138-44.138,44.138s-44.138-19.765-44.138-44.138
			c0-24.373,19.765-44.138,44.138-44.138S167.723,328.732,167.723,353.105"/>
		<path style="fill:#992C13;" d="M450.206,353.105c0,24.373-19.765,44.138-44.138,44.138s-44.138-19.765-44.138-44.138
			c0-24.373,19.765-44.138,44.138-44.138S450.206,328.732,450.206,353.105"/>
	</g>
	<path style="fill:#C6421E;" d="M220.69,150.07c-11.246,3.822-21.451,14.195-29.511,23.261l-12.191,13.718
		c-24.329,27.374-57.785,44.977-94.129,49.514l-53.928,6.744C13.259,245.514,0,260.539,0,278.344v39.45
		c0,19.5,15.81,35.31,35.31,35.31h44.138c0-24.373,19.756-44.138,44.138-44.138c24.373,0,44.138,19.765,44.138,44.138h194.207
		c0-24.373,19.756-44.138,44.138-44.138c24.373,0,44.138,19.765,44.138,44.138h26.483c19.5,0,35.31-15.81,35.31-35.31v-61.793
		c0-18.741-14.601-34.074-33.05-35.24c-24.108-1.518-46.539-12.712-59.065-33.359l-2.41-3.972
		c-11.917-19.65-32.75-32.044-55.543-33.262L220.69,150.07z"/>
</g>
<g>
</g>
<g>
</g>
<g>
</g>
<g>
</g>
<g>
</g>
<g>
</g>
<g>
</g>
<g>
</g>
<g>
</g>
<g>
</g>
<g>
</g>
<g>
</g>
<g>
</g>
<g>
</g>
<g>
</g>
</svg>
