<?xml version="1.0" encoding="iso-8859-1"?>
<!-- Generator: Adobe Illustrator 19.0.0, SVG Export Plug-In . SVG Version: 6.00 Build 0)  -->
<svg version="1.1" id="Layer_1" xmlns="http://www.w3.org/2000/svg" xmlns:xlink="http://www.w3.org/1999/xlink" x="0px" y="0px"
	 viewBox="0 0 512 512" style="enable-background:new 0 0 512 512;" xml:space="preserve">
<g>
	<g>
		<path style="fill:#992C13;" d="M167.726,361.931c0,24.373-19.765,44.138-44.138,44.138S79.45,386.304,79.45,361.931
			c0-24.373,19.765-44.138,44.138-44.138S167.726,337.558,167.726,361.931"/>
		<path style="fill:#992C13;" d="M450.209,361.931c0,24.373-19.765,44.138-44.138,44.138c-24.373,0-44.138-19.765-44.138-44.138
			c0-24.373,19.765-44.138,44.138-44.138C430.444,317.793,450.209,337.558,450.209,361.931"/>
	</g>
	<path style="fill:#C6421E;" d="M478.95,229.589c-24.108-1.518-46.53-12.712-59.065-33.359l-2.401-3.972
		c-12.57-20.71-35.037-33.359-59.26-33.359H242.988c-19.8,0-38.647,8.466-51.8,23.261l-12.2,13.718
		c-24.329,27.374-57.785,44.977-94.129,49.514l-53.928,6.744C13.259,254.341,0,269.366,0,287.171v39.451
		c0,19.5,15.81,35.31,35.31,35.31h44.138c0-24.373,19.765-44.138,44.138-44.138c24.382,0,44.138,19.765,44.138,44.138h194.207
		c0-24.373,19.765-44.138,44.138-44.138c24.382,0,44.138,19.765,44.138,44.138h26.483c19.5,0,35.31-15.81,35.31-35.31v-61.793
		C512,246.088,497.399,230.754,478.95,229.589"/>
	<g>
		<path style="fill:#FECA09;" d="M273.657,256h-52.965C142.814,256,79.45,192.636,79.45,114.759c0-4.873,3.955-8.828,8.828-8.828
			s8.828,3.955,8.828,8.828c0,68.149,55.437,123.586,123.586,123.586h52.965c4.873,0,8.828,3.955,8.828,8.828
			C282.485,252.045,278.53,256,273.657,256"/>
		<path style="fill:#FECA09;" d="M238.347,291.31c-2.26,0-4.52-0.865-6.241-2.586c-3.452-3.452-3.452-9.031,0-12.482l29.069-29.069
			l-29.069-29.069c-3.452-3.452-3.452-9.031,0-12.482c3.452-3.452,9.031-3.452,12.482,0l35.31,35.31
			c3.452,3.452,3.452,9.031,0,12.482l-35.31,35.31C242.866,290.445,240.606,291.31,238.347,291.31"/>
	</g>
</g>
<g>
</g>
<g>
</g>
<g>
</g>
<g>
</g>
<g>
</g>
<g>
</g>
<g>
</g>
<g>
</g>
<g>
</g>
<g>
</g>
<g>
</g>
<g>
</g>
<g>
</g>
<g>
</g>
<g>
</g>
</svg>
