<?xml version="1.0" encoding="iso-8859-1"?>
<!-- Generator: Adobe Illustrator 19.0.0, SVG Export Plug-In . SVG Version: 6.00 Build 0)  -->
<svg version="1.1" id="Layer_1" xmlns="http://www.w3.org/2000/svg" xmlns:xlink="http://www.w3.org/1999/xlink" x="0px" y="0px"
	 viewBox="0 0 504.533 504.533" style="enable-background:new 0 0 504.533 504.533;" xml:space="preserve">
<g>
	<path style="fill:#4897F7;" d="M248.567,422.96C111.036,422.559,0,346.39,0,252.43C0,158.461,111.002,81.174,248.533,81.575l0,0
		c34.074,111.019,34.15,229.478,0.239,340.71L248.567,422.96z"/>
	<path style="fill:#4897F7;" d="M496,217.76H308.267c-4.71,0-8.533-3.823-8.533-8.533s3.823-8.533,8.533-8.533H496
		c4.71,0,8.533,3.823,8.533,8.533S500.71,217.76,496,217.76"/>
	<path style="fill:#4897F7;" d="M496,303.093H308.267c-4.71,0-8.533-3.823-8.533-8.533c0-4.71,3.823-8.533,8.533-8.533H496
		c4.71,0,8.533,3.823,8.533,8.533C504.533,299.27,500.71,303.093,496,303.093"/>
	<path style="fill:#4897F7;" d="M496,388.426H308.267c-4.71,0-8.533-3.823-8.533-8.533s3.823-8.533,8.533-8.533H496
		c4.71,0,8.533,3.823,8.533,8.533S500.71,388.426,496,388.426"/>
	<path style="fill:#4897F7;" d="M496,132.426H308.267c-4.71,0-8.533-3.823-8.533-8.533c0-4.71,3.823-8.533,8.533-8.533H496
		c4.71,0,8.533,3.823,8.533,8.533C504.533,128.603,500.71,132.426,496,132.426"/>
</g>
<g>
</g>
<g>
</g>
<g>
</g>
<g>
</g>
<g>
</g>
<g>
</g>
<g>
</g>
<g>
</g>
<g>
</g>
<g>
</g>
<g>
</g>
<g>
</g>
<g>
</g>
<g>
</g>
<g>
</g>
</svg>
