<?xml version="1.0" encoding="iso-8859-1"?>
<!-- Generator: Adobe Illustrator 19.0.0, SVG Export Plug-In . SVG Version: 6.00 Build 0)  -->
<svg version="1.1" id="Layer_1" xmlns="http://www.w3.org/2000/svg" xmlns:xlink="http://www.w3.org/1999/xlink" x="0px" y="0px"
	 viewBox="0 0 512 512" style="enable-background:new 0 0 512 512;" xml:space="preserve">
<g>
	<polygon style="fill:#8E8E8E;" points="512,300.139 441.379,300.139 441.379,247.174 70.621,247.174 70.621,300.139 0,300.139 
		0,370.76 70.621,370.76 70.621,423.726 441.379,423.726 441.379,370.76 512,370.76 	"/>
	<g>
		<path style="fill:#C6421E;" d="M353.103,220.691c-2.348,0-4.687-0.927-6.427-2.763c-3.337-3.558-3.178-9.145,0.362-12.491
			c3.866-3.637,14.892-16.764,14.892-28.884c0-6.135-3.054-12.332-5.738-17.814c-0.927-1.88-1.783-3.637-2.454-5.217
			c-0.115-0.282-0.221-0.556-0.309-0.839c-0.486-1.059-1.042-2.198-1.624-3.416c-3.187-6.497-7.53-15.413-7.53-25.679
			s4.343-19.165,7.521-25.662c0.759-1.545,1.457-2.975,2.013-4.273c1.907-4.484,7.115-6.585,11.573-4.67
			c4.484,1.907,6.585,7.089,4.67,11.573c-0.653,1.554-1.492,3.275-2.401,5.12c-2.675,5.5-5.72,11.732-5.72,17.911
			c0,6.188,3.046,12.429,5.729,17.938c0.909,1.845,1.739,3.566,2.392,5.111c0.124,0.282,0.221,0.556,0.309,0.839
			c0.494,1.077,1.068,2.242,1.677,3.487c3.187,6.479,7.548,15.351,7.548,25.591c0,22.219-19.597,40.951-20.418,41.737
			C357.455,219.897,355.275,220.691,353.103,220.691"/>
		<path style="fill:#C6421E;" d="M256,220.691c-2.348,0-4.687-0.927-6.426-2.763c-3.337-3.558-3.178-9.145,0.362-12.491
			c3.866-3.637,14.892-16.764,14.892-28.884c0-6.135-3.054-12.332-5.738-17.814c-0.927-1.88-1.783-3.637-2.454-5.217
			c-0.115-0.282-0.221-0.556-0.309-0.839c-0.486-1.059-1.042-2.198-1.624-3.416c-3.187-6.497-7.53-15.413-7.53-25.679
			s4.343-19.165,7.521-25.662c0.759-1.545,1.457-2.975,2.013-4.273c1.898-4.484,7.124-6.585,11.573-4.67
			c4.484,1.907,6.585,7.089,4.67,11.573c-0.653,1.554-1.492,3.275-2.401,5.12c-2.675,5.5-5.72,11.732-5.72,17.911
			c0,6.188,3.046,12.429,5.729,17.938c0.909,1.845,1.739,3.566,2.392,5.111c0.124,0.282,0.221,0.556,0.309,0.839
			c0.494,1.077,1.068,2.242,1.677,3.487c3.187,6.479,7.548,15.351,7.548,25.591c0,22.219-19.597,40.951-20.418,41.737
			C260.352,219.897,258.172,220.691,256,220.691"/>
		<path style="fill:#C6421E;" d="M158.897,220.691c-2.348,0-4.687-0.927-6.426-2.763c-3.337-3.558-3.178-9.145,0.362-12.491
			c3.866-3.637,14.892-16.764,14.892-28.884c0-6.135-3.054-12.332-5.738-17.814c-0.927-1.88-1.783-3.637-2.454-5.217
			c-0.115-0.282-0.221-0.556-0.309-0.839c-0.486-1.059-1.042-2.198-1.624-3.416c-3.187-6.497-7.53-15.413-7.53-25.679
			s4.343-19.165,7.521-25.662c0.759-1.545,1.457-2.975,2.013-4.273c1.898-4.484,7.133-6.585,11.573-4.67
			c4.484,1.907,6.585,7.089,4.67,11.573c-0.653,1.554-1.492,3.275-2.401,5.12c-2.675,5.5-5.72,11.732-5.72,17.911
			c0,6.188,3.046,12.429,5.729,17.938c0.909,1.845,1.739,3.566,2.392,5.111c0.124,0.282,0.221,0.556,0.309,0.839
			c0.494,1.077,1.068,2.242,1.677,3.487c3.187,6.479,7.548,15.351,7.548,25.591c0,22.219-19.597,40.951-20.418,41.737
			C163.249,219.897,161.068,220.691,158.897,220.691"/>
	</g>
</g>
<g>
</g>
<g>
</g>
<g>
</g>
<g>
</g>
<g>
</g>
<g>
</g>
<g>
</g>
<g>
</g>
<g>
</g>
<g>
</g>
<g>
</g>
<g>
</g>
<g>
</g>
<g>
</g>
<g>
</g>
</svg>
