<?xml version="1.0" encoding="iso-8859-1"?>
<!-- Generator: Adobe Illustrator 19.0.0, SVG Export Plug-In . SVG Version: 6.00 Build 0)  -->
<svg version="1.1" id="Layer_1" xmlns="http://www.w3.org/2000/svg" xmlns:xlink="http://www.w3.org/1999/xlink" x="0px" y="0px"
	 viewBox="0 0 512 512" style="enable-background:new 0 0 512 512;" xml:space="preserve">
<g>
	<polygon style="fill:#A4A4A4;" points="110.343,300.138 286.894,300.138 286.894,52.966 110.343,52.966 	"/>
	<g>
		<polygon style="fill:#535353;" points="136.825,52.966 172.136,52.966 172.136,0 136.825,0 		"/>
		<polygon style="fill:#535353;" points="216.274,52.966 251.584,52.966 251.584,0 216.274,0 		"/>
		<polygon style="fill:#535353;" points="154.481,335.448 242.756,335.448 242.756,300.138 154.481,300.138 		"/>
	</g>
	<path style="fill:#A4A4A4;" d="M401.657,512h-52.966c0-34.066-27.727-61.793-61.793-61.793
		c-63.276,0-114.759-51.483-114.759-114.759h52.966c0,34.066,27.727,61.793,61.793,61.793
		C350.175,397.241,401.657,448.724,401.657,512"/>
	<g>
		<path style="fill:#535353;" d="M172.14,238.345c4.882,0,8.828-3.946,8.828-8.828s-3.946-8.828-8.828-8.828h-61.793v17.655H172.14z
			"/>
		<path style="fill:#535353;" d="M154.485,273.655c4.882,0,8.828-3.946,8.828-8.828S159.367,256,154.485,256h-44.138v17.655H154.485
			z"/>
		<path style="fill:#535353;" d="M242.761,79.448c-4.882,0-8.828,3.946-8.828,8.828s3.946,8.828,8.828,8.828h44.138V79.448H242.761z
			"/>
		<path style="fill:#535353;" d="M225.106,114.759c-4.882,0-8.828,3.946-8.828,8.828s3.946,8.828,8.828,8.828h61.793v-17.655
			H225.106z"/>
	</g>
</g>
<g>
</g>
<g>
</g>
<g>
</g>
<g>
</g>
<g>
</g>
<g>
</g>
<g>
</g>
<g>
</g>
<g>
</g>
<g>
</g>
<g>
</g>
<g>
</g>
<g>
</g>
<g>
</g>
<g>
</g>
</svg>
