<?xml version="1.0" encoding="iso-8859-1"?>
<!-- Generator: Adobe Illustrator 19.0.0, SVG Export Plug-In . SVG Version: 6.00 Build 0)  -->
<svg version="1.1" id="Layer_1" xmlns="http://www.w3.org/2000/svg" xmlns:xlink="http://www.w3.org/1999/xlink" x="0px" y="0px"
	 viewBox="0 0 512 512" style="enable-background:new 0 0 512 512;" xml:space="preserve">
<g>
	<path style="fill:#A4A4A4;" d="M423.724,238.345v-52.966H79.448v44.138H0v52.966h79.448v44.138h344.276v-52.966
		c19.474,0,51.862,15.837,52.966,52.966H512C510.897,270.027,462.663,238.345,423.724,238.345"/>
	<g>
		<path style="fill:#535353;" d="M132.414,220.69c0,4.873-3.955,8.828-8.828,8.828s-8.828-3.955-8.828-8.828
			s3.955-8.828,8.828-8.828S132.414,215.817,132.414,220.69"/>
		<path style="fill:#535353;" d="M158.897,256c0,4.873-3.955,8.828-8.828,8.828c-4.873,0-8.828-3.955-8.828-8.828
			s3.955-8.828,8.828-8.828C154.942,247.172,158.897,251.127,158.897,256"/>
		<path style="fill:#535353;" d="M185.379,220.69c0,4.873-3.955,8.828-8.828,8.828c-4.873,0-8.828-3.955-8.828-8.828
			s3.955-8.828,8.828-8.828C181.425,211.862,185.379,215.817,185.379,220.69"/>
		<path style="fill:#535353;" d="M211.862,256c0,4.873-3.955,8.828-8.828,8.828c-4.873,0-8.828-3.955-8.828-8.828
			s3.955-8.828,8.828-8.828C207.907,247.172,211.862,251.127,211.862,256"/>
		<path style="fill:#535353;" d="M238.345,220.69c0,4.873-3.955,8.828-8.828,8.828c-4.873,0-8.828-3.955-8.828-8.828
			s3.955-8.828,8.828-8.828C234.39,211.862,238.345,215.817,238.345,220.69"/>
		<path style="fill:#535353;" d="M264.828,256c0,4.873-3.955,8.828-8.828,8.828s-8.828-3.955-8.828-8.828s3.955-8.828,8.828-8.828
			S264.828,251.127,264.828,256"/>
		<path style="fill:#535353;" d="M291.31,220.69c0,4.873-3.955,8.828-8.828,8.828s-8.828-3.955-8.828-8.828s3.955-8.828,8.828-8.828
			S291.31,215.817,291.31,220.69"/>
		<path style="fill:#535353;" d="M317.793,256c0,4.873-3.955,8.828-8.828,8.828c-4.873,0-8.828-3.955-8.828-8.828
			s3.955-8.828,8.828-8.828C313.838,247.172,317.793,251.127,317.793,256"/>
		<path style="fill:#535353;" d="M344.276,220.69c0,4.873-3.955,8.828-8.828,8.828c-4.873,0-8.828-3.955-8.828-8.828
			s3.955-8.828,8.828-8.828C340.321,211.862,344.276,215.817,344.276,220.69"/>
		<path style="fill:#535353;" d="M370.759,256c0,4.873-3.955,8.828-8.828,8.828c-4.873,0-8.828-3.955-8.828-8.828
			s3.955-8.828,8.828-8.828C366.804,247.172,370.759,251.127,370.759,256"/>
		<path style="fill:#535353;" d="M388.414,220.69c0,4.873-3.955,8.828-8.828,8.828s-8.828-3.955-8.828-8.828
			s3.955-8.828,8.828-8.828S388.414,215.817,388.414,220.69"/>
		<path style="fill:#535353;" d="M388.414,291.31c0,4.873-3.955,8.828-8.828,8.828s-8.828-3.955-8.828-8.828
			s3.955-8.828,8.828-8.828S388.414,286.438,388.414,291.31"/>
		<path style="fill:#535353;" d="M344.276,291.31c0,4.873-3.955,8.828-8.828,8.828c-4.873,0-8.828-3.955-8.828-8.828
			s3.955-8.828,8.828-8.828C340.321,282.483,344.276,286.438,344.276,291.31"/>
		<path style="fill:#535353;" d="M291.31,291.31c0,4.873-3.955,8.828-8.828,8.828s-8.828-3.955-8.828-8.828s3.955-8.828,8.828-8.828
			S291.31,286.438,291.31,291.31"/>
		<path style="fill:#535353;" d="M238.345,291.31c0,4.873-3.955,8.828-8.828,8.828c-4.873,0-8.828-3.955-8.828-8.828
			s3.955-8.828,8.828-8.828C234.39,282.483,238.345,286.438,238.345,291.31"/>
		<path style="fill:#535353;" d="M185.379,291.31c0,4.873-3.955,8.828-8.828,8.828c-4.873,0-8.828-3.955-8.828-8.828
			s3.955-8.828,8.828-8.828C181.425,282.483,185.379,286.438,185.379,291.31"/>
		<path style="fill:#535353;" d="M132.414,291.31c0,4.873-3.955,8.828-8.828,8.828s-8.828-3.955-8.828-8.828
			s3.955-8.828,8.828-8.828S132.414,286.438,132.414,291.31"/>
	</g>
</g>
<g>
</g>
<g>
</g>
<g>
</g>
<g>
</g>
<g>
</g>
<g>
</g>
<g>
</g>
<g>
</g>
<g>
</g>
<g>
</g>
<g>
</g>
<g>
</g>
<g>
</g>
<g>
</g>
<g>
</g>
</svg>
