<?xml version="1.0" encoding="iso-8859-1"?>
<!-- Generator: Adobe Illustrator 19.0.0, SVG Export Plug-In . SVG Version: 6.00 Build 0)  -->
<svg version="1.1" id="Layer_1" xmlns="http://www.w3.org/2000/svg" xmlns:xlink="http://www.w3.org/1999/xlink" x="0px" y="0px"
	 viewBox="0 0 512 512" style="enable-background:new 0 0 512 512;" xml:space="preserve">
<g>
	<path style="fill:#4897F7;" d="M35.31,331.034H476.69V101.517H35.31V331.034z M0,366.345h512V66.207H0V366.345z"/>
	<polygon style="fill:#397ABC;" points="35.31,331.034 476.69,331.034 476.69,101.517 35.31,101.517 	"/>
	<g>
		<path style="fill:#C6421E;" d="M203.064,445.793c-2.675,0-5.314-1.209-7.044-3.496c-2.313-3.054-2.33-7.115-0.371-10.143
			c1.686-4.052,25.988-67.787-25.891-130.825c-29.864-36.308-28.548-74.982-28.478-76.606c0.212-4.873,4.37-8.474,9.198-8.439
			c4.873,0.212,8.651,4.334,8.439,9.198c-0.009,0.309-0.927,33.757,24.47,64.636c36.193,43.979,39.689,88.161,36.237,117.478
			c-1.448,12.35-6.029,32.459-11.238,36.405C206.79,445.21,204.918,445.793,203.064,445.793"/>
		<path style="fill:#C6421E;" d="M308.996,445.793c-2.666,0-5.297-1.201-7.036-3.478c-2.322-3.046-2.348-7.115-0.38-10.152
			c1.677-4.043,25.962-67.814-25.891-130.834c-29.873-36.308-28.557-74.982-28.487-76.606c0.212-4.873,4.493-8.474,9.198-8.439
			c4.873,0.212,8.651,4.334,8.439,9.198c-0.009,0.309-0.927,33.757,24.479,64.636c36.123,43.9,39.662,88.002,36.255,117.275
			c-1.439,12.403-6.012,32.609-11.238,36.59C312.738,445.202,310.858,445.793,308.996,445.793"/>
		<path style="fill:#C6421E;" d="M414.927,445.793c-2.666,0-5.297-1.201-7.036-3.478c-2.322-3.046-2.348-7.115-0.38-10.152
			c1.677-4.043,25.962-67.814-25.891-130.834c-29.873-36.308-28.557-74.982-28.487-76.606c0.212-4.873,4.449-8.474,9.198-8.439
			c4.873,0.212,8.651,4.334,8.439,9.198c-0.009,0.309-0.927,33.757,24.479,64.636c36.122,43.9,39.662,88.002,36.255,117.275
			c-1.439,12.403-6.012,32.609-11.238,36.59C418.669,445.202,416.789,445.793,414.927,445.793"/>
		<polygon style="fill:#C6421E;" points="150.073,163.31 185.384,225.103 114.763,225.103 		"/>
		<polygon style="fill:#C6421E;" points="256.004,163.31 291.315,225.103 220.694,225.103 		"/>
		<polygon style="fill:#C6421E;" points="361.935,163.31 397.246,225.103 326.625,225.103 		"/>
	</g>
</g>
<g>
</g>
<g>
</g>
<g>
</g>
<g>
</g>
<g>
</g>
<g>
</g>
<g>
</g>
<g>
</g>
<g>
</g>
<g>
</g>
<g>
</g>
<g>
</g>
<g>
</g>
<g>
</g>
<g>
</g>
</svg>
