<?xml version="1.0" encoding="iso-8859-1"?>
<!-- Generator: Adobe Illustrator 19.0.0, SVG Export Plug-In . SVG Version: 6.00 Build 0)  -->
<svg version="1.1" id="Layer_1" xmlns="http://www.w3.org/2000/svg" xmlns:xlink="http://www.w3.org/1999/xlink" x="0px" y="0px"
	 viewBox="0 0 512 512" style="enable-background:new 0 0 512 512;" xml:space="preserve">
<g>
	<path style="fill:#A4A4A4;" d="M256.001,273.655c-4.882,0-8.828-3.946-8.828-8.828V123.586c0-4.882,3.946-8.828,8.828-8.828
		s8.828,3.946,8.828,8.828v141.241C264.828,269.709,260.882,273.655,256.001,273.655"/>
	<path style="fill:#535353;" d="M417.311,395.991c-10.726-10.108-20.86-17.823-33.501-23.331c-0.168,0.212-0.291,0.468-0.459,0.671
		c-17.69,21.116-40.448,32.742-64.106,32.742H192.763c-23.658,0-46.424-11.626-64.115-32.742c-0.168-0.203-0.291-0.459-0.45-0.671
		c-12.65,5.508-22.784,13.224-33.51,23.331c-4.078,3.849-6.409,9.366-6.409,15.157c0,5.782,2.33,11.299,6.409,15.148
		c22.404,21.116,51.244,32.742,81.205,32.742h160.212c29.97,0,58.801-11.626,81.205-32.742c4.078-3.849,6.418-9.366,6.418-15.148
		C423.728,405.357,421.389,399.839,417.311,395.991"/>
	<path style="fill:#A4A4A4;" d="M449.033,442.913c-9.71-7.203-19.535-12.941-30.773-17.726c-0.327,0.362-0.591,0.777-0.953,1.112
		c-22.396,21.107-51.235,32.733-81.196,32.733H175.889c-29.961,0-58.801-11.626-81.196-32.733c-0.362-0.335-0.627-0.75-0.953-1.112
		c-11.238,4.785-21.063,10.522-30.773,17.726c-13.338,9.896-13.338,27.286,0,37.182c27.463,20.374,60.804,32.088,99.655,31.903
		h186.756c39.036,0,72.201-11.529,99.655-31.903C462.371,470.199,462.371,452.808,449.033,442.913"/>
	<path style="fill:#535353;" d="M275.749,353.103h-39.495c-13.056,0-23.261-11.273-21.963-24.267l4.414-44.129
		c1.13-11.29,10.62-19.88,21.963-19.88h30.667c11.343,0,20.833,8.589,21.963,19.88l4.414,44.129
		C299.01,341.831,288.805,353.103,275.749,353.103"/>
	<path style="fill:#A4A4A4;" d="M383.352,343.025c-9.419-11.238-18.865-18.953-30.526-24.497c-0.018,0.018-0.026,0.026-0.044,0.044
		c-13.489-7.327-33.766-12.977-57.697-15.996l2.631,26.253c1.298,12.994-8.907,24.276-21.963,24.276h-39.503
		c-13.056,0-23.261-11.282-21.963-24.276l2.631-26.253c-23.755,2.993-43.908,8.58-57.397,15.828
		c-0.018-0.018-0.026-0.027-0.044-0.035c-11.661,5.535-21.407,13.418-30.826,24.655c-3.222,3.849-5.067,9.366-5.067,15.157
		c0,5.782,1.845,11.299,5.067,15.148c17.69,21.116,40.457,32.742,64.106,32.742h126.49c23.649,0,46.415-11.626,64.106-32.742
		c3.222-3.849,5.058-9.366,5.058-15.148C388.41,352.391,386.574,346.874,383.352,343.025"/>
	<path style="fill:#C6421E;" d="M317.794,61.793c0,34.127-27.666,61.793-61.793,61.793s-61.793-27.666-61.793-61.793
		S221.873,0,256.001,0S317.794,27.666,317.794,61.793"/>
	<g>
		<path style="fill:#FFFFFF;" d="M238.345,97.103c-4.882,0-8.828-3.946-8.828-8.828V35.31c0-4.882,3.946-8.828,8.828-8.828
			s8.828,3.946,8.828,8.828v52.966C247.173,93.158,243.227,97.103,238.345,97.103"/>
		<path style="fill:#FFFFFF;" d="M273.656,97.103c-4.882,0-8.828-3.946-8.828-8.828V35.31c0-4.882,3.946-8.828,8.828-8.828
			c4.882,0,8.828,3.946,8.828,8.828v52.966C282.483,93.158,278.537,97.103,273.656,97.103"/>
		<path style="fill:#FFFFFF;" d="M273.656,70.621h-35.31c-4.882,0-8.828-3.946-8.828-8.828s3.946-8.828,8.828-8.828h35.31
			c4.882,0,8.828,3.946,8.828,8.828S278.537,70.621,273.656,70.621"/>
	</g>
</g>
<g>
</g>
<g>
</g>
<g>
</g>
<g>
</g>
<g>
</g>
<g>
</g>
<g>
</g>
<g>
</g>
<g>
</g>
<g>
</g>
<g>
</g>
<g>
</g>
<g>
</g>
<g>
</g>
<g>
</g>
</svg>
