<?xml version="1.0" encoding="iso-8859-1"?>
<!-- Generator: Adobe Illustrator 19.0.0, SVG Export Plug-In . SVG Version: 6.00 Build 0)  -->
<svg version="1.1" id="Layer_1" xmlns="http://www.w3.org/2000/svg" xmlns:xlink="http://www.w3.org/1999/xlink" x="0px" y="0px"
	 viewBox="0 0 512 512" style="enable-background:new 0 0 512 512;" xml:space="preserve">
<g>
	<path style="fill:#74B73E;" d="M229.517,357.517c-4.873,0-8.828-3.946-8.828-8.828V163.31c0-4.882,3.955-8.828,8.828-8.828
		c4.873,0,8.828,3.946,8.828,8.828V348.69C238.345,353.571,234.39,357.517,229.517,357.517"/>
	<path style="fill:#74B73E;" d="M282.483,357.517c-4.873,0-8.828-3.946-8.828-8.828V163.31c0-4.882,3.955-8.828,8.828-8.828
		s8.828,3.946,8.828,8.828V348.69C291.31,353.571,287.356,357.517,282.483,357.517"/>
	<polygon style="fill:#74B73E;" points="512,260.414 423.724,154.483 423.724,216.276 326.621,216.276 326.621,295.724 
		423.724,295.724 423.724,357.517 	"/>
	<polygon style="fill:#74B73E;" points="0,260.414 88.276,154.483 88.276,216.276 185.379,216.276 185.379,295.724 88.276,295.724 
		88.276,357.517 	"/>
</g>
<g>
</g>
<g>
</g>
<g>
</g>
<g>
</g>
<g>
</g>
<g>
</g>
<g>
</g>
<g>
</g>
<g>
</g>
<g>
</g>
<g>
</g>
<g>
</g>
<g>
</g>
<g>
</g>
<g>
</g>
</svg>
