<?xml version="1.0" encoding="iso-8859-1"?>
<!-- Generator: Adobe Illustrator 19.0.0, SVG Export Plug-In . SVG Version: 6.00 Build 0)  -->
<svg version="1.1" id="Layer_1" xmlns="http://www.w3.org/2000/svg" xmlns:xlink="http://www.w3.org/1999/xlink" x="0px" y="0px"
	 viewBox="0 0 512 512" style="enable-background:new 0 0 512 512;" xml:space="preserve">
<g>
	<path style="fill:#A4A4A4;" d="M264.678,512h-27.483c-18.345,0-33.263-14.926-33.263-33.263v-62.195
		c0-4.799,3.888-8.678,8.678-8.678s8.678,3.879,8.678,8.678v62.195c0,8.773,7.133,15.907,15.907,15.907h27.483
		c4.79,0,8.678,3.879,8.678,8.678C273.356,508.121,269.468,512,264.678,512"/>
	<polygon style="fill:#535353;" points="203.928,416.542 308.063,416.542 308.063,329.763 203.928,329.763 	"/>
	<g>
		<path style="fill:#A4A4A4;" d="M264.694,459.932h-17.391c-4.782,0-8.661-3.879-8.661-8.661v-34.729h34.712v34.729
			C273.355,456.053,269.476,459.932,264.694,459.932"/>
		<polygon style="fill:#A4A4A4;" points="177.894,329.763 334.097,329.763 334.097,295.051 177.894,295.051 		"/>
		<polygon style="fill:#A4A4A4;" points="125.831,277.695 125.831,242.983 143.186,225.627 203.932,225.627 203.932,295.051 
			143.186,295.051 		"/>
	</g>
	<polygon style="fill:#535353;" points="203.928,295.051 308.063,295.051 308.063,225.627 203.928,225.627 	"/>
	<g>
		<polygon style="fill:#A4A4A4;" points="368.814,295.051 308.068,295.051 308.068,225.627 368.814,225.627 386.169,242.983 
			386.169,277.695 		"/>
		<path style="fill:#A4A4A4;" d="M299.39,225.627h-86.78V78.102c0-15.62,10.414-26.034,26.034-26.034h34.712
			c15.62,0,26.034,10.414,26.034,26.034V225.627z"/>
	</g>
	<path style="fill:#535353;" d="M273.356,8.678c0-4.79-3.888-8.678-8.678-8.678h-17.356c-4.79,0-8.678,3.888-8.678,8.678v43.39
		h34.712V8.678z"/>
	<g>
		<path style="fill:#A4A4A4;" d="M264.678,355.797c-4.79,0-8.678,3.879-8.678,8.678s3.888,8.678,8.678,8.678h43.39v-17.356H264.678z
			"/>
		<path style="fill:#A4A4A4;" d="M238.644,390.508c4.79,0,8.678-3.879,8.678-8.678s-3.888-8.678-8.678-8.678h-34.712v17.356H238.644
			z"/>
	</g>
</g>
<g>
</g>
<g>
</g>
<g>
</g>
<g>
</g>
<g>
</g>
<g>
</g>
<g>
</g>
<g>
</g>
<g>
</g>
<g>
</g>
<g>
</g>
<g>
</g>
<g>
</g>
<g>
</g>
<g>
</g>
</svg>
