<?xml version="1.0" encoding="iso-8859-1"?>
<!-- Generator: Adobe Illustrator 19.0.0, SVG Export Plug-In . SVG Version: 6.00 Build 0)  -->
<svg version="1.1" id="Layer_1" xmlns="http://www.w3.org/2000/svg" xmlns:xlink="http://www.w3.org/1999/xlink" x="0px" y="0px"
	 viewBox="0 0 512 512" style="enable-background:new 0 0 512 512;" xml:space="preserve">
<g>
	<g>
		<path style="fill:#FECA09;" d="M187.733,379.734c-10.3,0-19.388-3.251-25.6-8.499c-6.212,5.248-15.3,8.499-25.6,8.499
			s-19.388-3.251-25.6-8.499c-6.212,5.248-15.3,8.499-25.6,8.499s-19.388-3.251-25.6-8.499c-6.212,5.248-15.3,8.499-25.6,8.499
			c-19.14,0-34.133-11.247-34.133-25.6c0-4.71,3.823-8.533,8.533-8.533s8.533,3.823,8.533,8.533c0,3.482,6.647,8.533,17.067,8.533
			s17.067-5.052,17.067-8.533c0-4.71,3.823-8.533,8.533-8.533s8.533,3.823,8.533,8.533c0,3.482,6.647,8.533,17.067,8.533
			s17.067-5.052,17.067-8.533c0-4.71,3.823-8.533,8.533-8.533c4.71,0,8.533,3.823,8.533,8.533c0,3.482,6.647,8.533,17.067,8.533
			s17.067-5.052,17.067-8.533c0-4.71,3.823-8.533,8.533-8.533c4.71,0,8.533,3.823,8.533,8.533c0,3.482,6.647,8.533,17.067,8.533
			c4.71,0,8.533,3.823,8.533,8.533C196.267,375.911,192.444,379.734,187.733,379.734"/>
		<path style="fill:#FECA09;" d="M460.8,456.534c-10.3,0-19.388-3.251-25.6-8.499c-6.212,5.248-15.3,8.499-25.6,8.499
			c-10.3,0-19.388-3.251-25.6-8.499c-6.212,5.248-15.3,8.499-25.6,8.499s-19.388-3.251-25.6-8.499
			c-6.212,5.248-15.3,8.499-25.6,8.499s-19.388-3.251-25.6-8.499c-6.212,5.248-15.3,8.499-25.6,8.499
			c-10.3,0-19.388-3.251-25.6-8.499c-6.212,5.248-15.3,8.499-25.6,8.499c-10.3,0-19.388-3.251-25.6-8.499
			c-6.212,5.248-15.3,8.499-25.6,8.499c-10.3,0-19.388-3.251-25.6-8.499c-6.212,5.248-15.3,8.499-25.6,8.499
			c-10.3,0-19.388-3.251-25.6-8.499c-6.212,5.248-15.3,8.499-25.6,8.499c-4.71,0-8.533-3.823-8.533-8.533s3.823-8.533,8.533-8.533
			c10.419,0,17.067-5.052,17.067-8.533c0-4.71,3.823-8.533,8.533-8.533c4.71,0,8.533,3.823,8.533,8.533
			c0,3.482,6.647,8.533,17.067,8.533s17.067-5.052,17.067-8.533c0-4.71,3.823-8.533,8.533-8.533c4.71,0,8.533,3.823,8.533,8.533
			c0,3.482,6.647,8.533,17.067,8.533s17.067-5.052,17.067-8.533c0-4.71,3.823-8.533,8.533-8.533c4.71,0,8.533,3.823,8.533,8.533
			c0,3.482,6.647,8.533,17.067,8.533s17.067-5.052,17.067-8.533c0-4.71,3.823-8.533,8.533-8.533s8.533,3.823,8.533,8.533
			c0,3.482,6.647,8.533,17.067,8.533c10.419,0,17.067-5.052,17.067-8.533c0-4.71,3.823-8.533,8.533-8.533
			c4.71,0,8.533,3.823,8.533,8.533c0,3.482,6.647,8.533,17.067,8.533s17.067-5.052,17.067-8.533c0-4.71,3.823-8.533,8.533-8.533
			c4.71,0,8.533,3.823,8.533,8.533c0,3.482,6.647,8.533,17.067,8.533c10.419,0,17.067-5.052,17.067-8.533
			c0-4.71,3.823-8.533,8.533-8.533c4.71,0,8.533,3.823,8.533,8.533c0,3.482,6.647,8.533,17.067,8.533
			c10.419,0,17.067-5.052,17.067-8.533c0-4.71,3.823-8.533,8.533-8.533c4.71,0,8.533,3.823,8.533,8.533
			c0,3.482,6.647,8.533,17.067,8.533c4.71,0,8.533,3.823,8.533,8.533S465.51,456.534,460.8,456.534"/>
		<path style="fill:#FECA09;" d="M503.467,379.734c-10.3,0-19.388-3.251-25.6-8.499c-6.212,5.248-15.3,8.499-25.6,8.499
			s-19.388-3.251-25.6-8.499c-6.212,5.248-15.3,8.499-25.6,8.499s-19.388-3.251-25.6-8.499c-6.212,5.248-15.3,8.499-25.6,8.499
			c-19.14,0-34.133-11.247-34.133-25.6c0-4.71,3.823-8.533,8.533-8.533c4.71,0,8.533,3.823,8.533,8.533
			c0,3.482,6.647,8.533,17.067,8.533c10.419,0,17.067-5.052,17.067-8.533c0-4.71,3.823-8.533,8.533-8.533
			c4.71,0,8.533,3.823,8.533,8.533c0,3.482,6.647,8.533,17.067,8.533c10.419,0,17.067-5.052,17.067-8.533
			c0-4.71,3.823-8.533,8.533-8.533c4.71,0,8.533,3.823,8.533,8.533c0,3.482,6.647,8.533,17.067,8.533
			c10.419,0,17.067-5.052,17.067-8.533c0-4.71,3.823-8.533,8.533-8.533c4.71,0,8.533,3.823,8.533,8.533
			c0,3.482,6.647,8.533,17.067,8.533c4.71,0,8.533,3.823,8.533,8.533C512,375.911,508.177,379.734,503.467,379.734"/>
	</g>
	<path style="fill:#C6421E;" d="M324.267,106.667L324.267,106.667c0-9.429-7.637-17.067-17.067-17.067h-34.133V73.447
		c0-8.499-5.811-16.384-14.199-17.749c-10.692-1.732-19.934,6.468-19.934,16.836v252.203c-12.399,7.219-19.959,21.845-16.017,37.965
		c2.953,12.058,12.8,21.803,24.892,24.61c22.409,5.214,42.325-11.657,42.325-33.178c0-12.604-6.903-23.484-17.067-29.397v-47.403
		H307.2c9.429,0,17.067-7.637,17.067-17.067c0-9.429-7.637-17.067-17.067-17.067h-34.133v-42.667H307.2
		c9.429,0,17.067-7.637,17.067-17.067c0-9.429-7.637-17.067-17.067-17.067h-34.133v-42.667H307.2
		C316.629,123.734,324.267,116.097,324.267,106.667"/>
</g>
<g>
</g>
<g>
</g>
<g>
</g>
<g>
</g>
<g>
</g>
<g>
</g>
<g>
</g>
<g>
</g>
<g>
</g>
<g>
</g>
<g>
</g>
<g>
</g>
<g>
</g>
<g>
</g>
<g>
</g>
</svg>
