<?xml version="1.0" encoding="iso-8859-1"?>
<!-- Generator: Adobe Illustrator 19.0.0, SVG Export Plug-In . SVG Version: 6.00 Build 0)  -->
<svg version="1.1" id="Layer_1" xmlns="http://www.w3.org/2000/svg" xmlns:xlink="http://www.w3.org/1999/xlink" x="0px" y="0px"
	 viewBox="0 0 512 512" style="enable-background:new 0 0 512 512;" xml:space="preserve">
<g>
	<g>
		<polygon style="fill:#576D7E;" points="88.271,52.966 423.72,52.966 423.72,0 88.271,0 		"/>
		<polygon style="fill:#576D7E;" points="388.414,476.69 123.586,476.69 114.759,423.724 397.241,423.724 		"/>
	</g>
	<g>
		<polygon style="fill:#34485C;" points="105.927,512 406.065,512 406.065,476.69 105.927,476.69 		"/>
		<polygon style="fill:#34485C;" points="450.207,379.586 423.724,52.966 379.586,52.966 406.069,379.586 344.276,379.586 
			344.276,52.966 291.31,52.966 291.31,379.586 220.69,379.586 220.69,52.966 167.724,52.966 167.724,379.586 105.931,379.586 
			132.414,52.966 88.276,52.966 61.793,379.586 26.483,379.586 26.483,423.724 485.517,423.724 485.517,379.586 		"/>
	</g>
</g>
<g>
</g>
<g>
</g>
<g>
</g>
<g>
</g>
<g>
</g>
<g>
</g>
<g>
</g>
<g>
</g>
<g>
</g>
<g>
</g>
<g>
</g>
<g>
</g>
<g>
</g>
<g>
</g>
<g>
</g>
</svg>
