<?xml version="1.0" encoding="iso-8859-1"?>
<!-- Generator: Adobe Illustrator 19.0.0, SVG Export Plug-In . SVG Version: 6.00 Build 0)  -->
<svg version="1.1" id="Layer_1" xmlns="http://www.w3.org/2000/svg" xmlns:xlink="http://www.w3.org/1999/xlink" x="0px" y="0px"
	 viewBox="0 0 503.943 503.943" style="enable-background:new 0 0 503.943 503.943;" xml:space="preserve">
<g>
	<path style="fill:#397ABC;" d="M373.661,67.204l-15.757-31.506l-12.632,25.265c-7.15,14.301-14.398,28.725-24.188,41.366
		c-4.078,5.279-6.674,11.158-7.212,18.653c-1.536,21.451,13.568,41.807,34.631,46.151c28.487,5.879,53.539-15.713,53.539-43.158
		c0-7.15-2.074-13.118-5.411-18.414C388.677,92.927,380.334,80.551,373.661,67.204"/>
	<path style="fill:#4897F7;" d="M416.324,107.563c-7.097-1.668-14.23-3.213-21.38-4.67c-0.044,0.071-0.018,0.026-0.062,0.097
		c4.352,5.932,7.159,12.65,7.159,20.983c0,27.445-25.053,49.037-53.539,43.158c-20.798-4.29-35.708-23.993-34.684-45.206
		c0.38-7.954,3.019-14.098,7.265-19.597c2.419-3.116,4.67-6.347,6.815-9.657c-79.422-8.333-161.103-3.575-240.278,14.892
		l-68.175,18.803c-13.268,3.663-21.522,16.887-18.988,30.411l48.481,258.551c131.31-46.883,274.397-46.892,406.069,0l48.481-258.551
		c2.534-13.524-5.72-26.748-18.988-30.411L416.324,107.563z"/>
	<g>
		<path style="fill:#397ABC;" d="M278.455,441.763c0,14.627-11.855,26.483-26.483,26.483s-26.483-11.855-26.483-26.483
			s11.855-26.483,26.483-26.483S278.455,427.135,278.455,441.763"/>
		<path style="fill:#397ABC;" d="M243.585,425.47c-3.734,0-7.194-2.383-8.404-6.126l-79.89-248.541
			c-1.492-4.634,1.059-9.604,5.711-11.096c4.643-1.457,9.604,1.059,11.096,5.703l79.89,248.532
			c1.492,4.643-1.059,9.613-5.703,11.105C245.385,425.328,244.485,425.47,243.585,425.47"/>
	</g>
</g>
<g>
</g>
<g>
</g>
<g>
</g>
<g>
</g>
<g>
</g>
<g>
</g>
<g>
</g>
<g>
</g>
<g>
</g>
<g>
</g>
<g>
</g>
<g>
</g>
<g>
</g>
<g>
</g>
<g>
</g>
</svg>
