<?xml version="1.0" encoding="iso-8859-1"?>
<!-- Generator: Adobe Illustrator 19.0.0, SVG Export Plug-In . SVG Version: 6.00 Build 0)  -->
<svg version="1.1" id="Layer_1" xmlns="http://www.w3.org/2000/svg" xmlns:xlink="http://www.w3.org/1999/xlink" x="0px" y="0px"
	 viewBox="0 0 512 512" style="enable-background:new 0 0 512 512;" xml:space="preserve">
<g>
	<path style="fill:#34485C;" d="M384,256c0,70.69-57.31,128-128,128s-128-57.31-128-128s57.31-128,128-128S384,185.31,384,256"/>
	<g>
		<path style="fill:#576D7E;" d="M247.467,93.871c-0.887,0-1.801-0.145-2.697-0.444c-4.471-1.493-6.886-6.323-5.393-10.795
			l8.533-25.6c1.493-4.463,6.272-6.895,10.786-5.393l18.577,6.187l13.756-27.511c2.125-4.215,7.236-5.931,11.452-3.814
			c4.215,2.108,5.931,7.236,3.823,11.452l-17.067,34.133c-1.903,3.797-6.306,5.623-10.334,4.275l-17.502-5.828l-5.845,17.502
			C254.37,91.61,251.042,93.871,247.467,93.871"/>
		<path style="fill:#576D7E;" d="M318.351,13.509c0,4.71-3.823,8.533-8.533,8.533c-4.71,0-8.533-3.823-8.533-8.533
			s3.823-8.533,8.533-8.533C314.528,4.976,318.351,8.799,318.351,13.509"/>
	</g>
	<g>
		<path style="fill:#C6421E;" d="M213.333,68.267c-4.719,0-8.533-3.823-8.533-8.533v-51.2c0-4.71,3.814-8.533,8.533-8.533
			s8.533,3.823,8.533,8.533v51.2C221.867,64.444,218.052,68.267,213.333,68.267"/>
		<path style="fill:#C6421E;" d="M213.333,68.267c-2.185,0-4.369-0.836-6.033-2.5c-3.337-3.337-3.337-8.73,0-12.066l17.067-17.067
			c3.337-3.337,8.73-3.337,12.066,0c3.337,3.337,3.337,8.73,0,12.066l-17.067,17.067C217.702,67.43,215.518,68.267,213.333,68.267"
			/>
		<path style="fill:#C6421E;" d="M213.333,68.267c-2.185,0-4.369-0.836-6.033-2.5L190.234,48.7c-3.337-3.337-3.337-8.73,0-12.066
			s8.73-3.337,12.066,0L219.366,53.7c3.337,3.337,3.337,8.73,0,12.066C217.702,67.43,215.518,68.267,213.333,68.267"/>
	</g>
	<g>
		<path style="fill:#576D7E;" d="M441.116,298.671c-0.887,0-1.801-0.145-2.697-0.444c-4.471-1.493-6.886-6.323-5.393-10.795
			l8.533-25.6c1.493-4.471,6.272-6.895,10.786-5.393l18.577,6.187l13.756-27.511c2.125-4.215,7.245-5.922,11.452-3.814
			c4.215,2.108,5.931,7.236,3.823,11.452l-17.067,34.133c-1.903,3.806-6.323,5.615-10.334,4.275l-17.502-5.828l-5.845,17.502
			C448.02,296.41,444.692,298.671,441.116,298.671"/>
		<path style="fill:#576D7E;" d="M512,218.309c0,4.71-3.823,8.533-8.533,8.533s-8.533-3.823-8.533-8.533s3.823-8.533,8.533-8.533
			S512,213.599,512,218.309"/>
		<path style="fill:#576D7E;" d="M40.049,298.671c-0.887,0-1.801-0.145-2.697-0.444c-4.471-1.493-6.886-6.323-5.393-10.795
			l8.533-25.6c1.493-4.471,6.281-6.895,10.786-5.393l18.577,6.187l13.756-27.511c2.116-4.215,7.236-5.922,11.452-3.814
			c4.215,2.108,5.931,7.236,3.823,11.452L81.82,276.885c-1.911,3.806-6.315,5.615-10.334,4.275l-17.502-5.828l-5.845,17.502
			C46.953,296.41,43.625,298.671,40.049,298.671"/>
		<path style="fill:#576D7E;" d="M110.933,218.309c0,4.71-3.823,8.533-8.533,8.533c-4.71,0-8.533-3.823-8.533-8.533
			s3.823-8.533,8.533-8.533C107.11,209.776,110.933,213.599,110.933,218.309"/>
	</g>
	<g>
		<path style="fill:#74B73E;" d="M51.2,230.4H8.533C3.814,230.4,0,226.577,0,221.867c0-4.71,3.814-8.533,8.533-8.533H51.2
			c4.719,0,8.533,3.823,8.533,8.533C59.733,226.577,55.919,230.4,51.2,230.4"/>
		<path style="fill:#74B73E;" d="M51.2,230.4c-2.185,0-4.369-0.836-6.033-2.5L28.1,210.833c-3.337-3.337-3.337-8.73,0-12.066
			c3.337-3.337,8.73-3.337,12.066,0l17.067,17.067c3.337,3.337,3.337,8.73,0,12.066C55.569,229.564,53.385,230.4,51.2,230.4"/>
		<path style="fill:#74B73E;" d="M34.133,247.467c-2.185,0-4.369-0.836-6.033-2.5c-3.337-3.337-3.337-8.73,0-12.066l17.067-17.067
			c3.337-3.337,8.73-3.337,12.066,0c3.337,3.337,3.337,8.73,0,12.066l-17.067,17.067C38.502,246.63,36.318,247.467,34.133,247.467"
			/>
	</g>
	<g>
		<path style="fill:#576D7E;" d="M256,512c-0.887,0-1.801-0.137-2.697-0.435c-4.471-1.493-6.886-6.323-5.393-10.795l8.533-25.6
			c1.493-4.471,6.281-6.903,10.786-5.402l18.577,6.195l13.756-27.511c2.125-4.224,7.236-5.931,11.452-3.823
			c4.215,2.116,5.931,7.236,3.823,11.452l-17.067,34.133c-1.911,3.806-6.306,5.615-10.334,4.284l-17.502-5.837l-5.845,17.502
			C262.903,509.739,259.575,512,256,512"/>
		<path style="fill:#576D7E;" d="M326.885,431.642c0,4.71-3.823,8.533-8.533,8.533c-4.71,0-8.533-3.823-8.533-8.533
			c0-4.71,3.823-8.533,8.533-8.533C323.062,423.109,326.885,426.932,326.885,431.642"/>
	</g>
	<g>
		<path style="fill:#74B73E;" d="M264.533,443.733h-42.667c-4.719,0-8.533-3.823-8.533-8.533s3.814-8.533,8.533-8.533h42.667
			c4.719,0,8.533,3.823,8.533,8.533S269.252,443.733,264.533,443.733"/>
		<path style="fill:#74B73E;" d="M264.533,443.733c-2.185,0-4.369-0.836-6.033-2.5l-17.067-17.067c-3.337-3.337-3.337-8.73,0-12.066
			c3.337-3.337,8.73-3.337,12.066,0l17.067,17.067c3.337,3.337,3.337,8.73,0,12.066
			C268.902,442.897,266.718,443.733,264.533,443.733"/>
		<path style="fill:#74B73E;" d="M247.467,460.8c-2.185,0-4.369-0.836-6.033-2.5c-3.337-3.337-3.337-8.73,0-12.066l17.067-17.067
			c3.337-3.337,8.73-3.337,12.066,0c3.337,3.337,3.337,8.73,0,12.066L253.5,458.3C251.836,459.964,249.651,460.8,247.467,460.8"/>
	</g>
	<g>
		<path style="fill:#C6421E;" d="M204.8,512c-4.719,0-8.533-3.823-8.533-8.533V460.8c0-4.71,3.814-8.533,8.533-8.533
			c4.719,0,8.533,3.823,8.533,8.533v42.667C213.333,508.177,209.519,512,204.8,512"/>
		<path style="fill:#C6421E;" d="M204.8,512c-2.185,0-4.369-0.836-6.033-2.5c-3.337-3.337-3.337-8.73,0-12.066l17.067-17.067
			c3.337-3.337,8.73-3.337,12.066,0c3.337,3.337,3.337,8.73,0,12.066L210.833,509.5C209.169,511.164,206.985,512,204.8,512"/>
		<path style="fill:#C6421E;" d="M204.8,512c-2.185,0-4.369-0.836-6.033-2.5L181.7,492.433c-3.337-3.337-3.337-8.73,0-12.066
			c3.337-3.337,8.73-3.337,12.066,0l17.067,17.067c3.337,3.337,3.337,8.73,0,12.066C209.169,511.164,206.985,512,204.8,512"/>
	</g>
	<path style="fill:#4897F7;" d="M449.184,230.4H421.22c-6.707,0-12.425-4.847-13.534-11.46l-3.959-23.774
		c-1.391-8.354,5.052-15.966,13.525-15.966h35.891c8.474,0,14.925,7.612,13.525,15.966l-3.959,23.774
		C461.608,225.553,455.891,230.4,449.184,230.4"/>
	<path style="fill:#576D7E;" d="M384,256c0-2.884-0.247-5.7-0.435-8.533h-59.307c-4.719,0-8.533,3.823-8.533,8.533
		c0,4.71,3.814,8.533,8.533,8.533h59.307C383.753,261.7,384,258.884,384,256"/>
</g>
<g>
</g>
<g>
</g>
<g>
</g>
<g>
</g>
<g>
</g>
<g>
</g>
<g>
</g>
<g>
</g>
<g>
</g>
<g>
</g>
<g>
</g>
<g>
</g>
<g>
</g>
<g>
</g>
<g>
</g>
</svg>
