<?xml version="1.0" encoding="iso-8859-1"?>
<!-- Generator: Adobe Illustrator 19.0.0, SVG Export Plug-In . SVG Version: 6.00 Build 0)  -->
<svg version="1.1" id="Layer_1" xmlns="http://www.w3.org/2000/svg" xmlns:xlink="http://www.w3.org/1999/xlink" x="0px" y="0px"
	 viewBox="0 0 512 512" style="enable-background:new 0 0 512 512;" xml:space="preserve">
<g>
	<g>
		<path style="fill:#576D7E;" d="M61.795,344.276h-35.31c-4.873,0-8.828-3.946-8.828-8.828c0-4.882,3.955-8.828,8.828-8.828h35.31
			c4.873,0,8.828,3.946,8.828,8.828C70.623,340.33,66.668,344.276,61.795,344.276"/>
		<path style="fill:#576D7E;" d="M229.519,432.552c-19.474,0-35.31-15.837-35.31-35.31V185.379
			c0-14.601-11.882-26.483-26.483-26.483c-14.601,0-26.483,11.882-26.483,26.483v114.759c0,27.639-13.197,44.138-35.31,44.138
			c-4.873,0-8.828-3.946-8.828-8.828c0-4.882,3.955-8.828,8.828-8.828c4.37,0,17.655,0,17.655-26.483V185.379
			c0-24.338,19.8-44.138,44.138-44.138s44.138,19.8,44.138,44.138v211.862c0,9.737,7.918,17.655,17.655,17.655
			c4.873,0,8.828,3.946,8.828,8.828C238.347,428.606,234.392,432.552,229.519,432.552"/>
	</g>
	<polygon style="fill:#34485C;" points="61.791,353.103 105.929,353.103 105.929,317.793 61.791,317.793 	"/>
	<g>
		<path style="fill:#576D7E;" d="M406.071,26.483h-52.966c-4.873,0-8.828-3.946-8.828-8.828s3.955-8.828,8.828-8.828h52.966
			c4.873,0,8.828,3.946,8.828,8.828S410.944,26.483,406.071,26.483"/>
		<path style="fill:#576D7E;" d="M282.485,26.483h-52.966c-4.873,0-8.828-3.946-8.828-8.828s3.955-8.828,8.828-8.828h52.966
			c4.873,0,8.828,3.946,8.828,8.828S287.358,26.483,282.485,26.483"/>
	</g>
	<polygon style="fill:#34485C;" points="414.899,512 220.692,512 282.485,476.69 353.106,476.69 	"/>
	<polygon style="fill:#576D7E;" points="282.481,476.69 353.101,476.69 353.101,123.586 282.481,123.586 	"/>
	<polygon style="fill:#34485C;" points="264.825,123.586 370.756,123.586 370.756,88.276 264.825,88.276 	"/>
	<polygon style="fill:#576D7E;" points="300.136,88.276 335.446,88.276 335.446,35.31 300.136,35.31 	"/>
	<g>
		<polygon style="fill:#34485C;" points="282.481,35.31 353.101,35.31 353.101,0 282.481,0 		"/>
		<polygon style="fill:#34485C;" points="406.067,35.31 494.343,35.31 494.343,0 406.067,0 		"/>
		<polygon style="fill:#34485C;" points="141.239,35.31 229.515,35.31 229.515,0 141.239,0 		"/>
		<polygon style="fill:#34485C;" points="229.515,441.379 282.481,441.379 282.481,406.069 229.515,406.069 		"/>
	</g>
</g>
<g>
</g>
<g>
</g>
<g>
</g>
<g>
</g>
<g>
</g>
<g>
</g>
<g>
</g>
<g>
</g>
<g>
</g>
<g>
</g>
<g>
</g>
<g>
</g>
<g>
</g>
<g>
</g>
<g>
</g>
</svg>
