<?xml version="1.0" encoding="iso-8859-1"?>
<!-- Generator: Adobe Illustrator 19.0.0, SVG Export Plug-In . SVG Version: 6.00 Build 0)  -->
<svg version="1.1" id="Layer_1" xmlns="http://www.w3.org/2000/svg" xmlns:xlink="http://www.w3.org/1999/xlink" x="0px" y="0px"
	 viewBox="0 0 512 512" style="enable-background:new 0 0 512 512;" xml:space="preserve">
<g>
	<g>
		<path style="fill:#34485C;" d="M512,44.138c0,24.373-19.765,44.138-44.138,44.138s-44.138-19.765-44.138-44.138
			S443.489,0,467.862,0S512,19.765,512,44.138"/>
		<path style="fill:#34485C;" d="M372.216,151.258l-48.87,141.63c-3.24,9.393-12.579,15.272-22.449,14.133l-89.529-10.284
			c-8.766-1.095-16.993,4.414-19.315,12.932l-58.73,170.178c-2.18,7.998-0.468,16.87,5.411,22.713
			c17.373,17.276,41.498,8.925,47.289-9.622l49.646-121.697c2.622-8.404,11.008-13.603,19.694-12.235l133.429,18.22
			c10.037,1.368,19.641-4.555,22.916-14.142l60.646-177.434c9.869-28.866-6.638-60.072-36.043-68.167l0,0
			C409.38,110.069,381.326,124.855,372.216,151.258"/>
	</g>
	<polygon style="fill:#74B73E;" points="79.448,344.276 158.897,264.828 114.759,264.828 114.759,123.586 44.138,123.586 
		44.138,264.828 0,264.828 	"/>
</g>
<g>
</g>
<g>
</g>
<g>
</g>
<g>
</g>
<g>
</g>
<g>
</g>
<g>
</g>
<g>
</g>
<g>
</g>
<g>
</g>
<g>
</g>
<g>
</g>
<g>
</g>
<g>
</g>
<g>
</g>
</svg>
