<?xml version="1.0" encoding="iso-8859-1"?>
<!-- Generator: Adobe Illustrator 19.0.0, SVG Export Plug-In . SVG Version: 6.00 Build 0)  -->
<svg version="1.1" id="Layer_1" xmlns="http://www.w3.org/2000/svg" xmlns:xlink="http://www.w3.org/1999/xlink" x="0px" y="0px"
	 viewBox="0 0 512 512" style="enable-background:new 0 0 512 512;" xml:space="preserve">
<g>
	<path style="fill:#535353;" d="M256,459.034c-111.951,0-203.034-91.083-203.034-203.034S144.049,52.966,256,52.966
		S459.034,144.049,459.034,256S367.951,459.034,256,459.034 M256,0C114.617,0,0,114.617,0,256s114.617,256,256,256
		s256-114.617,256-256S397.383,0,256,0"/>
	<path style="fill:#A4A4A4;" d="M373.734,218.439l69.729-40.369c-6.877-16.472-15.881-31.832-26.633-45.789l-69.756,40.386
		c-2.207-2.41-4.493-4.732-6.886-6.965l41.022-69.35c-13.85-10.893-29.113-20.047-45.524-27.074l-41.039,69.385
		c-3.972-1.306-8.024-2.428-12.164-3.337V54.75c-8.678-1.139-17.505-1.783-26.483-1.783s-17.805,0.644-26.483,1.783v80.578
		c-3.761,0.821-7.459,1.783-11.079,2.94L178.07,68.538c-16.472,6.877-31.832,15.881-45.78,26.633l40.377,69.756
		c-2.41,2.207-4.732,4.493-6.965,6.886l-69.35-41.031c-10.893,13.85-20.047,29.122-27.074,45.524l69.385,41.048
		c-1.306,3.972-2.428,8.024-3.337,12.164H54.749c-1.139,8.678-1.783,17.505-1.783,26.483c0,8.978,0.644,17.805,1.783,26.483h80.578
		c0.821,3.752,1.783,7.459,2.94,11.079l-69.729,40.369c6.877,16.472,15.881,31.832,26.633,45.78l69.756-40.377
		c2.207,2.41,4.493,4.732,6.886,6.965l-41.031,69.35c13.859,10.884,29.122,20.047,45.524,27.074l41.048-69.385
		c3.972,1.306,8.024,2.428,12.164,3.337v80.578c8.678,1.139,17.505,1.783,26.483,1.783s17.805-0.644,26.483-1.783v-80.578
		c3.752-0.821,7.459-1.783,11.079-2.94l40.369,69.72c16.472-6.868,31.832-15.872,45.78-26.624l-40.377-69.756
		c2.41-2.207,4.732-4.493,6.965-6.886l69.35,41.022c10.893-13.85,20.047-29.113,27.074-45.524l-69.385-41.039
		c1.306-3.972,2.428-8.024,3.337-12.164h80.578c1.139-8.678,1.783-17.505,1.783-26.483c0-8.978-0.644-17.805-1.783-26.483h-80.578
		C375.852,225.758,374.89,222.059,373.734,218.439"/>
	<g>
		<path style="fill:#535353;" d="M282.483,317.793c0,14.627-11.855,26.483-26.483,26.483c-14.627,0-26.483-11.855-26.483-26.483
			c0-14.627,11.855-26.483,26.483-26.483C270.627,291.31,282.483,303.166,282.483,317.793"/>
		<path style="fill:#535353;" d="M344.276,256c0,14.627-11.855,26.483-26.483,26.483S291.31,270.627,291.31,256
			c0-14.627,11.855-26.483,26.483-26.483S344.276,241.373,344.276,256"/>
		<path style="fill:#535353;" d="M282.483,194.207c0,14.627-11.855,26.483-26.483,26.483c-14.627,0-26.483-11.855-26.483-26.483
			s11.855-26.483,26.483-26.483C270.627,167.724,282.483,179.58,282.483,194.207"/>
		<path style="fill:#535353;" d="M220.69,256c0,14.627-11.855,26.483-26.483,26.483S167.724,270.627,167.724,256
			c0-14.627,11.855-26.483,26.483-26.483S220.69,241.373,220.69,256"/>
	</g>
</g>
<g>
</g>
<g>
</g>
<g>
</g>
<g>
</g>
<g>
</g>
<g>
</g>
<g>
</g>
<g>
</g>
<g>
</g>
<g>
</g>
<g>
</g>
<g>
</g>
<g>
</g>
<g>
</g>
<g>
</g>
</svg>
