<?xml version="1.0" encoding="iso-8859-1"?>
<!-- Generator: Adobe Illustrator 19.0.0, SVG Export Plug-In . SVG Version: 6.00 Build 0)  -->
<svg version="1.1" id="Layer_1" xmlns="http://www.w3.org/2000/svg" xmlns:xlink="http://www.w3.org/1999/xlink" x="0px" y="0px"
	 viewBox="0 0 512 512" style="enable-background:new 0 0 512 512;" xml:space="preserve">
<g>
	<path style="fill:#535353;" d="M256,459.034c-111.951,0-203.034-91.083-203.034-203.034S144.049,52.966,256,52.966
		S459.034,144.049,459.034,256S367.951,459.034,256,459.034"/>
	<g>
		<path style="fill:#A4A4A4;" d="M256,370.759c-4.882,0-8.828,3.946-8.828,8.828v79.448c0,4.882,3.946,8.828,8.828,8.828
			s8.828-3.946,8.828-8.828v-79.448C264.828,374.705,260.882,370.759,256,370.759"/>
		<path style="fill:#A4A4A4;" d="M256,44.138c-4.882,0-8.828,3.946-8.828,8.828v79.448c0,4.882,3.946,8.828,8.828,8.828
			s8.828-3.946,8.828-8.828V52.966C264.828,48.084,260.882,44.138,256,44.138"/>
		<path style="fill:#A4A4A4;" d="M459.034,247.172h-79.448c-4.882,0-8.828,3.946-8.828,8.828s3.946,8.828,8.828,8.828h79.448
			c4.882,0,8.828-3.946,8.828-8.828S463.916,247.172,459.034,247.172"/>
		<path style="fill:#A4A4A4;" d="M141.241,256c0-4.882-3.946-8.828-8.828-8.828H52.966c-4.882,0-8.828,3.946-8.828,8.828
			s3.946,8.828,8.828,8.828h79.448C137.295,264.828,141.241,260.882,141.241,256"/>
		<path style="fill:#A4A4A4;" d="M349.629,337.147c-3.452-3.452-9.031-3.452-12.482,0c-3.452,3.452-3.452,9.031,0,12.482
			l56.179,56.179c1.73,1.73,3.981,2.586,6.241,2.586c2.26,0,4.52-0.856,6.241-2.586c3.452-3.443,3.452-9.031,0-12.482
			L349.629,337.147z"/>
		<path style="fill:#A4A4A4;" d="M162.37,174.853c1.721,1.721,3.981,2.586,6.241,2.586c2.26,0,4.52-0.865,6.241-2.586
			c3.452-3.452,3.452-9.031,0-12.482l-56.179-56.179c-3.452-3.452-9.039-3.452-12.482,0c-3.452,3.443-3.452,9.031,0,12.482
			L162.37,174.853z"/>
		<path style="fill:#A4A4A4;" d="M337.147,174.853c1.721,1.721,3.981,2.586,6.241,2.586c2.26,0,4.52-0.865,6.241-2.586
			l56.179-56.179c3.452-3.452,3.452-9.039,0-12.482c-3.443-3.452-9.031-3.452-12.482,0l-56.179,56.179
			C333.695,165.823,333.695,171.402,337.147,174.853"/>
		<path style="fill:#A4A4A4;" d="M174.853,337.147c-3.452-3.452-9.031-3.452-12.482,0l-56.179,56.179
			c-3.452,3.452-3.452,9.039,0,12.482c1.721,1.73,3.981,2.586,6.241,2.586c2.26,0,4.511-0.856,6.241-2.586l56.179-56.179
			C178.305,346.177,178.305,340.598,174.853,337.147"/>
		<path style="fill:#A4A4A4;" d="M311.914,366.56c-1.88-4.493-7.071-6.63-11.555-4.723c-4.484,1.88-6.612,7.053-4.723,11.546
			l30.72,73.278c1.412,3.381,4.687,5.42,8.139,5.42c1.139,0,2.295-0.221,3.407-0.697c4.493-1.88,6.612-7.044,4.723-11.546
			L311.914,366.56z"/>
		<path style="fill:#A4A4A4;" d="M200.086,145.44c1.412,3.381,4.687,5.411,8.139,5.411c1.139,0,2.304-0.212,3.416-0.689
			c4.484-1.88,6.612-7.053,4.723-11.546l-30.72-73.278c-1.88-4.493-7.062-6.638-11.546-4.723c-4.493,1.88-6.612,7.044-4.723,11.546
			L200.086,145.44z"/>
		<path style="fill:#A4A4A4;" d="M361.836,211.638c1.412,3.381,4.687,5.411,8.139,5.411c1.139,0,2.304-0.212,3.416-0.689
			l73.269-30.711c4.493-1.88,6.612-7.053,4.732-11.555c-1.88-4.493-7.062-6.63-11.555-4.723l-73.278,30.711
			C362.065,201.963,359.947,207.136,361.836,211.638"/>
		<path style="fill:#A4A4A4;" d="M150.163,300.362c-1.88-4.493-7.071-6.638-11.555-4.723l-73.269,30.711
			c-4.493,1.88-6.612,7.053-4.732,11.555c1.421,3.381,4.696,5.411,8.139,5.411c1.139,0,2.304-0.212,3.416-0.689l73.278-30.711
			C149.934,310.037,152.053,304.864,150.163,300.362"/>
		<path style="fill:#A4A4A4;" d="M447.25,324.725l-73.525-30.084c-4.476-1.836-9.675,0.318-11.52,4.829
			c-1.845,4.511,0.318,9.666,4.829,11.511l73.525,30.093c1.095,0.441,2.225,0.653,3.346,0.653c3.478,0,6.78-2.074,8.174-5.482
			C453.923,331.725,451.761,326.569,447.25,324.725"/>
		<path style="fill:#A4A4A4;" d="M64.749,187.275l73.525,30.084c1.095,0.45,2.225,0.653,3.346,0.653c3.478,0,6.78-2.066,8.174-5.482
			c1.845-4.511-0.318-9.666-4.829-11.511l-73.525-30.093c-4.484-1.836-9.675,0.327-11.52,4.829
			C58.076,180.275,60.239,185.431,64.749,187.275"/>
		<path style="fill:#A4A4A4;" d="M299.465,149.793c1.095,0.45,2.225,0.653,3.346,0.653c3.469,0,6.771-2.066,8.174-5.482
			l30.084-73.525c1.845-4.52-0.318-9.675-4.829-11.52c-4.476-1.827-9.666,0.309-11.52,4.829l-30.084,73.525
			C292.792,142.792,294.954,147.948,299.465,149.793"/>
		<path style="fill:#A4A4A4;" d="M212.535,362.206c-4.476-1.827-9.666,0.318-11.52,4.829L170.93,440.56
			c-1.845,4.52,0.318,9.675,4.829,11.52c1.095,0.441,2.225,0.653,3.346,0.653c3.469,0,6.771-2.066,8.174-5.482l30.084-73.525
			C219.208,369.207,217.046,364.051,212.535,362.206"/>
		<path style="fill:#A4A4A4;" d="M256,459.034c-111.951,0-203.034-91.083-203.034-203.034S144.049,52.966,256,52.966
			S459.034,144.049,459.034,256S367.951,459.034,256,459.034 M256,0C114.617,0,0,114.617,0,256s114.617,256,256,256
			s256-114.617,256-256S397.383,0,256,0"/>
		<path style="fill:#A4A4A4;" d="M379.586,256c0,68.255-55.331,123.586-123.586,123.586S132.414,324.255,132.414,256
			S187.745,132.414,256,132.414S379.586,187.745,379.586,256"/>
	</g>
	<g>
		<path style="fill:#535353;" d="M282.483,317.793c0,14.627-11.855,26.483-26.483,26.483c-14.627,0-26.483-11.855-26.483-26.483
			c0-14.627,11.855-26.483,26.483-26.483C270.627,291.31,282.483,303.166,282.483,317.793"/>
		<path style="fill:#535353;" d="M344.276,256c0,14.627-11.855,26.483-26.483,26.483S291.31,270.627,291.31,256
			c0-14.627,11.855-26.483,26.483-26.483S344.276,241.373,344.276,256"/>
		<path style="fill:#535353;" d="M282.483,194.207c0,14.627-11.855,26.483-26.483,26.483c-14.627,0-26.483-11.855-26.483-26.483
			s11.855-26.483,26.483-26.483C270.627,167.724,282.483,179.58,282.483,194.207"/>
		<path style="fill:#535353;" d="M220.69,256c0,14.627-11.855,26.483-26.483,26.483S167.724,270.627,167.724,256
			c0-14.627,11.855-26.483,26.483-26.483S220.69,241.373,220.69,256"/>
	</g>
</g>
<g>
</g>
<g>
</g>
<g>
</g>
<g>
</g>
<g>
</g>
<g>
</g>
<g>
</g>
<g>
</g>
<g>
</g>
<g>
</g>
<g>
</g>
<g>
</g>
<g>
</g>
<g>
</g>
<g>
</g>
</svg>
