<?xml version="1.0" encoding="iso-8859-1"?>
<!-- Generator: Adobe Illustrator 19.0.0, SVG Export Plug-In . SVG Version: 6.00 Build 0)  -->
<svg version="1.1" id="Layer_1" xmlns="http://www.w3.org/2000/svg" xmlns:xlink="http://www.w3.org/1999/xlink" x="0px" y="0px"
	 viewBox="0 0 512 512" style="enable-background:new 0 0 512 512;" xml:space="preserve">
<g>
	<path style="fill:#A4A4A4;" d="M364.568,196.922l64.185-47.439c-16.631-26.88-39.353-49.602-66.233-66.233l-47.439,64.185
		c-7.583-4.131-15.66-7.433-24.09-9.922l11.855-79.033c-15.051-3.566-30.72-5.517-46.848-5.517c-16.119,0-31.788,1.951-46.839,5.517
		l11.855,79.033c-8.43,2.489-16.516,5.791-24.09,9.922l-47.439-64.185c-26.88,16.631-49.602,39.353-66.233,66.233l64.185,47.439
		c-4.131,7.574-7.433,15.66-9.922,24.09L58.48,209.157c-3.566,15.051-5.517,30.72-5.517,46.839c0,16.128,1.951,31.797,5.517,46.848
		l79.033-11.855c2.489,8.43,5.791,16.508,9.922,24.09L83.25,362.519c16.631,26.88,39.353,49.602,66.233,66.233l47.439-64.185
		c7.574,4.131,15.66,7.433,24.09,9.913l-11.855,79.042c15.051,3.566,30.72,5.508,46.839,5.508c16.128,0,31.797-1.942,46.848-5.508
		L290.99,374.48c8.43-2.481,16.508-5.782,24.09-9.913l47.439,64.185c26.88-16.631,49.602-39.353,66.233-66.233l-64.185-47.439
		c4.131-7.583,7.433-15.66,9.913-24.09l79.042,11.855c3.566-15.051,5.508-30.72,5.508-46.848c0-16.119-1.942-31.788-5.508-46.839
		l-79.042,11.855C372.001,212.582,368.699,204.496,364.568,196.922"/>
	<g>
		<path style="fill:#535353;" d="M256,459.034c-111.951,0-203.034-91.083-203.034-203.034S144.049,52.966,256,52.966
			S459.034,144.049,459.034,256S367.951,459.034,256,459.034 M256,0C114.617,0,0,114.617,0,256s114.617,256,256,256
			s256-114.617,256-256S397.383,0,256,0"/>
		<path style="fill:#535353;" d="M282.483,317.793c0,14.627-11.855,26.483-26.483,26.483c-14.627,0-26.483-11.855-26.483-26.483
			c0-14.627,11.855-26.483,26.483-26.483C270.627,291.31,282.483,303.166,282.483,317.793"/>
		<path style="fill:#535353;" d="M344.276,256c0,14.627-11.855,26.483-26.483,26.483S291.31,270.627,291.31,256
			c0-14.627,11.855-26.483,26.483-26.483S344.276,241.373,344.276,256"/>
		<path style="fill:#535353;" d="M282.483,194.207c0,14.627-11.855,26.483-26.483,26.483c-14.627,0-26.483-11.855-26.483-26.483
			s11.855-26.483,26.483-26.483C270.627,167.724,282.483,179.58,282.483,194.207"/>
		<path style="fill:#535353;" d="M220.69,256c0,14.627-11.855,26.483-26.483,26.483S167.724,270.627,167.724,256
			c0-14.627,11.855-26.483,26.483-26.483S220.69,241.373,220.69,256"/>
	</g>
	<path style="fill:#383838;" d="M291.31,256c0-12.668,8.907-23.234,20.798-25.838c-6.17-13.33-16.94-24.09-30.279-30.243
		c-2.622,11.873-13.171,20.771-25.83,20.771c-12.668,0-23.234-8.907-25.838-20.798c-13.321,6.17-24.09,16.94-30.243,30.279
		c11.873,2.622,20.771,13.171,20.771,25.83s-8.898,23.208-20.771,25.83c6.153,13.338,16.923,24.108,30.243,30.279
		c2.604-11.891,13.171-20.798,25.838-20.798c12.668,0,23.234,8.907,25.838,20.798c13.321-6.17,24.09-16.94,30.243-30.279
		C300.209,279.208,291.31,268.659,291.31,256"/>
</g>
<g>
</g>
<g>
</g>
<g>
</g>
<g>
</g>
<g>
</g>
<g>
</g>
<g>
</g>
<g>
</g>
<g>
</g>
<g>
</g>
<g>
</g>
<g>
</g>
<g>
</g>
<g>
</g>
<g>
</g>
</svg>
