<?xml version="1.0" encoding="iso-8859-1"?>
<!-- Generator: Adobe Illustrator 19.0.0, SVG Export Plug-In . SVG Version: 6.00 Build 0)  -->
<svg version="1.1" id="Layer_1" xmlns="http://www.w3.org/2000/svg" xmlns:xlink="http://www.w3.org/1999/xlink" x="0px" y="0px"
	 viewBox="0 0 511.997 511.997" style="enable-background:new 0 0 511.997 511.997;" xml:space="preserve">
<g>
	<path style="fill:#A4A4A4;" d="M324.475,58.603L58.601,324.477c19.346,106.633,112.613,187.52,224.823,187.52
		c126.245,0,228.571-102.336,228.571-228.571C511.995,171.216,431.109,77.949,324.475,58.603"/>
	<path style="fill:#FECA09;" d="M42.845,340.233L42.845,340.233l297.39-297.39l0,0c-57.125-57.125-149.751-57.125-206.875,0
		l-90.514,90.514C-14.279,190.482-14.279,283.109,42.845,340.233"/>
	<path style="fill:#535353;" d="M374.856,283.427c0,50.496-40.933,91.429-91.429,91.429s-91.429-40.933-91.429-91.429
		s40.933-91.429,91.429-91.429S374.856,232.931,374.856,283.427"/>
	<path style="fill:#A4A4A4;" d="M283.428,319.998c-20.169,0-36.571-16.402-36.571-36.571c0-20.169,16.402-36.571,36.571-36.571
		c20.169,0,36.571,16.402,36.571,36.571C319.999,303.596,303.597,319.998,283.428,319.998"/>
	<g>
		<path style="fill:#535353;" d="M283.428,411.427c5.047,0,9.143,4.096,9.143,9.143s-4.096,9.143-9.143,9.143
			s-9.143-4.096-9.143-9.143S278.381,411.427,283.428,411.427"/>
		<path style="fill:#535353;" d="M283.428,457.141c5.047,0,9.143,4.096,9.143,9.143s-4.096,9.143-9.143,9.143
			s-9.143-4.096-9.143-9.143S278.381,457.141,283.428,457.141"/>
		<path style="fill:#535353;" d="M283.428,137.141c5.047,0,9.143,4.096,9.143,9.143s-4.096,9.143-9.143,9.143
			s-9.143-4.096-9.143-9.143S278.381,137.141,283.428,137.141"/>
		<path style="fill:#535353;" d="M475.428,283.427c0,5.047-4.096,9.143-9.143,9.143c-5.047,0-9.143-4.096-9.143-9.143
			c0-5.047,4.096-9.143,9.143-9.143C471.332,274.284,475.428,278.38,475.428,283.427"/>
		<path style="fill:#535353;" d="M429.713,283.427c0,5.047-4.096,9.143-9.143,9.143c-5.047,0-9.143-4.096-9.143-9.143
			c0-5.047,4.096-9.143,9.143-9.143C425.617,274.284,429.713,278.38,429.713,283.427"/>
		<path style="fill:#535353;" d="M192.918,373.936c3.575,3.575,3.575,9.362,0,12.928c-3.575,3.575-9.362,3.575-12.928,0
			c-3.575-3.566-3.575-9.353,0-12.928C183.556,370.362,189.343,370.362,192.918,373.936"/>
		<path style="fill:#535353;" d="M160.592,406.261c3.575,3.575,3.575,9.362,0,12.928c-3.575,3.575-9.362,3.575-12.928,0
			c-3.575-3.566-3.575-9.353,0-12.928C151.23,402.686,157.018,402.686,160.592,406.261"/>
		<path style="fill:#535353;" d="M419.192,147.663c3.575,3.575,3.575,9.362,0,12.928c-3.575,3.575-9.362,3.575-12.928,0
			c-3.575-3.566-3.575-9.353,0-12.928C409.829,144.088,415.617,144.088,419.192,147.663"/>
		<path style="fill:#535353;" d="M386.867,179.987c3.575,3.575,3.575,9.362,0,12.928c-3.575,3.575-9.362,3.575-12.928,0
			c-3.575-3.566-3.575-9.353,0-12.928C377.505,176.412,383.292,176.412,386.867,179.987"/>
		<path style="fill:#535353;" d="M419.192,419.191c-3.575,3.575-9.362,3.575-12.928,0c-3.575-3.575-3.575-9.362,0-12.928
			c3.566-3.575,9.353-3.575,12.928,0C422.767,409.829,422.767,415.616,419.192,419.191"/>
		<path style="fill:#535353;" d="M386.867,386.866c-3.575,3.575-9.362,3.575-12.928,0c-3.575-3.575-3.575-9.362,0-12.928
			c3.566-3.575,9.353-3.575,12.928,0C390.442,377.504,390.442,383.291,386.867,386.866"/>
	</g>
	<g>
		<path style="fill:#FC5923;" d="M198.008,90.775c2.341,0,4.681-0.896,6.464-2.679l79.973-79.973
			c-6.674-2.295-13.44-4.233-20.325-5.541l-72.576,72.585c-3.575,3.575-3.575,9.353,0,12.928
			C193.327,89.879,195.667,90.775,198.008,90.775"/>
		<path style="fill:#FC5923;" d="M302.688,15.744l-46.501,46.491c-3.575,3.575-3.575,9.362,0,12.937
			c1.783,1.783,4.123,2.67,6.464,2.67s4.681-0.887,6.464-2.67l49.847-49.847C313.705,21.751,308.274,18.56,302.688,15.744"/>
		<path style="fill:#FC5923;" d="M5.385,275.826l76.645-76.645c3.566-3.566,3.566-9.353,0-12.928c-3.575-3.566-9.362-3.566-12.928,0
			L1.161,254.194C2.03,261.481,3.419,268.713,5.385,275.826"/>
		<path style="fill:#FC5923;" d="M20.957,311.968l41.673-41.673c3.575-3.575,3.575-9.362,0-12.928
			c-3.566-3.575-9.353-3.575-12.928,0l-37.559,37.559C14.667,300.759,17.638,306.437,20.957,311.968"/>
	</g>
</g>
<g>
</g>
<g>
</g>
<g>
</g>
<g>
</g>
<g>
</g>
<g>
</g>
<g>
</g>
<g>
</g>
<g>
</g>
<g>
</g>
<g>
</g>
<g>
</g>
<g>
</g>
<g>
</g>
<g>
</g>
</svg>
