<?xml version="1.0" encoding="iso-8859-1"?>
<!-- Generator: Adobe Illustrator 19.0.0, SVG Export Plug-In . SVG Version: 6.00 Build 0)  -->
<svg version="1.1" id="Layer_1" xmlns="http://www.w3.org/2000/svg" xmlns:xlink="http://www.w3.org/1999/xlink" x="0px" y="0px"
	 viewBox="0 0 512 512" style="enable-background:new 0 0 512 512;" xml:space="preserve">
<g>
	<path style="fill:#A4A4A4;" d="M512,256c0,141.383-114.617,256-256,256S0,397.383,0,256S114.617,0,256,0S512,114.617,512,256"/>
	<path style="fill:#535353;" d="M379.586,256c0,68.255-55.331,123.586-123.586,123.586S132.414,324.255,132.414,256
		S187.745,132.414,256,132.414S379.586,187.745,379.586,256"/>
	<g>
		<path style="fill:#A4A4A4;" d="M282.483,194.207c0,14.627-11.855,26.483-26.483,26.483c-14.627,0-26.483-11.855-26.483-26.483
			s11.855-26.483,26.483-26.483C270.627,167.724,282.483,179.58,282.483,194.207"/>
		<path style="fill:#A4A4A4;" d="M282.483,317.793c0,14.627-11.855,26.483-26.483,26.483c-14.627,0-26.483-11.855-26.483-26.483
			c0-14.627,11.855-26.483,26.483-26.483C270.627,291.31,282.483,303.166,282.483,317.793"/>
		<path style="fill:#A4A4A4;" d="M220.69,256c0,14.627-11.855,26.483-26.483,26.483S167.724,270.627,167.724,256
			c0-14.627,11.855-26.483,26.483-26.483S220.69,241.373,220.69,256"/>
		<path style="fill:#A4A4A4;" d="M344.276,256c0,14.627-11.855,26.483-26.483,26.483S291.31,270.627,291.31,256
			c0-14.627,11.855-26.483,26.483-26.483S344.276,241.373,344.276,256"/>
		<path style="fill:#A4A4A4;" d="M264.828,256c0,4.873-3.955,8.828-8.828,8.828s-8.828-3.955-8.828-8.828s3.955-8.828,8.828-8.828
			S264.828,251.127,264.828,256"/>
	</g>
	<g>
		<path style="fill:#535353;" d="M63.457,167.171c4.511,1.854,6.656,7.018,4.802,11.52c-1.854,4.511-7.018,6.665-11.52,4.802
			c-4.511-1.854-6.665-7.009-4.802-11.52C53.791,167.462,58.946,165.317,63.457,167.171"/>
		<path style="fill:#535353;" d="M104.271,183.977c4.511,1.854,6.656,7.018,4.802,11.52c-1.854,4.511-7.018,6.665-11.529,4.802
			c-4.502-1.854-6.656-7.009-4.793-11.52C94.604,184.268,99.76,182.123,104.271,183.977"/>
		<path style="fill:#535353;" d="M414.452,311.699c4.511,1.854,6.656,7.018,4.802,11.52c-1.854,4.511-7.018,6.665-11.529,4.802
			c-4.502-1.854-6.656-7.009-4.793-11.52C404.785,311.99,409.941,309.845,414.452,311.699"/>
		<path style="fill:#535353;" d="M455.265,328.504c4.511,1.854,6.656,7.018,4.802,11.52c-1.854,4.511-7.018,6.665-11.52,4.802
			c-4.511-1.854-6.665-7.009-4.802-11.52C445.599,328.795,450.754,326.65,455.265,328.504"/>
		<path style="fill:#535353;" d="M344.829,63.457c-1.854,4.511-7.018,6.656-11.52,4.802c-4.511-1.854-6.665-7.018-4.802-11.529
			c1.854-4.502,7.009-6.656,11.52-4.793C344.538,53.791,346.683,58.946,344.829,63.457"/>
		<path style="fill:#535353;" d="M328.023,104.271c-1.854,4.511-7.018,6.656-11.52,4.802c-4.511-1.854-6.665-7.018-4.802-11.529
			c1.854-4.502,7.009-6.656,11.52-4.793C327.732,94.604,329.877,99.76,328.023,104.271"/>
		<path style="fill:#535353;" d="M200.301,414.452c-1.854,4.511-7.018,6.656-11.52,4.802c-4.511-1.854-6.665-7.018-4.802-11.52
			c1.854-4.511,7.009-6.665,11.52-4.802C200.01,404.785,202.155,409.941,200.301,414.452"/>
		<path style="fill:#535353;" d="M183.496,455.265c-1.854,4.511-7.018,6.656-11.52,4.802c-4.511-1.854-6.665-7.018-4.802-11.529
			c1.854-4.502,7.009-6.656,11.52-4.793C183.205,445.599,185.35,450.754,183.496,455.265"/>
		<path style="fill:#535353;" d="M182.663,57.039c1.871,4.502-0.256,9.666-4.749,11.546c-4.502,1.871-9.675-0.256-11.546-4.758
			c-1.88-4.502,0.247-9.666,4.749-11.538C175.619,50.41,180.792,52.537,182.663,57.039"/>
		<path style="fill:#535353;" d="M199.639,97.782c1.871,4.502-0.256,9.666-4.749,11.546c-4.502,1.871-9.675-0.256-11.546-4.758
			c-1.88-4.502,0.256-9.666,4.749-11.538C192.594,91.153,197.767,93.28,199.639,97.782"/>
		<path style="fill:#535353;" d="M328.658,407.427c1.871,4.502-0.256,9.666-4.749,11.546c-4.502,1.871-9.675-0.256-11.546-4.758
			c-1.88-4.502,0.247-9.666,4.749-11.538C321.614,400.797,326.787,402.925,328.658,407.427"/>
		<path style="fill:#535353;" d="M345.634,448.169c1.871,4.502-0.256,9.666-4.758,11.546c-4.493,1.871-9.666-0.256-11.538-4.758
			c-1.88-4.502,0.247-9.666,4.749-11.538C338.59,441.54,343.763,443.667,345.634,448.169"/>
		<path style="fill:#535353;" d="M454.96,182.663c-4.502,1.871-9.666-0.256-11.546-4.749c-1.871-4.502,0.256-9.675,4.758-11.546
			c4.502-1.88,9.666,0.247,11.538,4.749C461.589,175.619,459.462,180.792,454.96,182.663"/>
		<path style="fill:#535353;" d="M414.218,199.639c-4.502,1.871-9.666-0.256-11.546-4.749c-1.871-4.502,0.256-9.675,4.758-11.546
			c4.502-1.88,9.666,0.247,11.538,4.749C420.847,192.595,418.72,197.768,414.218,199.639"/>
		<path style="fill:#535353;" d="M104.572,328.658c-4.502,1.871-9.666-0.256-11.546-4.749c-1.871-4.502,0.256-9.675,4.758-11.546
			c4.502-1.88,9.666,0.247,11.546,4.749C111.202,321.614,109.075,326.787,104.572,328.658"/>
		<path style="fill:#535353;" d="M63.831,345.634c-4.502,1.871-9.666-0.256-11.546-4.749c-1.871-4.502,0.256-9.675,4.758-11.546
			c4.502-1.88,9.666,0.256,11.538,4.749C70.46,338.589,68.333,343.762,63.831,345.634"/>
	</g>
</g>
<g>
</g>
<g>
</g>
<g>
</g>
<g>
</g>
<g>
</g>
<g>
</g>
<g>
</g>
<g>
</g>
<g>
</g>
<g>
</g>
<g>
</g>
<g>
</g>
<g>
</g>
<g>
</g>
<g>
</g>
</svg>
