<?xml version="1.0" encoding="iso-8859-1"?>
<!-- Generator: Adobe Illustrator 19.0.0, SVG Export Plug-In . SVG Version: 6.00 Build 0)  -->
<svg version="1.1" id="Layer_1" xmlns="http://www.w3.org/2000/svg" xmlns:xlink="http://www.w3.org/1999/xlink" x="0px" y="0px"
	 viewBox="0 0 512 512" style="enable-background:new 0 0 512 512;" xml:space="preserve">
<g>
	<path style="fill:#A4A4A4;" d="M512,256c0,141.383-114.617,256-256,256S0,397.383,0,256S114.617,0,256,0S512,114.617,512,256"/>
	<path style="fill:#535353;" d="M379.586,256c0,68.255-55.331,123.586-123.586,123.586S132.414,324.255,132.414,256
		S187.745,132.414,256,132.414S379.586,187.745,379.586,256"/>
	<g>
		<path style="fill:#A4A4A4;" d="M282.483,194.207c0,14.627-11.855,26.483-26.483,26.483c-14.627,0-26.483-11.855-26.483-26.483
			s11.855-26.483,26.483-26.483C270.627,167.724,282.483,179.58,282.483,194.207"/>
		<path style="fill:#A4A4A4;" d="M282.483,317.793c0,14.627-11.855,26.483-26.483,26.483c-14.627,0-26.483-11.855-26.483-26.483
			c0-14.627,11.855-26.483,26.483-26.483C270.627,291.31,282.483,303.166,282.483,317.793"/>
		<path style="fill:#A4A4A4;" d="M220.69,256c0,14.627-11.855,26.483-26.483,26.483S167.724,270.627,167.724,256
			c0-14.627,11.855-26.483,26.483-26.483S220.69,241.373,220.69,256"/>
		<path style="fill:#A4A4A4;" d="M344.276,256c0,14.627-11.855,26.483-26.483,26.483S291.31,270.627,291.31,256
			c0-14.627,11.855-26.483,26.483-26.483S344.276,241.373,344.276,256"/>
	</g>
	<g>
		<path style="fill:#535353;" d="M256,105.379c-4.873,0-8.828-3.946-8.828-8.828c0-24.038-19.553-43.582-43.591-43.582
			c-4.873,0-8.828-3.955-8.828-8.828c0-4.882,3.955-8.828,8.828-8.828c33.774,0,61.246,27.471,61.246,61.237
			C264.828,101.433,260.873,105.379,256,105.379"/>
		<path style="fill:#535353;" d="M308.966,476.69c-34.074,0-61.793-27.727-61.793-61.793c0-4.882,3.955-8.828,8.828-8.828
			s8.828,3.946,8.828,8.828c0,23.923,20.215,44.138,44.138,44.138c4.873,0,8.828,3.946,8.828,8.828
			C317.793,472.744,313.838,476.69,308.966,476.69"/>
		<path style="fill:#535353;" d="M44.138,317.793c-4.873,0-8.828-3.946-8.828-8.828c0-34.066,27.719-61.793,61.793-61.793
			c4.873,0,8.828,3.946,8.828,8.828s-3.955,8.828-8.828,8.828c-23.923,0-44.138,20.215-44.138,44.138
			C52.966,313.847,49.011,317.793,44.138,317.793"/>
		<path style="fill:#535353;" d="M414.897,264.828c-4.882,0-8.828-3.946-8.828-8.828s3.946-8.828,8.828-8.828
			c23.923,0,44.138-20.215,44.138-44.138c0-4.882,3.946-8.828,8.828-8.828c4.882,0,8.828,3.946,8.828,8.828
			C476.69,237.1,448.962,264.828,414.897,264.828"/>
		<path style="fill:#535353;" d="M143.254,152.086c-2.26,0-4.52-0.865-6.241-2.587c-8.245-8.245-19.191-12.782-30.826-12.782
			S83.606,141.255,75.37,149.5c-3.452,3.452-9.039,3.452-12.482,0c-3.452-3.452-3.452-9.031,0-12.482
			c11.573-11.582,26.951-17.955,43.299-17.955c16.358,0,31.735,6.374,43.308,17.955c3.452,3.452,3.452,9.031,0,12.482
			C147.774,151.221,145.514,152.086,143.254,152.086"/>
		<path style="fill:#535353;" d="M405.81,392.552c-16.605,0-32.124-6.382-43.697-17.955c-3.443-3.452-3.443-9.039,0-12.482
			c3.452-3.452,9.039-3.452,12.482,0c8.245,8.236,19.332,12.782,31.214,12.782c11.891,0,22.969-4.546,31.206-12.782
			c3.452-3.452,9.039-3.452,12.482,0c3.452,3.443,3.452,9.031,0,12.482C437.934,386.17,422.415,392.552,405.81,392.552"/>
		<path style="fill:#535353;" d="M143.642,452.086c-2.26,0-4.52-0.865-6.241-2.586c-11.582-11.573-17.955-27.083-17.955-43.688
			c0-16.605,6.374-32.124,17.955-43.697c3.452-3.452,9.031-3.452,12.482,0c3.452,3.443,3.452,9.031,0,12.482
			c-8.245,8.236-12.782,19.324-12.782,31.214c0,11.882,4.537,22.961,12.782,31.206c3.452,3.452,3.452,9.031,0,12.482
			C148.162,451.221,145.902,452.086,143.642,452.086"/>
		<path style="fill:#535353;" d="M368.358,152.474c-2.26,0-4.52-0.865-6.241-2.586c-3.452-3.452-3.452-9.031,0-12.482
			c8.245-8.245,12.782-19.324,12.782-31.214s-4.537-22.969-12.782-31.206c-3.452-3.452-3.452-9.039,0-12.482
			c3.452-3.452,9.031-3.452,12.482,0c11.582,11.564,17.955,27.083,17.955,43.688s-6.374,32.124-17.955,43.697
			C372.877,151.609,370.617,152.474,368.358,152.474"/>
	</g>
	<path style="fill:#A4A4A4;" d="M264.828,256c0,4.873-3.955,8.828-8.828,8.828s-8.828-3.955-8.828-8.828s3.955-8.828,8.828-8.828
		S264.828,251.127,264.828,256"/>
</g>
<g>
</g>
<g>
</g>
<g>
</g>
<g>
</g>
<g>
</g>
<g>
</g>
<g>
</g>
<g>
</g>
<g>
</g>
<g>
</g>
<g>
</g>
<g>
</g>
<g>
</g>
<g>
</g>
<g>
</g>
</svg>
