<?xml version="1.0" encoding="iso-8859-1"?>
<!-- Generator: Adobe Illustrator 19.0.0, SVG Export Plug-In . SVG Version: 6.00 Build 0)  -->
<svg version="1.1" id="Layer_1" xmlns="http://www.w3.org/2000/svg" xmlns:xlink="http://www.w3.org/1999/xlink" x="0px" y="0px"
	 viewBox="0 0 512 512" style="enable-background:new 0 0 512 512;" xml:space="preserve">
<g>
	<path style="fill:#397ABC;" d="M458.142,141.241H52.073c-16.04,21.663-20.868,49.443-15.775,78.133l15.775,63.108h406.069
		l15.775-63.108C480.697,192.282,474.897,163.584,458.142,141.241"/>
	<polygon style="fill:#4897F7;" points="459.034,141.241 52.966,141.241 114.759,0 397.241,0 	"/>
	<g>
		<path style="fill:#A4A4A4;" d="M176.552,353.103h-70.621c-9.754,0-17.655-7.901-17.655-17.655v-52.966h105.931v52.966
			C194.207,345.203,186.306,353.103,176.552,353.103"/>
		<path style="fill:#A4A4A4;" d="M414.897,353.103h-70.621c-9.754,0-17.655-7.901-17.655-17.655v-52.966h105.931v52.966
			C432.552,345.203,424.651,353.103,414.897,353.103"/>
	</g>
	<polygon style="fill:#397ABC;" points="397.241,105.931 114.759,105.931 141.241,35.31 370.759,35.31 	"/>
	<g>
		<path style="fill:#4897F7;" d="M136.196,388.414h48.967c0,0-18.105,6.753-31.144,18.37c-11.026,9.825-10.249,27.251,0.547,37.332
			c18.035,16.825,45.082,48.19,21.769,67.884H96.887c0,0,25.379-30.897-8.828-52.966c-25.653-16.552-26.898-35.999-4.193-53.689
			C98.688,393.799,117.411,388.414,136.196,388.414"/>
		<path style="fill:#4897F7;" d="M374.541,388.414h48.967c0,0-18.105,6.753-31.144,18.37c-11.026,9.825-10.249,27.251,0.547,37.332
			c18.035,16.825,45.082,48.19,21.769,67.884h-79.448c0,0,25.379-30.897-8.828-52.966c-25.653-16.552-26.898-35.999-4.193-53.689
			C337.033,393.799,355.756,388.414,374.541,388.414"/>
	</g>
	<g>
		<path style="fill:#FECA09;" d="M473.92,219.372c2.816-11.246,3.337-22.758,1.933-33.995h-60.954l-26.483,52.966h80.764
			L473.92,219.372z"/>
		<path style="fill:#FECA09;" d="M97.103,185.379H35.16c-1.271,10.964-0.927,22.387,1.139,33.995l4.74,18.97h82.547L97.103,185.379z
			"/>
	</g>
	<g>
		<path style="fill:#397ABC;" d="M83.862,70.621H31.258C14.001,70.621,0,84.621,0,101.879v21.707h60.69L83.862,70.621z"/>
		<path style="fill:#397ABC;" d="M428.138,70.621h52.604c17.258,0,31.258,14.001,31.258,31.258v21.707h-60.69L428.138,70.621z"/>
	</g>
</g>
<g>
</g>
<g>
</g>
<g>
</g>
<g>
</g>
<g>
</g>
<g>
</g>
<g>
</g>
<g>
</g>
<g>
</g>
<g>
</g>
<g>
</g>
<g>
</g>
<g>
</g>
<g>
</g>
<g>
</g>
</svg>
