<?xml version="1.0" encoding="iso-8859-1"?>
<!-- Generator: Adobe Illustrator 19.0.0, SVG Export Plug-In . SVG Version: 6.00 Build 0)  -->
<svg version="1.1" id="Layer_1" xmlns="http://www.w3.org/2000/svg" xmlns:xlink="http://www.w3.org/1999/xlink" x="0px" y="0px"
	 viewBox="0 0 512 512" style="enable-background:new 0 0 512 512;" xml:space="preserve">
<g>
	<g>
		<path style="fill:#992C13;" d="M167.723,419.31c0,24.373-19.765,44.138-44.138,44.138s-44.138-19.765-44.138-44.138
			s19.765-44.138,44.138-44.138S167.723,394.937,167.723,419.31"/>
		<path style="fill:#992C13;" d="M450.206,419.31c0,24.373-19.765,44.138-44.138,44.138s-44.138-19.765-44.138-44.138
			s19.765-44.138,44.138-44.138S450.206,394.937,450.206,419.31"/>
	</g>
	<path style="fill:#C6421E;" d="M220.69,216.276c-11.246,3.822-21.451,14.195-29.511,23.261l-12.191,13.718
		c-24.329,27.374-57.785,44.977-94.129,49.514l-53.928,6.744C13.259,311.72,0,326.744,0,344.549V384c0,19.5,15.81,35.31,35.31,35.31
		h44.138c0-24.373,19.756-44.138,44.138-44.138c24.373,0,44.138,19.765,44.138,44.138h194.207c0-24.373,19.756-44.138,44.138-44.138
		c24.373,0,44.138,19.765,44.138,44.138h26.483c19.5,0,35.31-15.81,35.31-35.31v-61.793c0-18.741-14.601-34.074-33.05-35.24
		c-24.108-1.518-46.539-12.712-59.065-33.359l-2.41-3.972c-11.917-19.65-32.75-32.044-55.543-33.262L220.69,216.276z"/>
	<path style="fill:#FECA09;" d="M255.999,295.724V185.22c-21.283-14.248-35.31-38.506-35.31-66.048
		c0-31.197,17.973-57.618,44.138-70.621V128h52.966V48.552c26.165,13.003,44.138,39.424,44.138,70.621
		c0,27.542-14.027,51.8-35.31,66.048v110.504c0,19.5-15.81,35.31-35.31,35.31C271.809,331.034,255.999,315.224,255.999,295.724"/>
</g>
<g>
</g>
<g>
</g>
<g>
</g>
<g>
</g>
<g>
</g>
<g>
</g>
<g>
</g>
<g>
</g>
<g>
</g>
<g>
</g>
<g>
</g>
<g>
</g>
<g>
</g>
<g>
</g>
<g>
</g>
</svg>
