<?xml version="1.0" encoding="iso-8859-1"?>
<!-- Generator: Adobe Illustrator 19.0.0, SVG Export Plug-In . SVG Version: 6.00 Build 0)  -->
<svg version="1.1" id="Layer_1" xmlns="http://www.w3.org/2000/svg" xmlns:xlink="http://www.w3.org/1999/xlink" x="0px" y="0px"
	 viewBox="0 0 511.998 511.998" style="enable-background:new 0 0 511.998 511.998;" xml:space="preserve">
<g>
	<path style="fill:#74B73E;" d="M259.565,44.288v141.594c0,24.179-19.959,43.785-44.138,43.785h-70.974
		c-24.179,0-43.785-19.606-43.785-43.785V44.288C100.669,20.109,120.275,0,144.453,0h70.974
		C239.606,0,259.565,20.109,259.565,44.288"/>
	<path style="fill:#599922;" d="M215.427,61.791v8.828c0,9.278-8.377,17.655-17.655,17.655h-35.31
		c-9.278,0-17.655-8.377-17.655-17.655v-8.828c0-9.278,8.377-17.655,17.655-17.655l35.31,0.15
		C207.05,44.286,215.427,52.514,215.427,61.791"/>
	<g>
		<path style="fill:#CDD1D3;" d="M153.634,309.116l26.483,17.655l-26.483,17.655v67.681l17.302,11.767l-17.302,11.767v5.588
			c0,23.296,5.976,46.168,17.973,66.154c3.69,6.153,12.623,6.153,16.313,0c11.988-19.986,18.679-42.858,18.679-66.154v-49.726
			l-17.655-11.767l17.655-11.767V229.667h-52.966V309.116z"/>
		<path style="fill:#CDD1D3;" d="M316.453,315.365l30.411,9.401l-20.374,24.452l19.226,64.892l20.268,6.268l-13.577,16.305
			l1.58,5.35c6.621,22.343,21.257,42.876,38.426,58.633c5.297,4.855,13.859,2.313,15.651-4.643
			c5.817-22.563,3.328-46.698-3.293-69.041l-14.124-47.669l-20.277-6.268l13.586-16.305l-39.3-132.599l-50.776,15.051
			L316.453,315.365z"/>
	</g>
	<path style="fill:#FECA09;" d="M383.001,167.111L342.765,31.352c-6.868-23.181-31.232-36.405-54.413-29.537l-41.048,12.164
		c7.539,7.971,12.262,18.635,12.262,30.305v141.594c0,16.437-9.322,30.588-22.819,38.073c10.381,15.51,29.837,23.331,48.666,17.743
		l68.052-20.162C376.645,214.657,389.869,190.293,383.001,167.111"/>
	<path style="fill:#FC5923;" d="M308.218,70.109l-2.993-10.108c-2.639-8.898-11.988-13.974-20.877-11.335l-24.788,7.345v45.842
		c0.609-0.106,1.218-0.168,1.827-0.344l35.496-10.522C305.782,88.346,310.858,79.007,308.218,70.109"/>
</g>
<g>
</g>
<g>
</g>
<g>
</g>
<g>
</g>
<g>
</g>
<g>
</g>
<g>
</g>
<g>
</g>
<g>
</g>
<g>
</g>
<g>
</g>
<g>
</g>
<g>
</g>
<g>
</g>
<g>
</g>
</svg>
