<?xml version="1.0" encoding="iso-8859-1"?>
<!-- Generator: Adobe Illustrator 19.0.0, SVG Export Plug-In . SVG Version: 6.00 Build 0)  -->
<svg version="1.1" id="Layer_1" xmlns="http://www.w3.org/2000/svg" xmlns:xlink="http://www.w3.org/1999/xlink" x="0px" y="0px"
	 viewBox="0 0 512.005 512.005" style="enable-background:new 0 0 512.005 512.005;" xml:space="preserve">
<g>
	<path style="fill:#74B73E;" d="M251.696,429.589C111.833,429.181,0,351.721,0,256.168C0,160.607,111.798,82.01,251.661,82.418l0,0
		c34.651,112.9,34.729,233.368,0.243,346.485L251.696,429.589z"/>
	<path style="fill:#74B73E;" d="M503.322,342.407c-1.102,0-2.213-0.208-3.289-0.651l-190.915-78.102
		c-4.434-1.814-6.561-6.882-4.747-11.316c1.814-4.443,6.925-6.535,11.325-4.747l190.915,78.102
		c4.434,1.814,6.561,6.882,4.747,11.316C509.987,340.367,506.741,342.407,503.322,342.407"/>
	<path style="fill:#74B73E;" d="M503.322,255.627c-1.102,0-2.213-0.208-3.289-0.651l-190.915-78.102
		c-4.434-1.814-6.561-6.882-4.747-11.316c1.814-4.443,6.925-6.535,11.325-4.747l190.915,78.102
		c4.434,1.814,6.561,6.882,4.747,11.316C509.987,253.588,506.741,255.627,503.322,255.627"/>
	<path style="fill:#74B73E;" d="M503.322,429.186c-1.102,0-2.213-0.208-3.289-0.651l-190.915-78.102
		c-4.434-1.814-6.561-6.882-4.747-11.316c1.814-4.443,6.925-6.543,11.325-4.747l190.915,78.102
		c4.434,1.814,6.561,6.882,4.747,11.316C509.987,427.147,506.741,429.186,503.322,429.186"/>
</g>
<g>
</g>
<g>
</g>
<g>
</g>
<g>
</g>
<g>
</g>
<g>
</g>
<g>
</g>
<g>
</g>
<g>
</g>
<g>
</g>
<g>
</g>
<g>
</g>
<g>
</g>
<g>
</g>
<g>
</g>
</svg>
