<?xml version="1.0" encoding="iso-8859-1"?>
<!-- Generator: Adobe Illustrator 19.0.0, SVG Export Plug-In . SVG Version: 6.00 Build 0)  -->
<svg version="1.1" id="Layer_1" xmlns="http://www.w3.org/2000/svg" xmlns:xlink="http://www.w3.org/1999/xlink" x="0px" y="0px"
	 viewBox="0 0 512 512" style="enable-background:new 0 0 512 512;" xml:space="preserve">
<g>
	<polygon style="fill:#576D7E;" points="0,485.517 512,485.517 512,26.483 0,26.483 	"/>
	<g>
		<path style="fill:#34485C;" d="M450.348,291.022l-21.681,21.681c-17.311,18.538-44.8,18.582-61.378,0l-21.672-21.681
			c-25.212-18.379-25.45-49.708,0-70.047l21.672-21.672c16.772-18.6,44.262-18.538,61.378,0l21.681,21.672
			C473.618,240.59,473.794,271.892,450.348,291.022"/>
		<path style="fill:#34485C;" d="M167.865,291.022l-21.681,21.681c-17.311,18.538-44.8,18.582-61.378,0l-21.672-21.681
			c-25.212-18.379-25.45-49.708,0-70.047l21.672-21.672c16.772-18.6,44.262-18.538,61.378,0l21.681,21.672
			C191.135,240.59,191.311,271.892,167.865,291.022"/>
		<path style="fill:#34485C;" d="M114.763,194.207c-4.873,0-8.828-3.946-8.828-8.828v-82.097c0-4.882,3.955-8.828,8.828-8.828
			s8.828,3.946,8.828,8.828v82.097C123.591,190.261,119.636,194.207,114.763,194.207"/>
		<path style="fill:#34485C;" d="M397.246,194.207c-4.873,0-8.828-3.946-8.828-8.828v-70.621c0-4.882,3.955-8.828,8.828-8.828
			c4.873,0,8.828,3.946,8.828,8.828v70.621C406.073,190.261,402.119,194.207,397.246,194.207"/>
		<path style="fill:#34485C;" d="M397.246,406.069c-4.873,0-8.828-3.946-8.828-8.828v-70.621c0-4.882,3.955-8.828,8.828-8.828
			c4.873,0,8.828,3.946,8.828,8.828v70.621C406.073,402.123,402.119,406.069,397.246,406.069"/>
		<path style="fill:#34485C;" d="M114.763,407.905c-4.873,0-8.828-3.946-8.828-8.828v-72.457c0-4.882,3.955-8.828,8.828-8.828
			s8.828,3.946,8.828,8.828v72.457C123.591,403.959,119.636,407.905,114.763,407.905"/>
		<path style="fill:#34485C;" d="M326.625,264.828H185.384c-4.873,0-8.828-3.946-8.828-8.828s3.955-8.828,8.828-8.828h141.241
			c4.873,0,8.828,3.946,8.828,8.828S331.498,264.828,326.625,264.828"/>
		<path style="fill:#34485C;" d="M160.646,112.941L74.259,94.765c-4.767-1.006-7.821-5.685-6.815-10.461l3.637-17.276
			c0.998-4.767,5.685-7.821,10.452-6.815L167.92,78.39c4.767,0.998,7.821,5.685,6.815,10.452l-3.637,17.276
			C170.101,110.893,165.413,113.947,160.646,112.941"/>
		<path style="fill:#34485C;" d="M441.384,114.759h-88.276c-4.873,0-8.828-3.955-8.828-8.828V88.276
			c0-4.873,3.955-8.828,8.828-8.828h88.276c4.873,0,8.828,3.955,8.828,8.828v17.655
			C450.211,110.804,446.257,114.759,441.384,114.759"/>
		<path style="fill:#34485C;" d="M441.384,432.552h-88.276c-4.873,0-8.828-3.955-8.828-8.828v-17.655
			c0-4.873,3.955-8.828,8.828-8.828h88.276c4.873,0,8.828,3.955,8.828,8.828v17.655
			C450.211,428.597,446.257,432.552,441.384,432.552"/>
		<path style="fill:#34485C;" d="M151.819,442.963l-86.387-18.176c-4.767-1.006-7.821-5.685-6.815-10.461l3.637-17.276
			c0.998-4.767,5.685-7.821,10.452-6.815l86.387,18.176c4.767,0.997,7.821,5.685,6.815,10.452l-3.637,17.276
			C161.273,440.915,156.585,443.969,151.819,442.963"/>
	</g>
</g>
<g>
</g>
<g>
</g>
<g>
</g>
<g>
</g>
<g>
</g>
<g>
</g>
<g>
</g>
<g>
</g>
<g>
</g>
<g>
</g>
<g>
</g>
<g>
</g>
<g>
</g>
<g>
</g>
<g>
</g>
</svg>
