<?xml version="1.0" encoding="iso-8859-1"?>
<!-- Generator: Adobe Illustrator 19.0.0, SVG Export Plug-In . SVG Version: 6.00 Build 0)  -->
<svg version="1.1" id="Layer_1" xmlns="http://www.w3.org/2000/svg" xmlns:xlink="http://www.w3.org/1999/xlink" x="0px" y="0px"
	 viewBox="0 0 512.001 512.001" style="enable-background:new 0 0 512.001 512.001;" xml:space="preserve">
<g>
	<path style="fill:#535353;" d="M105.49,493.9c-24.135,24.135-63.258,24.135-87.393,0c-24.126-24.135-24.126-63.258,0-87.384
		c24.135-24.135,63.258-24.135,87.393,0C129.625,430.641,129.625,469.765,105.49,493.9"/>
	<g>
		<path style="fill:#A4A4A4;" d="M80.521,468.932c-10.346,10.346-27.11,10.346-37.455,0c-10.337-10.346-10.337-27.11,0-37.455
			c10.346-10.337,27.11-10.337,37.455,0C90.867,441.822,90.867,458.586,80.521,468.932"/>
		<polygon style="fill:#A4A4A4;" points="192.878,381.543 130.458,319.123 280.262,169.31 342.691,231.73 		"/>
		<polygon style="fill:#A4A4A4;" points="348.929,188.04 323.965,163.076 430.858,56.173 455.822,81.147 		"/>
	</g>
	<polygon style="fill:#535353;" points="474.55,99.872 412.13,37.452 437.095,12.488 499.514,74.907 	"/>
	<polygon style="fill:#A4A4A4;" points="487.034,62.42 449.579,24.964 474.552,0 511.998,37.455 	"/>
	<g>
		<polygon style="fill:#535353;" points="373.897,262.945 249.057,138.105 274.022,113.132 398.861,237.98 		"/>
		<polygon style="fill:#535353;" points="199.12,437.722 74.28,312.882 99.244,287.909 224.084,412.758 		"/>
	</g>
	<g>
		<path style="fill:#C6421E;" d="M348.925,282.129c-11.785,0-22.863-4.599-31.206-12.941l-74.911-74.902
			c-10.319-10.328-27.118-10.328-37.447,0c-3.443,3.443-9.031,3.443-12.482,0c-3.443-3.452-3.443-9.039,0-12.482
			c8.351-8.351,19.421-12.941,31.206-12.941c11.785,0,22.863,4.59,31.214,12.941l74.902,74.902
			c10.328,10.337,27.127,10.319,37.455,0c3.452-3.452,9.039-3.452,12.482,0c3.452,3.452,3.452,9.039,0,12.482
			C371.797,277.53,360.718,282.129,348.925,282.129"/>
		<path style="fill:#C6421E;" d="M298.993,332.059c-11.785,0-22.863-4.599-31.206-12.941l-74.911-74.902
			c-10.328-10.337-27.136-10.319-37.455,0c-3.443,3.443-9.031,3.443-12.482,0c-3.443-3.452-3.443-9.039,0-12.482
			c8.351-8.351,19.421-12.941,31.214-12.941c11.785,0,22.863,4.59,31.214,12.941l74.902,74.902
			c10.328,10.328,27.118,10.328,37.447,0c3.452-3.452,9.039-3.452,12.482,0c3.452,3.452,3.452,9.039,0,12.482
			C321.857,327.46,310.778,332.059,298.993,332.059"/>
		<path style="fill:#C6421E;" d="M249.054,381.999c-11.785,0-22.863-4.599-31.206-12.941l-74.911-74.902
			c-10.328-10.337-27.136-10.319-37.455,0c-3.443,3.443-9.031,3.443-12.482,0c-3.443-3.452-3.443-9.039,0-12.482
			c8.351-8.351,19.421-12.941,31.206-12.941c11.794,0,22.872,4.59,31.223,12.941l74.902,74.902
			c10.337,10.337,27.136,10.319,37.455,0c3.452-3.452,9.039-3.452,12.482,0c3.452,3.452,3.452,9.039,0,12.482
			C271.926,377.4,260.847,381.999,249.054,381.999"/>
	</g>
	<path style="fill:#A4A4A4;" d="M105.49,406.511c12.235,12.235,18.238,28.319,18.07,44.35l44.35-44.35l-62.42-62.42l-44.35,44.35
		C77.171,388.273,93.255,394.276,105.49,406.511"/>
</g>
<g>
</g>
<g>
</g>
<g>
</g>
<g>
</g>
<g>
</g>
<g>
</g>
<g>
</g>
<g>
</g>
<g>
</g>
<g>
</g>
<g>
</g>
<g>
</g>
<g>
</g>
<g>
</g>
<g>
</g>
</svg>
