<?xml version="1.0" encoding="iso-8859-1"?>
<!-- Generator: Adobe Illustrator 19.0.0, SVG Export Plug-In . SVG Version: 6.00 Build 0)  -->
<svg version="1.1" id="Layer_1" xmlns="http://www.w3.org/2000/svg" xmlns:xlink="http://www.w3.org/1999/xlink" x="0px" y="0px"
	 viewBox="0 0 512.002 512.002" style="enable-background:new 0 0 512.002 512.002;" xml:space="preserve">
<g>
	<path style="fill:#CDCED1;" d="M251.661,56.409C112.675,56.409,0,169.084,0,308.07c0,59.036,20.385,113.282,54.42,156.203h394.483
		c34.035-42.921,54.42-97.167,54.42-156.203C503.322,169.084,390.647,56.409,251.661,56.409"/>
	<g>
		<path style="fill:#C6421E;" d="M451.254,117.155c-2.222,0-4.443-0.85-6.135-2.543c-3.393-3.393-3.393-8.878,0-12.271
			l52.068-52.068c3.393-3.393,8.878-3.393,12.271,0c3.393,3.393,3.393,8.878,0,12.271l-52.068,52.068
			C455.697,116.304,453.476,117.155,451.254,117.155"/>
		<path style="fill:#C6421E;" d="M494.644,117.155h-43.39c-4.799,0-8.678-3.888-8.678-8.678s3.879-8.678,8.678-8.678h43.39
			c4.799,0,8.678,3.888,8.678,8.678S499.443,117.155,494.644,117.155"/>
		<path style="fill:#C6421E;" d="M451.254,117.155c-4.799,0-8.678-3.888-8.678-8.678v-43.39c0-4.79,3.879-8.678,8.678-8.678
			s8.678,3.888,8.678,8.678v43.39C459.932,113.267,456.053,117.155,451.254,117.155"/>
		<path style="fill:#C6421E;" d="M236.441,276.864c-13.789,6.734-22.45,22.337-18.562,39.381c2.864,12.548,13.06,22.736,25.6,25.6
			c17.052,3.896,32.655-4.773,39.389-18.562c9.98-20.428,19.135-41.255,30.833-60.754l24.741-41.238l-41.238,24.741
			C277.704,257.729,256.877,266.876,236.441,276.864"/>
	</g>
	<g>
		<path style="fill:#3F3F3F;" d="M58.784,386.651c-1.805-4.434-6.873-6.587-11.316-4.764l-31.935,13.017
			c2.005,5.441,4.122,10.839,6.491,16.098l31.996-13.034C58.454,396.153,60.589,391.094,58.784,386.651"/>
		<path style="fill:#3F3F3F;" d="M78.102,308.07c0-4.79-3.888-8.678-8.678-8.678H0.217C0.121,302.282,0,305.163,0,308.07
			c0,2.924,0.278,5.78,0.373,8.678h69.051C74.214,316.748,78.102,312.86,78.102,308.07"/>
		<path style="fill:#3F3F3F;" d="M59.708,227.252c1.857-4.417-0.208-9.511-4.625-11.368l-31.848-13.407
			c-2.43,5.233-4.686,10.561-6.751,15.985l31.857,13.425c1.102,0.46,2.248,0.677,3.367,0.677
			C55.091,232.563,58.311,230.567,59.708,227.252"/>
		<path style="fill:#3F3F3F;" d="M67.72,136.401l24.402,24.402c1.692,1.692,3.914,2.534,6.135,2.534
			c2.213,0,4.434-0.842,6.135-2.534c3.384-3.393,3.384-8.886,0-12.279L79.991,124.13C75.765,128.079,71.669,132.175,67.72,136.401"
			/>
		<path style="fill:#3F3F3F;" d="M161.767,110.43c1.371,3.367,4.617,5.406,8.044,5.406c1.085,0,2.196-0.208,3.272-0.642
			c4.434-1.814,6.569-6.873,4.764-11.316l-13.069-32.056c-5.45,2.005-10.778,4.244-16.046,6.613L161.767,110.43z"/>
		<path style="fill:#3F3F3F;" d="M251.661,134.511c4.79,0,8.678-3.888,8.678-8.678V56.626c-2.89-0.095-5.771-0.217-8.678-0.217
			c-2.907,0-5.788,0.121-8.678,0.217v69.207C242.983,130.623,246.871,134.511,251.661,134.511"/>
		<path style="fill:#3F3F3F;" d="M332.479,116.117c1.102,0.469,2.239,0.686,3.367,0.686c3.384,0,6.604-1.996,8.001-5.311
			l13.407-31.848c-5.233-2.43-10.561-4.686-15.985-6.751l-13.425,31.857C325.988,109.174,328.062,114.26,332.479,116.117"/>
		<path style="fill:#3F3F3F;" d="M423.33,124.129l-24.402,24.402c-3.384,3.384-3.384,8.878,0,12.271
			c1.701,1.692,3.922,2.543,6.144,2.543c2.213,0,4.434-0.85,6.135-2.543l24.394-24.402
			C431.652,132.174,427.556,128.078,423.33,124.129"/>
	</g>
	<g>
		<path style="fill:#C6421E;" d="M455.852,234.253l32.065-13.06c-2.013-5.458-4.252-10.787-6.621-16.054L449.3,218.172
			c-4.434,1.814-6.569,6.873-4.764,11.316c1.371,3.367,4.625,5.406,8.044,5.406C453.674,234.895,454.776,234.686,455.852,234.253"/>
		<path style="fill:#C6421E;" d="M503.322,308.07c0-2.907-0.121-5.788-0.217-8.678h-69.207c-4.79,0-8.678,3.888-8.678,8.678
			c0,4.79,3.888,8.678,8.678,8.678h69.051C503.044,313.849,503.322,310.994,503.322,308.07"/>
		<path style="fill:#C6421E;" d="M486.698,397.616l-31.718-13.355c-4.426-1.857-9.502,0.208-11.368,4.625
			c-1.857,4.417,0.217,9.511,4.625,11.368l31.787,13.39C482.454,408.403,484.624,403.04,486.698,397.616"/>
	</g>
</g>
<g>
</g>
<g>
</g>
<g>
</g>
<g>
</g>
<g>
</g>
<g>
</g>
<g>
</g>
<g>
</g>
<g>
</g>
<g>
</g>
<g>
</g>
<g>
</g>
<g>
</g>
<g>
</g>
<g>
</g>
</svg>
