<?xml version="1.0" encoding="iso-8859-1"?>
<!-- Generator: Adobe Illustrator 19.0.0, SVG Export Plug-In . SVG Version: 6.00 Build 0)  -->
<svg version="1.1" id="Layer_1" xmlns="http://www.w3.org/2000/svg" xmlns:xlink="http://www.w3.org/1999/xlink" x="0px" y="0px"
	 viewBox="0 0 512 512" style="enable-background:new 0 0 512 512;" xml:space="preserve">
<g>
	<polygon style="fill:#535353;" points="125.827,295.051 299.387,295.051 299.387,52.068 125.827,52.068 	"/>
	<g>
		<polygon style="fill:#A4A4A4;" points="143.183,52.068 177.895,52.068 177.895,0 143.183,0 		"/>
		<polygon style="fill:#A4A4A4;" points="212.607,52.068 247.319,52.068 247.319,0 212.607,0 		"/>
		<polygon style="fill:#A4A4A4;" points="169.217,329.763 255.997,329.763 255.997,295.051 169.217,295.051 		"/>
		<path style="fill:#A4A4A4;" d="M160.544,208.271c-4.79,0-8.678-3.879-8.678-8.678v-26.034c0-4.799,3.888-8.678,8.678-8.678
			s8.678,3.879,8.678,8.678v26.034C169.222,204.392,165.334,208.271,160.544,208.271"/>
		<path style="fill:#A4A4A4;" d="M177.9,182.237h-17.356c-4.79,0-8.678-3.879-8.678-8.678c0-4.799,3.888-8.678,8.678-8.678H177.9
			c4.79,0,8.678,3.879,8.678,8.678C186.578,178.358,182.69,182.237,177.9,182.237"/>
	</g>
	<g>
		<path style="fill:#535353;" d="M212.611,381.831l17.356,17.356l22.433-17.356c-9.138-12.652-13.807-30.026-13.755-52.007
			l-52.068-0.121c-0.078,31.137,6.812,57.266,20.411,78.136L212.611,381.831z"/>
		<path style="fill:#535353;" d="M363.306,430.72c-20.645-20.628-45.507-22.858-55.235-22.858l-2.152,0.095
			c-0.174,0.009-23.882-0.095-23.882-0.095l-17.356,26.034h-33.974c33.731,27.119,69.051,26.503,77.945,26.043
			c2.734,0.095,11.177,0.955,17.833,7.602c7.255,7.255,7.619,16.618,7.619,18.423v17.356h52.068v-17.356
			C386.173,476.236,383.942,451.374,363.306,430.72"/>
	</g>
	<g>
		<path style="fill:#D25759;" d="M169.222,477.288c-2.222,0-4.443-0.85-6.135-2.543c-3.393-3.393-3.393-8.878,0-12.271
			l17.356-17.356c3.393-3.393,8.878-3.393,12.271,0c3.393,3.393,3.393,8.878,0,12.271l-17.356,17.356
			C173.665,476.438,171.443,477.288,169.222,477.288"/>
		<path style="fill:#D25759;" d="M221.289,512c-4.79,0-8.678-3.879-8.678-8.678v-26.034c0-4.799,3.888-8.678,8.678-8.678
			s8.678,3.879,8.678,8.678v26.034C229.967,508.121,226.08,512,221.289,512"/>
		<path style="fill:#D25759;" d="M169.222,425.22h-26.034c-4.79,0-8.678-3.879-8.678-8.678c0-4.799,3.888-8.678,8.678-8.678h26.034
			c4.79,0,8.678,3.879,8.678,8.678C177.9,421.341,174.012,425.22,169.222,425.22"/>
	</g>
	<path style="fill:#A4A4A4;" d="M160.544,208.271c4.79,0,8.678-3.879,8.678-8.678c0-4.799-3.888-8.678-8.678-8.678h-34.712v17.356
		H160.544z"/>
</g>
<g>
</g>
<g>
</g>
<g>
</g>
<g>
</g>
<g>
</g>
<g>
</g>
<g>
</g>
<g>
</g>
<g>
</g>
<g>
</g>
<g>
</g>
<g>
</g>
<g>
</g>
<g>
</g>
<g>
</g>
</svg>
