<?xml version="1.0" encoding="iso-8859-1"?>
<!-- Generator: Adobe Illustrator 19.0.0, SVG Export Plug-In . SVG Version: 6.00 Build 0)  -->
<svg version="1.1" id="Layer_1" xmlns="http://www.w3.org/2000/svg" xmlns:xlink="http://www.w3.org/1999/xlink" x="0px" y="0px"
	 viewBox="0 0 504.533 504.533" style="enable-background:new 0 0 504.533 504.533;" xml:space="preserve">
<g>
	<path style="fill:#C6421E;" d="M248.567,422.96C111.036,422.559,0,346.39,0,252.43C0,158.461,111.002,81.174,248.533,81.575l0,0
		c34.074,111.019,34.15,229.478,0.239,340.71L248.567,422.96z"/>
	<path style="fill:#C6421E;" d="M385.067,414.03c-0.973,0-1.963-0.171-2.935-0.529c-4.42-1.613-6.699-6.519-5.077-10.94
		c18.458-50.415,0.307-95.761,0.128-96.213c-0.862-2.116-20.617-51.746,0.188-108.587c18.278-49.946,0.563-86.758,0.384-87.125
		c-2.091-4.207-0.384-9.327,3.823-11.426c4.198-2.116,9.301-0.427,11.426,3.772c0.879,1.749,21.333,43.426,0.393,100.642
		c-18.56,50.714-0.614,95.795-0.427,96.247c0.845,2.039,20.924,51.678,0.111,108.553C391.817,411.889,388.548,414.03,385.067,414.03
		"/>
	<path style="fill:#C6421E;" d="M496,260.426H308.267c-4.71,0-8.533-3.823-8.533-8.533s3.823-8.533,8.533-8.533H496
		c4.719,0,8.533,3.823,8.533,8.533S500.719,260.426,496,260.426"/>
	<path style="fill:#C6421E;" d="M496,175.093H308.267c-4.71,0-8.533-3.823-8.533-8.533s3.823-8.533,8.533-8.533H496
		c4.719,0,8.533,3.823,8.533,8.533S500.719,175.093,496,175.093"/>
	<path style="fill:#C6421E;" d="M496,345.76H308.267c-4.71,0-8.533-3.823-8.533-8.533c0-4.71,3.823-8.533,8.533-8.533H496
		c4.719,0,8.533,3.823,8.533,8.533C504.533,341.937,500.719,345.76,496,345.76"/>
</g>
<g>
</g>
<g>
</g>
<g>
</g>
<g>
</g>
<g>
</g>
<g>
</g>
<g>
</g>
<g>
</g>
<g>
</g>
<g>
</g>
<g>
</g>
<g>
</g>
<g>
</g>
<g>
</g>
<g>
</g>
</svg>
