<?xml version="1.0" encoding="iso-8859-1"?>
<!-- Generator: Adobe Illustrator 19.0.0, SVG Export Plug-In . SVG Version: 6.00 Build 0)  -->
<svg version="1.1" id="Layer_1" xmlns="http://www.w3.org/2000/svg" xmlns:xlink="http://www.w3.org/1999/xlink" x="0px" y="0px"
	 viewBox="0 0 512 512" style="enable-background:new 0 0 512 512;" xml:space="preserve">
<g>
	<path style="fill:#4897F7;" d="M459.034,392.828L459.034,392.828c-129.783-47.113-273.002-47.183-406.069,0L0,102.753
		l91.648-25.962c108.959-26.094,222.685-25.671,328.704,0L512,102.753L459.034,392.828z"/>
	<g>
		<path style="fill:#C6421E;" d="M185.466,454.621c-2.666,0-5.297-1.201-7.036-3.478c-2.322-3.045-2.348-7.115-0.38-10.152
			c1.677-4.043,25.962-67.814-25.891-130.834c-29.873-36.308-28.557-74.982-28.487-76.606c0.212-4.873,4.29-8.545,9.198-8.439
			c4.873,0.212,8.651,4.334,8.439,9.198c-0.009,0.309-0.927,33.757,24.479,64.636c36.122,43.9,39.662,88.002,36.255,117.275
			c-1.439,12.403-6.012,32.609-11.238,36.59C189.209,454.029,187.328,454.621,185.466,454.621"/>
		<path style="fill:#C6421E;" d="M291.388,454.621c-2.666,0-5.297-1.201-7.036-3.478c-2.322-3.045-2.348-7.115-0.38-10.152
			c1.677-4.043,25.962-67.814-25.891-130.834c-29.873-36.308-28.557-74.982-28.487-76.606c0.212-4.873,4.582-8.545,9.198-8.439
			c4.873,0.212,8.651,4.334,8.439,9.198c-0.009,0.309-0.927,33.757,24.479,64.636c36.122,43.9,39.662,88.002,36.255,117.275
			c-1.439,12.403-6.012,32.609-11.237,36.59C295.131,454.029,293.251,454.621,291.388,454.621"/>
		<path style="fill:#C6421E;" d="M397.319,454.621c-2.666,0-5.297-1.201-7.036-3.478c-2.322-3.045-2.348-7.115-0.38-10.152
			c1.677-4.043,25.962-67.814-25.891-130.834c-29.873-36.308-28.557-74.982-28.487-76.606c0.212-4.873,4.537-8.545,9.198-8.439
			c4.873,0.212,8.651,4.334,8.439,9.198c-0.009,0.309-0.927,33.757,24.479,64.636c36.122,43.9,39.662,88.002,36.255,117.275
			c-1.439,12.403-6.012,32.609-11.237,36.59C401.062,454.029,399.182,454.621,397.319,454.621"/>
		<polygon style="fill:#C6421E;" points="132.469,172.138 167.779,233.931 97.158,233.931 		"/>
		<polygon style="fill:#C6421E;" points="238.4,172.138 273.71,233.931 203.089,233.931 		"/>
		<polygon style="fill:#C6421E;" points="344.331,172.138 379.641,233.931 309.02,233.931 		"/>
	</g>
</g>
<g>
</g>
<g>
</g>
<g>
</g>
<g>
</g>
<g>
</g>
<g>
</g>
<g>
</g>
<g>
</g>
<g>
</g>
<g>
</g>
<g>
</g>
<g>
</g>
<g>
</g>
<g>
</g>
<g>
</g>
</svg>
