<?xml version="1.0" encoding="iso-8859-1"?>
<!-- Generator: Adobe Illustrator 19.0.0, SVG Export Plug-In . SVG Version: 6.00 Build 0)  -->
<svg version="1.1" id="Layer_1" xmlns="http://www.w3.org/2000/svg" xmlns:xlink="http://www.w3.org/1999/xlink" x="0px" y="0px"
	 viewBox="0 0 512 512" style="enable-background:new 0 0 512 512;" xml:space="preserve">
<g>
	<path style="fill:#FECA09;" d="M409.6,251.732c0,84.83-68.77,153.6-153.6,153.6s-153.6-68.77-153.6-153.6s68.77-153.6,153.6-153.6
		S409.6,166.903,409.6,251.732"/>
	<g>
		<path style="fill:#FC5923;" d="M256,98.132c28.006,0,54.187,7.62,76.8,20.719V4.266H179.2v114.586
			C201.813,105.753,227.994,98.132,256,98.132"/>
		<path style="fill:#FC5923;" d="M68.267,260.268H8.533c-4.719,0-8.533-3.814-8.533-8.533c0-4.719,3.814-8.533,8.533-8.533h59.733
			c4.71,0,8.533,3.814,8.533,8.533C76.8,256.453,72.977,260.268,68.267,260.268"/>
		<path style="fill:#FC5923;" d="M503.467,260.268h-59.733c-4.719,0-8.533-3.814-8.533-8.533c0-4.719,3.814-8.533,8.533-8.533
			h59.733c4.71,0,8.533,3.814,8.533,8.533C512,256.453,508.177,260.268,503.467,260.268"/>
		<path style="fill:#FC5923;" d="M256,507.734c-4.71,0-8.533-3.814-8.533-8.533v-59.733c0-4.719,3.823-8.533,8.533-8.533
			c4.71,0,8.533,3.814,8.533,8.533v59.733C264.533,503.92,260.71,507.734,256,507.734"/>
		<path style="fill:#FC5923;" d="M76.8,439.468c-2.185,0-4.369-0.836-6.033-2.5c-3.337-3.337-3.337-8.73,0-12.066l42.667-42.667
			c3.337-3.337,8.73-3.337,12.066,0c3.337,3.337,3.337,8.73,0,12.066l-42.667,42.667C81.169,438.631,78.985,439.468,76.8,439.468"/>
		<path style="fill:#FC5923;" d="M392.533,123.734c-2.185,0-4.369-0.836-6.033-2.5c-3.337-3.337-3.337-8.73,0-12.066l42.667-42.667
			c3.337-3.337,8.73-3.337,12.066,0s3.337,8.73,0,12.066l-42.667,42.667C396.902,122.898,394.718,123.734,392.533,123.734"/>
		<path style="fill:#FC5923;" d="M435.2,439.468c-2.185,0-4.369-0.836-6.033-2.5L386.5,394.301c-3.337-3.337-3.337-8.73,0-12.066
			c3.337-3.337,8.73-3.337,12.066,0l42.667,42.667c3.337,3.337,3.337,8.73,0,12.066C439.569,438.631,437.385,439.468,435.2,439.468"
			/>
		<path style="fill:#FC5923;" d="M119.467,123.734c-2.185,0-4.369-0.836-6.033-2.5L70.767,78.567c-3.337-3.337-3.337-8.73,0-12.066
			s8.73-3.337,12.066,0l42.667,42.667c3.337,3.337,3.337,8.73,0,12.066C123.836,122.898,121.651,123.734,119.467,123.734"/>
	</g>
	<g>
		<path style="fill:#FFFFFF;" d="M256,294.401c-4.71,0-8.533-3.814-8.533-8.533v-128c0-4.719,3.823-8.533,8.533-8.533
			c4.71,0,8.533,3.814,8.533,8.533v128C264.533,290.586,260.71,294.401,256,294.401"/>
		<path style="fill:#FFFFFF;" d="M264.533,328.533c0,4.71-3.823,8.533-8.533,8.533c-4.71,0-8.533-3.823-8.533-8.533
			c0-4.71,3.823-8.533,8.533-8.533C260.71,319.999,264.533,323.822,264.533,328.533"/>
	</g>
</g>
<g>
</g>
<g>
</g>
<g>
</g>
<g>
</g>
<g>
</g>
<g>
</g>
<g>
</g>
<g>
</g>
<g>
</g>
<g>
</g>
<g>
</g>
<g>
</g>
<g>
</g>
<g>
</g>
<g>
</g>
</svg>
