<?xml version="1.0" encoding="iso-8859-1"?>
<!-- Generator: Adobe Illustrator 19.0.0, SVG Export Plug-In . SVG Version: 6.00 Build 0)  -->
<svg version="1.1" id="Layer_1" xmlns="http://www.w3.org/2000/svg" xmlns:xlink="http://www.w3.org/1999/xlink" x="0px" y="0px"
	 viewBox="0 0 512.007 512.007" style="enable-background:new 0 0 512.007 512.007;" xml:space="preserve">
<g>
	<path style="fill:#4897F7;" d="M236.834,219.178l-33.792-33.792l-24.973-24.973c-6.621-6.621-15.598-10.337-24.964-10.337H70.628
		v-35.31c0-9.754-7.91-17.655-17.655-17.655H35.318c-9.754,0-17.655,7.901-17.655,17.655v35.31c-9.754,0-17.655,7.901-17.655,17.655
		v326.621c0,9.746,7.901,17.655,17.655,17.655h211.862c9.746,0,17.655-7.91,17.655-17.655V244.143
		C247.18,234.786,243.455,225.799,236.834,219.178"/>
	<path style="fill:#FECA09;" d="M501.662,130.904l-67.584-67.593c-6.63-6.621-15.607-10.346-24.973-10.346H291.31v-35.31
		C291.31,7.91,283.409,0,273.655,0h-35.31c-9.746,0-17.655,7.91-17.655,17.655v35.31h-8.828c-19.5,0-35.31,15.81-35.31,35.31v70.894
		c0.494,0.441,1.05,0.777,1.518,1.245l24.964,24.964l33.801,33.801c6.621,6.621,10.337,15.598,10.337,24.964v250.2
		c0,9.754-7.901,17.655-17.655,17.655h247.172c19.509,0,35.31-15.801,35.31-35.31V155.869
		C512,146.511,508.283,137.525,501.662,130.904"/>
	<path style="fill:#397ABC;" d="M61.797,423.728V238.348c0-9.754,7.901-17.655,17.655-17.655h54.484
		c4.679,0,9.172,1.863,12.482,5.173l33.792,33.792c3.31,3.31,5.173,7.804,5.173,12.482v151.587c0,9.754-7.901,17.655-17.655,17.655
		H79.452C69.698,441.383,61.797,433.482,61.797,423.728"/>
	<g>
		<path style="fill:#4897F7;" d="M132.418,300.141h-26.483c-4.873,0-8.828-3.946-8.828-8.828c0-4.882,3.955-8.828,8.828-8.828
			h26.483c4.873,0,8.828,3.946,8.828,8.828C141.245,296.196,137.291,300.141,132.418,300.141"/>
		<path style="fill:#4897F7;" d="M132.418,344.279h-26.483c-4.873,0-8.828-3.946-8.828-8.828c0-4.882,3.955-8.828,8.828-8.828
			h26.483c4.873,0,8.828,3.946,8.828,8.828C141.245,340.333,137.291,344.279,132.418,344.279"/>
		<path style="fill:#4897F7;" d="M132.418,388.417h-26.483c-4.873,0-8.828-3.946-8.828-8.828c0-4.882,3.955-8.828,8.828-8.828
			h26.483c4.873,0,8.828,3.946,8.828,8.828C141.245,384.471,137.291,388.417,132.418,388.417"/>
	</g>
	<path style="fill:#FC5923;" d="M387.166,105.935H247.178c-9.754,0-17.655,7.901-17.655,17.655v80.967
		c0,4.679,1.863,9.172,5.173,12.482l7.309,7.309c3.31,3.31,5.173,7.804,5.173,12.482v204.553c0,9.754,7.901,17.655,17.655,17.655
		h176.552c9.746,0,17.655-7.901,17.655-17.655V177.809c0-9.366-3.725-18.344-10.346-24.964l-36.555-36.564
		C405.51,109.651,396.532,105.935,387.166,105.935"/>
	<g>
		<path style="fill:#FECA09;" d="M360.038,181.583l-15.757-31.506l-12.632,25.265c-7.15,14.301-14.398,28.725-24.188,41.366
			c-4.078,5.279-6.674,11.158-7.212,18.653c-1.536,21.451,13.568,41.807,34.631,46.159c28.487,5.87,53.539-15.722,53.539-43.167
			c0-7.15-2.074-13.118-5.411-18.414C375.054,207.315,366.712,194.93,360.038,181.583"/>
		<path style="fill:#FECA09;" d="M388.418,344.279h-88.276c-4.873,0-8.828-3.946-8.828-8.828c0-4.882,3.955-8.828,8.828-8.828
			h88.276c4.873,0,8.828,3.946,8.828,8.828C397.245,340.333,393.291,344.279,388.418,344.279"/>
		<path style="fill:#FECA09;" d="M406.073,388.417H282.487c-4.873,0-8.828-3.946-8.828-8.828c0-4.882,3.955-8.828,8.828-8.828
			h123.586c4.873,0,8.828,3.946,8.828,8.828C414.901,384.471,410.946,388.417,406.073,388.417"/>
	</g>
</g>
<g>
</g>
<g>
</g>
<g>
</g>
<g>
</g>
<g>
</g>
<g>
</g>
<g>
</g>
<g>
</g>
<g>
</g>
<g>
</g>
<g>
</g>
<g>
</g>
<g>
</g>
<g>
</g>
<g>
</g>
</svg>
