<?xml version="1.0" encoding="iso-8859-1"?>
<!-- Generator: Adobe Illustrator 19.0.0, SVG Export Plug-In . SVG Version: 6.00 Build 0)  -->
<svg version="1.1" id="Layer_1" xmlns="http://www.w3.org/2000/svg" xmlns:xlink="http://www.w3.org/1999/xlink" x="0px" y="0px"
	 viewBox="0 0 511.998 511.998" style="enable-background:new 0 0 511.998 511.998;" xml:space="preserve">
<g>
	<path style="fill:#FECA09;" d="M301.991,266.497l-41.852-50.22H61.792v141.241H340.17l115.906-173.85
		c3.566-5.358-2.684-11.794-8.139-8.386L301.991,266.497z"/>
	<g>
		<path style="fill:#FC5923;" d="M441.388,198.618c-2.851,0-5.658-1.377-7.353-3.928c-2.71-4.061-1.615-9.543,2.445-12.244
			l26.483-17.655c3.487-2.33,8.157-1.871,11.14,1.103l17.655,17.655c3.452,3.452,3.452,9.031,0,12.482
			c-3.452,3.452-9.031,3.452-12.482,0l-12.535-12.535l-20.462,13.639C444.769,198.141,443.065,198.618,441.388,198.618"/>
		<path style="fill:#FC5923;" d="M158.897,233.928c-4.882,0-8.828-3.955-8.828-8.828v-44.138c0-4.873,3.946-8.828,8.828-8.828
			s8.828,3.955,8.828,8.828V225.1C167.724,229.973,163.778,233.928,158.897,233.928"/>
		<path style="fill:#FC5923;" d="M185.379,189.79h-52.966c-4.882,0-8.828-3.955-8.828-8.828s3.946-8.828,8.828-8.828h52.966
			c4.882,0,8.828,3.955,8.828,8.828S190.261,189.79,185.379,189.79"/>
		<polygon style="fill:#FC5923;" points="70.621,242.756 0,198.618 17.655,154.48 70.621,189.79 		"/>
		<path style="fill:#FC5923;" d="M494.97,279.317l-9.454-18.909l-7.574,15.166c-4.299,8.58-8.642,17.231-14.513,24.823
			c-2.454,3.16-4.008,6.691-4.334,11.185c-0.918,12.871,8.139,25.088,20.78,27.692c17.09,3.531,32.124-9.428,32.124-25.9
			c0-4.29-1.245-7.865-3.249-11.043C503.983,294.756,498.978,287.323,494.97,279.317"/>
	</g>
</g>
<g>
</g>
<g>
</g>
<g>
</g>
<g>
</g>
<g>
</g>
<g>
</g>
<g>
</g>
<g>
</g>
<g>
</g>
<g>
</g>
<g>
</g>
<g>
</g>
<g>
</g>
<g>
</g>
<g>
</g>
</svg>
