<?xml version="1.0" encoding="iso-8859-1"?>
<!-- Generator: Adobe Illustrator 19.0.0, SVG Export Plug-In . SVG Version: 6.00 Build 0)  -->
<svg version="1.1" id="Layer_1" xmlns="http://www.w3.org/2000/svg" xmlns:xlink="http://www.w3.org/1999/xlink" x="0px" y="0px"
	 viewBox="0 0 511.997 511.997" style="enable-background:new 0 0 511.997 511.997;" xml:space="preserve">
<g>
	<path style="fill:#4897F7;" d="M435.199,255.997c0,98.97-80.23,179.2-179.2,179.2s-179.2-80.23-179.2-179.2
		s80.23-179.2,179.2-179.2S435.199,157.028,435.199,255.997"/>
	<g>
		<path style="fill:#25AD87;" d="M81.015,439.514c-2.185,0-4.369-0.836-6.033-2.5C26.624,388.664,0,324.374,0,255.997
			S26.624,123.329,74.982,74.979c3.337-3.328,8.73-3.328,12.066,0c3.337,3.337,3.337,8.738,0,12.066
			c-45.133,45.133-69.982,105.139-69.982,168.951c0,63.821,24.849,123.819,69.982,168.951c3.337,3.337,3.337,8.73,0,12.066
			C85.385,438.678,83.2,439.514,81.015,439.514"/>
		<path style="fill:#25AD87;" d="M430.982,439.514c-2.185,0-4.369-0.836-6.033-2.5c-3.337-3.337-3.337-8.73,0-12.066
			c45.133-45.133,69.982-105.131,69.982-168.951c0-63.812-24.849-123.819-69.982-168.951c-3.337-3.328-3.337-8.73,0-12.066
			c3.337-3.328,8.73-3.328,12.066,0c48.358,48.35,74.982,112.64,74.982,181.018s-26.624,132.668-74.982,181.018
			C435.351,438.678,433.167,439.514,430.982,439.514"/>
	</g>
	<g>
		<path style="fill:#FFFFFF;" d="M221.866,366.931c-4.71,0-8.533-3.814-8.533-8.533V170.664c0-4.719,3.823-8.533,8.533-8.533
			c4.71,0,8.533,3.814,8.533,8.533v187.733C230.399,363.116,226.576,366.931,221.866,366.931"/>
		<path style="fill:#FFFFFF;" d="M230.399,264.531h42.667c23.526,0,42.667-19.14,42.667-42.667s-19.14-42.667-42.667-42.667h-42.667
			V264.531z M273.066,281.597h-51.2c-4.71,0-8.533-3.814-8.533-8.533v-102.4c0-4.719,3.823-8.533,8.533-8.533h51.2
			c32.939,0,59.733,26.803,59.733,59.733S306.004,281.597,273.066,281.597L273.066,281.597z"/>
	</g>
</g>
<g>
</g>
<g>
</g>
<g>
</g>
<g>
</g>
<g>
</g>
<g>
</g>
<g>
</g>
<g>
</g>
<g>
</g>
<g>
</g>
<g>
</g>
<g>
</g>
<g>
</g>
<g>
</g>
<g>
</g>
</svg>
