<?xml version="1.0" encoding="iso-8859-1"?>
<!-- Generator: Adobe Illustrator 19.0.0, SVG Export Plug-In . SVG Version: 6.00 Build 0)  -->
<svg version="1.1" id="Layer_1" xmlns="http://www.w3.org/2000/svg" xmlns:xlink="http://www.w3.org/1999/xlink" x="0px" y="0px"
	 viewBox="0 0 512 512" style="enable-background:new 0 0 512 512;" xml:space="preserve">
<g>
	<g>
		<path style="fill:#25AD87;" d="M199.593,381.831c-4.79,0-8.678-3.879-8.678-8.678c0-4.799,3.888-8.678,8.678-8.678
			c90.919,0,164.881-73.962,164.881-164.881c0-4.799,3.888-8.678,8.678-8.678c4.79,0,8.678,3.879,8.678,8.678
			C381.831,300.075,300.084,381.831,199.593,381.831"/>
		<path style="fill:#25AD87;" d="M199.593,338.441c-4.79,0-8.678-3.879-8.678-8.678c0-4.799,3.888-8.678,8.678-8.678
			c66.994,0,121.492-54.498,121.492-121.492c0-4.799,3.888-8.678,8.678-8.678c4.79,0,8.678,3.879,8.678,8.678
			C338.441,276.15,276.15,338.441,199.593,338.441"/>
		<path style="fill:#25AD87;" d="M199.593,295.051c-4.79,0-8.678-3.879-8.678-8.678c0-4.799,3.888-8.678,8.678-8.678
			c43.06,0,78.102-35.033,78.102-78.102c0-4.799,3.888-8.678,8.678-8.678c4.79,0,8.678,3.879,8.678,8.678
			C295.051,252.225,252.225,295.051,199.593,295.051"/>
	</g>
	<polygon style="fill:#ED8B1B;" points="416.542,303.729 485.966,503.322 347.119,503.322 	"/>
	<path style="fill:#4897F7;" d="M130.169,208.271H52.068V52.068h78.102c43.138,0,78.102,34.964,78.102,78.102
		S173.308,208.271,130.169,208.271 M130.169,0H34.712H0v260.339v242.983h52.068V260.339h78.102
		c71.888,0,130.169-58.281,130.169-130.169S202.058,0,130.169,0"/>
	<path style="fill:#B2671B;" d="M503.322,512H329.763c-4.79,0-8.678-3.879-8.678-8.678c0-4.799,3.888-8.678,8.678-8.678h173.559
		c4.799,0,8.678,3.879,8.678,8.678C512,508.121,508.121,512,503.322,512"/>
</g>
<g>
</g>
<g>
</g>
<g>
</g>
<g>
</g>
<g>
</g>
<g>
</g>
<g>
</g>
<g>
</g>
<g>
</g>
<g>
</g>
<g>
</g>
<g>
</g>
<g>
</g>
<g>
</g>
<g>
</g>
</svg>
