<?xml version="1.0" encoding="iso-8859-1"?>
<!-- Generator: Adobe Illustrator 19.0.0, SVG Export Plug-In . SVG Version: 6.00 Build 0)  -->
<svg version="1.1" id="Layer_1" xmlns="http://www.w3.org/2000/svg" xmlns:xlink="http://www.w3.org/1999/xlink" x="0px" y="0px"
	 viewBox="0 0 512.075 512.075" style="enable-background:new 0 0 512.075 512.075;" xml:space="preserve">
<g>
	<path style="fill:#34485C;" d="M151.146,412.177l153.026-153.026c-10.602-21.716-28.337-39.583-49.735-50.141L101.208,362.24
		c-18.105-7.503-30.208-5.959-41.366-1.236l-22.396-22.387L0,376.064l22.387,22.396c-10.884,25.697-5.888,56.523,15.06,77.48
		c20.957,20.948,51.783,25.944,77.489,15.06l22.457,21.054l37.385-36.114l-22.396-22.387
		C157.105,442.385,158.658,430.283,151.146,412.177"/>
	<path style="fill:#576D7E;" d="M314.684,298.575l-21.522,21.522c-8.801,8.801-8.801,23.058,0,31.859l9.039,9.039l149.804-149.813
		L433.3,192.476l49.938-49.938l12.482,12.482l12.465-12.465c5.111-6.912,5.261-18.105,0-25L395.827,5.199
		c-6.903-6.903-18.088-6.903-25,0l-12.465,12.465l12.482,12.491l-49.938,49.938l-18.706-18.714L152.389,211.182l9.039,9.048
		c8.801,8.792,23.058,8.792,31.859,0l21.522-21.53C266.856,200.766,311.524,245.513,314.684,298.575"/>
	<g>
		<path style="fill:#34485C;" d="M470.746,188.824c-2.26,0-4.52-0.865-6.241-2.586L327.148,48.871
			c-3.443-3.443-3.443-9.031,0-12.482c3.452-3.443,9.039-3.443,12.482,0l137.357,137.366c3.452,3.452,3.452,9.031,0,12.482
			C475.266,187.958,473.006,188.824,470.746,188.824"/>
		<path style="fill:#34485C;" d="M483.238,151.366c-2.26,0-4.52-0.865-6.241-2.587L364.613,36.396
			c-3.452-3.452-3.452-9.039,0-12.482c3.443-3.452,9.031-3.452,12.482,0l112.384,112.384c3.452,3.452,3.452,9.031,0,12.482
			C487.758,150.501,485.498,151.366,483.238,151.366"/>
		<path style="fill:#34485C;" d="M433.298,201.307c-2.26,0-4.52-0.865-6.241-2.586L314.673,86.336
			c-3.452-3.452-3.452-9.039,0-12.482c3.443-3.452,9.031-3.452,12.482,0l112.384,112.384c3.452,3.452,3.452,9.031,0,12.482
			C437.817,200.442,435.558,201.307,433.298,201.307"/>
	</g>
	<path style="fill:#576D7E;" d="M168.54,353.677c-2.26,0-4.52-0.865-6.241-2.586c-3.452-3.452-3.452-9.031,0-12.482l83.721-83.721
		c3.452-3.452,9.039-3.452,12.482,0c3.452,3.443,3.452,9.031,0,12.482l-83.721,83.721C173.06,352.812,170.8,353.677,168.54,353.677"
		/>
	<path style="fill:#34485C;" d="M353.1,185.401c0,14.627-11.855,26.483-26.483,26.483s-26.483-11.855-26.483-26.483
		s11.855-26.483,26.483-26.483S353.1,170.774,353.1,185.401"/>
	<path style="fill:#576D7E;" d="M62.416,450.97c-13.789-13.789-13.789-36.149,0-49.938c13.789-13.789,36.149-13.789,49.938,0
		c13.789,13.789,13.789,36.149,0,49.938S76.205,464.759,62.416,450.97"/>
</g>
<g>
</g>
<g>
</g>
<g>
</g>
<g>
</g>
<g>
</g>
<g>
</g>
<g>
</g>
<g>
</g>
<g>
</g>
<g>
</g>
<g>
</g>
<g>
</g>
<g>
</g>
<g>
</g>
<g>
</g>
</svg>
