<?xml version="1.0" encoding="iso-8859-1"?>
<!-- Generator: Adobe Illustrator 19.0.0, SVG Export Plug-In . SVG Version: 6.00 Build 0)  -->
<svg version="1.1" id="Layer_1" xmlns="http://www.w3.org/2000/svg" xmlns:xlink="http://www.w3.org/1999/xlink" x="0px" y="0px"
	 viewBox="0 0 512 512" style="enable-background:new 0 0 512 512;" xml:space="preserve">
<g>
	<polygon style="fill:#A4A4A4;" points="85.329,384 426.662,384 426.662,128 85.329,128 	"/>
	<g>
		<path style="fill:#535353;" d="M460.8,315.733v-153.6c0-18.85-15.283-34.133-34.133-34.133v256
			c18.85,0,34.133-15.283,34.133-34.133h42.667v-34.133H460.8z"/>
		<path style="fill:#535353;" d="M51.2,196.267v153.6C51.2,368.717,66.483,384,85.333,384V128c-18.85,0-34.133,15.283-34.133,34.133
			H8.533v34.133H51.2z"/>
	</g>
	<g>
		<path style="fill:#A4A4A4;" d="M8.533,230.4C3.814,230.4,0,226.586,0,221.867v-85.333C0,131.814,3.814,128,8.533,128
			s8.533,3.814,8.533,8.533v85.333C17.067,226.586,13.252,230.4,8.533,230.4"/>
		<path style="fill:#A4A4A4;" d="M503.467,384c-4.719,0-8.533-3.814-8.533-8.533v-85.333c0-4.719,3.814-8.533,8.533-8.533
			c4.719,0,8.533,3.814,8.533,8.533v85.333C512,380.186,508.186,384,503.467,384"/>
	</g>
	<g>
		<path style="fill:#535353;" d="M384,179.2H128c-4.719,0-8.533-3.814-8.533-8.533s3.814-8.533,8.533-8.533h256
			c4.719,0,8.533,3.814,8.533,8.533S388.719,179.2,384,179.2"/>
		<path style="fill:#535353;" d="M384,221.867H128c-4.719,0-8.533-3.814-8.533-8.533s3.814-8.533,8.533-8.533h256
			c4.719,0,8.533,3.814,8.533,8.533S388.719,221.867,384,221.867"/>
		<path style="fill:#535353;" d="M384,264.533H128c-4.719,0-8.533-3.814-8.533-8.533c0-4.719,3.814-8.533,8.533-8.533h256
			c4.719,0,8.533,3.814,8.533,8.533C392.533,260.719,388.719,264.533,384,264.533"/>
		<path style="fill:#535353;" d="M384,307.2H128c-4.719,0-8.533-3.814-8.533-8.533s3.814-8.533,8.533-8.533h256
			c4.719,0,8.533,3.814,8.533,8.533S388.719,307.2,384,307.2"/>
		<path style="fill:#535353;" d="M384,349.867H128c-4.719,0-8.533-3.814-8.533-8.533s3.814-8.533,8.533-8.533h256
			c4.719,0,8.533,3.814,8.533,8.533S388.719,349.867,384,349.867"/>
		<path style="fill:#535353;" d="M384,187.733c-4.719,0-8.533-3.814-8.533-8.533v-8.533c0-4.719,3.814-8.533,8.533-8.533
			c4.719,0,8.533,3.814,8.533,8.533v8.533C392.533,183.919,388.719,187.733,384,187.733"/>
		<path style="fill:#535353;" d="M128,179.2c-4.719,0-8.533-3.814-8.533-8.533v-8.533c0-4.719,3.814-8.533,8.533-8.533
			c4.719,0,8.533,3.814,8.533,8.533v8.533C136.533,175.386,132.719,179.2,128,179.2"/>
		<path style="fill:#535353;" d="M128,221.867c-4.719,0-8.533-3.814-8.533-8.533V204.8c0-4.719,3.814-8.533,8.533-8.533
			c4.719,0,8.533,3.814,8.533,8.533v8.533C136.533,218.052,132.719,221.867,128,221.867"/>
		<path style="fill:#535353;" d="M128,264.533c-4.719,0-8.533-3.814-8.533-8.533v-8.533c0-4.719,3.814-8.533,8.533-8.533
			c4.719,0,8.533,3.814,8.533,8.533V256C136.533,260.719,132.719,264.533,128,264.533"/>
		<path style="fill:#535353;" d="M128,307.2c-4.719,0-8.533-3.814-8.533-8.533v-8.533c0-4.719,3.814-8.533,8.533-8.533
			c4.719,0,8.533,3.814,8.533,8.533v8.533C136.533,303.386,132.719,307.2,128,307.2"/>
		<path style="fill:#535353;" d="M128,349.867c-4.719,0-8.533-3.814-8.533-8.533V332.8c0-4.719,3.814-8.533,8.533-8.533
			c4.719,0,8.533,3.814,8.533,8.533v8.533C136.533,346.052,132.719,349.867,128,349.867"/>
		<path style="fill:#535353;" d="M384,358.4c-4.719,0-8.533-3.814-8.533-8.533v-8.533c0-4.719,3.814-8.533,8.533-8.533
			c4.719,0,8.533,3.814,8.533,8.533v8.533C392.533,354.586,388.719,358.4,384,358.4"/>
		<path style="fill:#535353;" d="M384,315.733c-4.719,0-8.533-3.814-8.533-8.533v-8.533c0-4.719,3.814-8.533,8.533-8.533
			c4.719,0,8.533,3.814,8.533,8.533v8.533C392.533,311.919,388.719,315.733,384,315.733"/>
		<path style="fill:#535353;" d="M384,273.067c-4.719,0-8.533-3.814-8.533-8.533V256c0-4.719,3.814-8.533,8.533-8.533
			c4.719,0,8.533,3.814,8.533,8.533v8.533C392.533,269.252,388.719,273.067,384,273.067"/>
		<path style="fill:#535353;" d="M384,230.4c-4.719,0-8.533-3.814-8.533-8.533v-8.533c0-4.719,3.814-8.533,8.533-8.533
			c4.719,0,8.533,3.814,8.533,8.533v8.533C392.533,226.586,388.719,230.4,384,230.4"/>
	</g>
</g>
<g>
</g>
<g>
</g>
<g>
</g>
<g>
</g>
<g>
</g>
<g>
</g>
<g>
</g>
<g>
</g>
<g>
</g>
<g>
</g>
<g>
</g>
<g>
</g>
<g>
</g>
<g>
</g>
<g>
</g>
</svg>
