<?xml version="1.0" encoding="iso-8859-1"?>
<!-- Generator: Adobe Illustrator 19.0.0, SVG Export Plug-In . SVG Version: 6.00 Build 0)  -->
<svg version="1.1" id="Layer_1" xmlns="http://www.w3.org/2000/svg" xmlns:xlink="http://www.w3.org/1999/xlink" x="0px" y="0px"
	 viewBox="0 0 512.003 512.003" style="enable-background:new 0 0 512.003 512.003;" xml:space="preserve">
<g>
	<path style="fill:#C6421E;" d="M136.192,370.462c-5.797,1.362-11.575,2.825-17.335,4.398c0,52.215,9.106,101.888,27.429,137.143
		H192c-13.12-26.039-18.286-61.294-18.286-100.571c52.571-11.977,112.375-12.014,164.571,0c0,39.214-5.138,74.487-18.286,100.571
		h45.714c18.331-35.246,27.429-84.91,27.429-137.143c-7.781-2.103-15.607-3.959-23.442-5.705
		C289.482,352.24,216.805,352.661,136.192,370.462"/>
	<path style="fill:#FECA09;" d="M186.881,323.536h0.018l218.633-218.642l-25.856-25.856L125.515,333.2l0,0
		c-37.376,7.973-73.463,19.575-107.227,35.127l36.571,24.814c146.286-48.503,256-48.695,402.286,0l36.571-24.814
		C397.085,328.445,289.044,313.04,186.881,323.536"/>
	<g>
		<path style="fill:#C6421E;" d="M283.428,143.168v-21.413C305.033,111.479,320,89.518,320,64c0-35.346-28.654-64-64-64
			s-64,28.654-64,64c0,25.518,14.967,47.479,36.571,57.755v21.403c0,14.235-8.411,26.798-21.111,33.216
			c-48.896,24.686-84.389,85.614-88.174,158.19c1.993-0.448,4.041-0.75,6.034-1.179l166.793-166.793
			C286.656,160.128,283.428,151.973,283.428,143.168"/>
		<path style="fill:#C6421E;" d="M322.732,187.697L186.952,323.478c67.831-7.086,138.149-2.734,205.815,12.718
			C389.85,272.287,362.376,217.238,322.732,187.697"/>
	</g>
</g>
<g>
</g>
<g>
</g>
<g>
</g>
<g>
</g>
<g>
</g>
<g>
</g>
<g>
</g>
<g>
</g>
<g>
</g>
<g>
</g>
<g>
</g>
<g>
</g>
<g>
</g>
<g>
</g>
<g>
</g>
</svg>
