<?xml version="1.0" encoding="iso-8859-1"?>
<!-- Generator: Adobe Illustrator 19.0.0, SVG Export Plug-In . SVG Version: 6.00 Build 0)  -->
<svg version="1.1" id="Layer_1" xmlns="http://www.w3.org/2000/svg" xmlns:xlink="http://www.w3.org/1999/xlink" x="0px" y="0px"
	 viewBox="0 0 512 512" style="enable-background:new 0 0 512 512;" xml:space="preserve">
<g>
	<path style="fill:#535353;" d="M256,459.034c-74.884,0-140.376-40.775-175.572-101.261c11.123-2.993,22.669-4.67,34.33-4.67
		h282.483c11.661,0,23.208,1.677,34.331,4.67C396.376,418.26,330.884,459.034,256,459.034 M61.855,196.59
		c40.695,7.353,70.559,31.153,70.559,59.41s-29.864,52.056-70.559,59.41c-5.764-18.794-8.889-38.744-8.889-59.41
		S56.09,215.384,61.855,196.59 M256,52.966c74.884,0,140.394,40.783,175.581,101.279c-11.123,2.993-22.678,4.652-34.339,4.652
		H114.759c-11.661,0-23.217-1.66-34.339-4.652C115.606,93.749,181.116,52.966,256,52.966 M459.034,256
		c0,20.683-3.125,40.651-8.907,59.463c-40.695-7.353-70.541-31.206-70.541-59.463s29.846-52.109,70.541-59.463
		C455.91,215.349,459.034,235.317,459.034,256 M256,0C114.617,0,0,114.617,0,256s114.617,256,256,256s256-114.617,256-256
		S397.383,0,256,0"/>
	<polygon style="fill:#FECA09;" points="256,238.345 229.517,273.655 203.034,238.345 229.517,203.034 	"/>
	<polygon style="fill:#FC5923;" points="282.483,273.655 256,308.966 229.517,273.655 256,238.345 	"/>
	<polygon style="fill:#74B73E;" points="308.966,238.345 282.483,273.655 256,238.345 282.483,203.034 	"/>
</g>
<g>
</g>
<g>
</g>
<g>
</g>
<g>
</g>
<g>
</g>
<g>
</g>
<g>
</g>
<g>
</g>
<g>
</g>
<g>
</g>
<g>
</g>
<g>
</g>
<g>
</g>
<g>
</g>
<g>
</g>
</svg>
