<?xml version="1.0" encoding="iso-8859-1"?>
<!-- Generator: Adobe Illustrator 19.0.0, SVG Export Plug-In . SVG Version: 6.00 Build 0)  -->
<svg version="1.1" id="Layer_1" xmlns="http://www.w3.org/2000/svg" xmlns:xlink="http://www.w3.org/1999/xlink" x="0px" y="0px"
	 viewBox="0 0 512.003 512.003" style="enable-background:new 0 0 512.003 512.003;" xml:space="preserve">
<g>
	<g>
		<path style="fill:#576D7E;" d="M234.308,394.849H8.681c-4.79,0-8.678-3.879-8.678-8.678s3.888-8.678,8.678-8.678h225.627
			c4.79,0,8.678,3.879,8.678,8.678S239.098,394.849,234.308,394.849"/>
		<path style="fill:#576D7E;" d="M241.478,376.933c-1.007,0-2.022-0.174-3.011-0.538L5.671,290.171
			c-4.495-1.658-6.795-6.656-5.129-11.151s6.682-6.786,11.151-5.12l232.795,86.224c4.495,1.657,6.786,6.647,5.129,11.151
			C248.325,374.772,245.001,376.933,241.478,376.933"/>
		<path style="fill:#576D7E;" d="M286.376,39.052c-4.79,0-8.678-3.879-8.678-8.678V13.018c0-4.799,3.888-8.678,8.678-8.678
			c4.79,0,8.678,3.879,8.678,8.678v17.356C295.054,35.173,291.166,39.052,286.376,39.052"/>
		<path style="fill:#576D7E;" d="M321.088,39.052c-4.79,0-8.678-3.879-8.678-8.678v-8.678c0-4.799,3.888-8.678,8.678-8.678
			c4.79,0,8.678,3.879,8.678,8.678v8.678C329.766,35.173,325.878,39.052,321.088,39.052"/>
		<path style="fill:#576D7E;" d="M242.986,39.052c-4.79,0-8.678-3.879-8.678-8.678v-8.678c0-4.799,3.888-8.678,8.678-8.678
			s8.678,3.879,8.678,8.678v8.678C251.664,35.173,247.776,39.052,242.986,39.052"/>
	</g>
	<path style="fill:#34485C;" d="M286.376,282.035c-4.79,0-8.678-3.879-8.678-8.678v-34.712c0-4.799,3.888-8.678,8.678-8.678
		c4.79,0,8.678,3.879,8.678,8.678v34.712C295.054,278.156,291.166,282.035,286.376,282.035"/>
	<path style="fill:#A4A4A4;" d="M471.021,507.662h-56.884c-22.632,0-40.986-18.345-40.986-40.977v-195.74
		c0-22.632,18.354-40.977,40.986-40.977h56.884c22.632,0,40.977,18.345,40.977,40.977v195.74
		C511.999,489.317,493.653,507.662,471.021,507.662"/>
	<g>
		<polygon style="fill:#535353;" points="425.223,299.391 373.155,299.391 373.155,264.679 442.579,264.679 		"/>
		<polygon style="fill:#535353;" points="512.003,299.391 468.613,299.391 485.969,264.679 512.003,264.679 		"/>
		<polygon style="fill:#535353;" points="425.223,368.815 373.155,368.815 373.155,334.103 407.867,334.103 		"/>
		<polygon style="fill:#535353;" points="512.003,368.815 468.613,368.815 451.257,334.103 512.003,334.103 		"/>
		<polygon style="fill:#535353;" points="416.545,438.239 373.155,438.239 373.155,403.527 433.901,403.527 		"/>
		<polygon style="fill:#535353;" points="512.003,438.239 459.935,438.239 477.291,403.527 512.003,403.527 		"/>
		<path style="fill:#535353;" d="M373.787,472.951c3.037,19.638,19.864,34.712,40.353,34.712h11.082l-17.356-34.712H373.787z"/>
	</g>
	<path style="fill:#34485C;" d="M303.732,412.205h-43.39c-14.379,0-26.034-11.655-26.034-26.034s11.655-26.034,26.034-26.034h43.39
		V412.205z"/>
	<polygon style="fill:#576D7E;" points="269.016,238.646 303.727,238.646 303.727,65.086 269.016,65.086 	"/>
	<polygon style="fill:#34485C;" points="225.626,65.086 347.117,65.086 347.117,30.374 225.626,30.374 	"/>
	<g>
		<path style="fill:#C6421E;" d="M234.308,134.51c-4.79,0-8.678-3.879-8.678-8.678c0-14.353,11.681-26.034,26.034-26.034h69.424
			c4.782,0,8.678-3.888,8.678-8.678c0-4.799,3.888-8.678,8.678-8.678c4.79,0,8.678,3.879,8.678,8.678
			c0,14.353-11.681,26.034-26.034,26.034h-69.424c-4.782,0-8.678,3.888-8.678,8.678C242.986,130.631,239.098,134.51,234.308,134.51"
			/>
		<path style="fill:#C6421E;" d="M234.308,177.9c-4.79,0-8.678-3.879-8.678-8.678c0-14.353,11.681-26.034,26.034-26.034h69.424
			c4.782,0,8.678-3.888,8.678-8.678c0-4.799,3.888-8.678,8.678-8.678c4.79,0,8.678,3.879,8.678,8.678
			c0,14.353-11.681,26.034-26.034,26.034h-69.424c-4.782,0-8.678,3.888-8.678,8.678C242.986,174.021,239.098,177.9,234.308,177.9"/>
		<path style="fill:#C6421E;" d="M234.308,221.29c-4.79,0-8.678-3.879-8.678-8.678c0-14.353,11.681-26.034,26.034-26.034h69.424
			c4.782,0,8.678-3.888,8.678-8.678c0-4.799,3.888-8.678,8.678-8.678c4.79,0,8.678,3.879,8.678,8.678
			c0,14.353-11.681,26.034-26.034,26.034h-69.424c-4.782,0-8.678,3.888-8.678,8.678C242.986,217.411,239.098,221.29,234.308,221.29"
			/>
	</g>
	<path style="fill:#576D7E;" d="M338.444,316.747v-34.712H305.65c-4.764-5.294-11.594-8.678-19.274-8.678
		c-14.379,0-26.034,11.655-26.034,26.034s11.655,26.034,26.034,26.034c6.699,0,12.739-2.603,17.356-6.76v128.252h69.424V316.747
		H338.444z"/>
	<path style="fill:#535353;" d="M511.371,472.951h-60.112l17.356,34.712h2.404C491.507,507.662,508.334,492.589,511.371,472.951"/>
</g>
<g>
</g>
<g>
</g>
<g>
</g>
<g>
</g>
<g>
</g>
<g>
</g>
<g>
</g>
<g>
</g>
<g>
</g>
<g>
</g>
<g>
</g>
<g>
</g>
<g>
</g>
<g>
</g>
<g>
</g>
</svg>
