<?xml version="1.0" encoding="iso-8859-1"?>
<!-- Generator: Adobe Illustrator 19.0.0, SVG Export Plug-In . SVG Version: 6.00 Build 0)  -->
<svg version="1.1" id="Layer_1" xmlns="http://www.w3.org/2000/svg" xmlns:xlink="http://www.w3.org/1999/xlink" x="0px" y="0px"
	 viewBox="0 0 501.867 501.867" style="enable-background:new 0 0 501.867 501.867;" xml:space="preserve">
<g>
	<path style="fill:#4897F7;" d="M453.968,493.693L453.968,493.693c-131.681-46.892-274.759-46.883-406.069,0L0.574,241.277
		c-3.187-17.002,7.177-33.607,23.843-38.206l62.164-17.143c108.959-25.415,222.685-25,328.704,0l62.164,17.143
		c16.667,4.599,27.03,21.204,23.843,38.206L453.968,493.693z"/>
	<g>
		<path style="fill:#397ABC;" d="M250.934,325.969c-4.882,0-8.828-3.946-8.828-8.828v-17.655c0-4.882,3.946-8.828,8.828-8.828
			s8.828,3.946,8.828,8.828v17.655C259.761,322.023,255.815,325.969,250.934,325.969"/>
		<path style="fill:#397ABC;" d="M250.934,378.935c-4.882,0-8.828-3.946-8.828-8.828v-17.655c0-4.882,3.946-8.828,8.828-8.828
			s8.828,3.946,8.828,8.828v17.655C259.761,374.989,255.815,378.935,250.934,378.935"/>
		<path style="fill:#397ABC;" d="M250.934,273.004c-4.882,0-8.828-3.946-8.828-8.828v-17.655c0-4.882,3.946-8.828,8.828-8.828
			s8.828,3.946,8.828,8.828v17.655C259.761,269.058,255.815,273.004,250.934,273.004"/>
		<path style="fill:#397ABC;" d="M250.934,220.038c-4.882,0-8.828-3.946-8.828-8.828v-52.966c0-4.882,3.946-8.828,8.828-8.828
			s8.828,3.946,8.828,8.828v52.966C259.761,216.092,255.815,220.038,250.934,220.038"/>
		<path style="fill:#397ABC;" d="M250.934,131.762c-4.882,0-8.828-3.946-8.828-8.828c0-16.675,3.496-32.759,10.408-47.819
			c2.039-4.423,7.274-6.374,11.705-4.343c4.431,2.03,6.382,7.274,4.343,11.705c-5.844,12.729-8.801,26.342-8.801,40.457
			C259.761,127.817,255.815,131.762,250.934,131.762"/>
		<path style="fill:#397ABC;" d="M456.942,96.409c-3.663,0-7.089-2.295-8.342-5.95c-5.376-15.572-14.689-29.537-26.959-40.351
			c-3.655-3.231-3.999-8.81-0.777-12.465c3.249-3.655,8.819-3.99,12.465-0.777c14.548,12.844,25.6,29.387,31.956,47.837
			c1.589,4.608-0.856,9.64-5.464,11.22C458.867,96.25,457.896,96.409,456.942,96.409"/>
		<path style="fill:#397ABC;" d="M392.218,31.875c-0.971,0-1.977-0.168-2.948-0.512c-12.915-4.573-26.933-6.321-40.501-5.191
			c-4.943,0.335-9.128-3.231-9.534-8.077c-0.397-4.855,3.213-9.128,8.068-9.534c16.057-1.324,32.591,0.759,47.863,6.17
			c4.59,1.624,7,6.665,5.367,11.264C399.263,29.615,395.855,31.875,392.218,31.875"/>
		<path style="fill:#397ABC;" d="M277.908,61.142c-2.101,0-4.211-0.742-5.888-2.251c-3.628-3.249-3.937-8.836-0.689-12.465
			c10.937-12.217,24.629-22.14,39.601-28.681c4.458-1.96,9.675,0.088,11.626,4.555c1.951,4.458-0.088,9.666-4.555,11.617
			c-12.668,5.544-24.258,13.939-33.518,24.285C282.746,60.153,280.327,61.142,277.908,61.142"/>
		<path style="fill:#397ABC;" d="M250.934,131.762c-4.882,0-8.828-3.946-8.828-8.828c0-14.115-2.957-27.727-8.801-40.457
			c-2.039-4.431-0.088-9.675,4.343-11.705c4.458-2.03,9.675-0.079,11.705,4.343c6.912,15.06,10.408,31.144,10.408,47.819
			C259.761,127.817,255.815,131.762,250.934,131.762"/>
		<path style="fill:#397ABC;" d="M44.916,96.452c-0.945,0-1.924-0.159-2.869-0.486c-4.617-1.58-7.062-6.612-5.473-11.211
			c6.347-18.485,17.408-35.037,31.965-47.89c3.663-3.213,9.234-2.878,12.465,0.777c3.222,3.655,2.878,9.234-0.777,12.465
			C67.947,60.939,58.634,74.904,53.258,90.493C52.005,94.157,48.58,96.452,44.916,96.452"/>
		<path style="fill:#397ABC;" d="M109.649,31.875c-3.637,0-7.036-2.26-8.316-5.879c-1.633-4.599,0.777-9.64,5.367-11.264
			c15.272-5.42,31.797-7.495,47.863-6.17c4.855,0.406,8.466,4.679,8.068,9.534c-0.406,4.846-4.626,8.422-9.534,8.077
			c-13.542-1.139-27.577,0.618-40.501,5.191C111.626,31.707,110.62,31.875,109.649,31.875"/>
		<path style="fill:#397ABC;" d="M223.959,61.142c-2.419,0-4.838-0.989-6.577-2.94c-9.26-10.346-20.851-18.741-33.518-24.285
			c-4.467-1.951-6.506-7.159-4.555-11.617c1.942-4.476,7.168-6.532,11.626-4.555c14.972,6.541,28.663,16.463,39.601,28.681
			c3.249,3.628,2.94,9.216-0.689,12.465C228.17,60.4,226.051,61.142,223.959,61.142"/>
	</g>
</g>
<g>
</g>
<g>
</g>
<g>
</g>
<g>
</g>
<g>
</g>
<g>
</g>
<g>
</g>
<g>
</g>
<g>
</g>
<g>
</g>
<g>
</g>
<g>
</g>
<g>
</g>
<g>
</g>
<g>
</g>
</svg>
