<?xml version="1.0" encoding="iso-8859-1"?>
<!-- Generator: Adobe Illustrator 19.0.0, SVG Export Plug-In . SVG Version: 6.00 Build 0)  -->
<svg version="1.1" id="Layer_1" xmlns="http://www.w3.org/2000/svg" xmlns:xlink="http://www.w3.org/1999/xlink" x="0px" y="0px"
	 viewBox="0 0 512.004 512.004" style="enable-background:new 0 0 512.004 512.004;" xml:space="preserve">
<g>
	<path style="fill:#94CAFF;" d="M512.004,278.071h-512v-71.327c0-5.217,1.977-10.24,5.544-14.062L117.482,72.759
		c3.893-4.175,9.348-6.55,15.06-6.55h379.463V278.071z"/>
	<polygon style="fill:#397ABC;" points="0,445.795 512,445.795 512,278.071 0,278.071 	"/>
	<g>
		<path style="fill:#FFFFFF;" d="M256.004,410.485c-4.882,0-8.828-3.946-8.828-8.828v-79.448c0-4.882,3.946-8.828,8.828-8.828
			c4.882,0,8.828,3.946,8.828,8.828v79.448C264.832,406.539,260.886,410.485,256.004,410.485"/>
		<path style="fill:#FFFFFF;" d="M256.004,410.485c-2.26,0-4.52-0.865-6.241-2.586c-3.452-3.452-3.452-9.031,0-12.482l26.483-26.483
			c3.452-3.452,9.031-3.452,12.482,0s3.452,9.031,0,12.482l-26.483,26.483C260.524,409.62,258.264,410.485,256.004,410.485"/>
		<path style="fill:#FFFFFF;" d="M256.004,410.485c-2.26,0-4.52-0.865-6.241-2.586l-26.483-26.483
			c-3.452-3.452-3.452-9.031,0-12.482c3.452-3.452,9.031-3.452,12.482,0l26.483,26.483c3.452,3.452,3.452,9.031,0,12.482
			C260.524,409.62,258.264,410.485,256.004,410.485"/>
	</g>
	<path style="fill:#4897F7;" d="M165.545,180.968c-5.711,0-11.167,2.375-15.069,6.55l-84.524,90.553h446.049v-97.103H165.545z"/>
</g>
<g>
</g>
<g>
</g>
<g>
</g>
<g>
</g>
<g>
</g>
<g>
</g>
<g>
</g>
<g>
</g>
<g>
</g>
<g>
</g>
<g>
</g>
<g>
</g>
<g>
</g>
<g>
</g>
<g>
</g>
</svg>
